<svg class="main-svg" xmlns="http://www.w3.org/2000/svg" xmlns:xlink="http://www.w3.org/1999/xlink" width="700" height="450" style="" viewBox="0 0 700 450"><rect x="0" y="0" width="700" height="450" style="fill: rgb(255, 255, 255); fill-opacity: 1;"/><defs id="defs-d6903c"><g class="clips"><clipPath id="clipd6903cxyplot" class="plotclip"><rect width="482" height="270"/></clipPath><clipPath class="axesclip" id="clipd6903cx"><rect x="80" y="0" width="482" height="450"/></clipPath><clipPath class="axesclip" id="clipd6903cy"><rect x="0" y="100" width="700" height="270"/></clipPath><clipPath class="axesclip" id="clipd6903cxy"><rect x="80" y="100" width="482" height="270"/></clipPath></g><g class="gradients"/><g class="patterns"/></defs><g class="bglayer"/><g class="layer-below"><g class="imagelayer"/><g class="shapelayer"/></g><g class="cartesianlayer"><g class="subplot xy"><g class="layer-subplot"><g class="shapelayer"/><g class="imagelayer"/></g><g class="minor-gridlayer"><g class="x"/><g class="y"/></g><g class="gridlayer"><g class="x"><path class="xgrid crisp" transform="translate(173.03,0)" d="M0,100v270" style="stroke: rgb(238, 238, 238); stroke-opacity: 1; stroke-width: 1px;"/><path class="xgrid crisp" transform="translate(266.06,0)" d="M0,100v270" style="stroke: rgb(238, 238, 238); stroke-opacity: 1; stroke-width: 1px;"/><path class="xgrid crisp" transform="translate(359.1,0)" d="M0,100v270" style="stroke: rgb(238, 238, 238); stroke-opacity: 1; stroke-width: 1px;"/><path class="xgrid crisp" transform="translate(452.13,0)" d="M0,100v270" style="stroke: rgb(238, 238, 238); stroke-opacity: 1; stroke-width: 1px;"/><path class="xgrid crisp" transform="translate(545.1600000000001,0)" d="M0,100v270" style="stroke: rgb(238, 238, 238); stroke-opacity: 1; stroke-width: 1px;"/></g><g class="y"><path class="ygrid crisp" transform="translate(0,363.24)" d="M80,0h482" style="stroke: rgb(238, 238, 238); stroke-opacity: 1; stroke-width: 1px;"/><path class="ygrid crisp" transform="translate(0,315.1)" d="M80,0h482" style="stroke: rgb(238, 238, 238); stroke-opacity: 1; stroke-width: 1px;"/><path class="ygrid crisp" transform="translate(0,266.97)" d="M80,0h482" style="stroke: rgb(238, 238, 238); stroke-opacity: 1; stroke-width: 1px;"/><path class="ygrid crisp" transform="translate(0,218.82999999999998)" d="M80,0h482" style="stroke: rgb(238, 238, 238); stroke-opacity: 1; stroke-width: 1px;"/><path class="ygrid crisp" transform="translate(0,170.69)" d="M80,0h482" style="stroke: rgb(238, 238, 238); stroke-opacity: 1; stroke-width: 1px;"/><path class="ygrid crisp" transform="translate(0,122.55)" d="M80,0h482" style="stroke: rgb(238, 238, 238); stroke-opacity: 1; stroke-width: 1px;"/></g></g><g class="zerolinelayer"/><path class="xlines-below"/><path class="ylines-below"/><g class="overlines-below"/><g class="xaxislayer-below"/><g class="yaxislayer-below"/><g class="overaxes-below"/><g class="plot" transform="translate(80,100)" clip-path="url(#clipd6903cxyplot)"><g class="scatterlayer mlayer"><g class="trace scatter traced59198" style="stroke-miterlimit: 2; opacity: 1;"><g class="fills"/><g class="errorbars"/><g class="lines"><path class="js-line" style="vector-effect: none; fill: none; stroke: rgb(0, 0, 255); stroke-opacity: 1; stroke-width: 2px; opacity: 1;" d="M0,13.5L0.23,33.58L0.28,32.47"/></g><g class="points"/><g class="text"/></g><g class="trace scatter traceb57b1c" style="stroke-miterlimit: 2; opacity: 1;"><g class="fills"/><g class="errorbars"/><g class="lines"><path class="js-line" style="vector-effect: none; fill: none; stroke: rgb(0, 0, 255); stroke-opacity: 1; stroke-width: 2px; opacity: 1;" d="M65.17,160.38L65.31,154.4L65.36,162.36L65.63,159.12L65.68,183.32L65.87,152.4L66.43,164.18L66.7,165.24L66.84,166.79L66.89,160.44L66.98,166.59L67.03,180.12L67.45,150.79L67.68,182.41L67.82,167.35L67.96,180.35L68.24,154.77L68.43,193.7L68.47,170.5L68.75,184.91L69.03,186.94L69.12,147.38L69.59,153.36L69.77,158.84L69.82,179.4L70.47,167.3L70.56,159.8L70.8,155.71L70.98,174.85L71.12,151.12L71.26,184.61L71.54,183.3L71.82,175.45L71.87,142.11L72.47,172.71L72.57,179.48L72.61,186.11L72.7,153.92L73.17,175.57L73.31,173.92L73.4,152.21L73.59,176.93L74.1,157.38L74.24,183.38L74.43,178.83L74.47,179.68L74.57,158.06L74.61,184.76L74.66,153.53L75.31,168.16L75.36,157.43L75.45,181.71L76.1,163.78L76.19,164.61L76.43,182.38L76.89,146.08L76.94,183.43L77.26,153.81L77.36,165.36L77.73,187.23L78.1,159.31L78.43,191.39L78.52,167.59L78.57,175.96L78.66,188.85L79.08,161.63L79.31,169.1L79.5,162.2L79.54,189.48L79.87,174.2L79.96,167.47L80.15,158.92L80.85,197L80.89,182.63L80.98,187.91L81.22,188.88L81.68,158.52L81.82,165.98L81.91,184.84L82.15,187.73L82.71,162.5L82.75,172.69L83.08,166.23L83.12,169.21L83.31,177.6L83.36,160.35L83.54,182.97L83.96,182.68L84.15,155.34L84.38,195.74L84.47,152.68L84.8,181.45L84.94,162.32L85.17,154.51L85.54,193.59L85.68,176.52L85.78,167.88L85.87,149.03L86.1,170.09L86.15,184.13L86.38,161.6L86.57,197.94L86.94,166.9L87.03,156.78L87.5,185.37L87.82,182.48L87.87,157.69L88.71,178.95L88.8,159.43L88.85,161.19L88.89,199.16L89.26,160.86L89.5,162.41L89.82,172.06L90.01,168.7L90.1,172.86L90.15,160.71L90.29,156.16L90.43,182.68L90.85,169.63L90.94,171.86L91.31,157.3L91.4,207.81L91.59,185.81L91.73,169.17L91.82,170.61L91.96,197.59L92.89,151.39L92.94,191.85L93.03,171.78L93.13,215.31L93.22,164.84L93.82,192.07L93.92,187.24L94.15,155.51L94.61,170.57L94.71,182.86L95.13,167.56L95.17,189.89L95.36,177.69L95.45,175.3L95.5,194.18L95.59,169.73L96.2,182.19L96.33,167.87L96.57,188L97.13,176.87L97.36,182.72L97.45,165.56L97.68,183.53L98.15,174.81L98.2,173.64L98.61,192.81L98.8,162.55L98.89,187.19L98.94,155.33L98.99,191.5L99.73,187.56L99.78,182.19L99.82,185.91L100.34,169.21L100.43,182.28L100.66,170.05L100.89,199.19L101.03,157.73L101.41,172.94L101.45,172.83L101.87,168.56L102.2,188.83L102.34,173.12L102.57,182.37L102.99,174.39L103.22,176.36L103.45,187.39L103.92,164.64L104.01,179.26L104.2,200.72L104.24,171.23L104.48,175.72L104.71,175.81L105.22,198.57L105.41,165L105.45,191.51L105.64,185.25L105.68,189.31L106.34,180.79L106.38,175.4L106.57,186.18L106.66,172.6L107.22,219.45L107.31,163.42L107.5,205.6L107.55,172.25L107.68,160.07L107.87,205.38L108.34,185.91L108.38,170.33L108.48,164.83L108.94,193.97L109.13,182.32L109.31,180.99L109.45,196.77L109.82,176.57L109.96,188.83L110.01,173.48L110.2,193.45L110.34,164.87L110.71,179.89L110.8,165.32L111.03,194.93L111.59,183.79L111.64,171.17L111.73,169.53L111.78,194.5L112.2,166.18L112.48,177.9L112.71,180.55L112.89,195.51L113.03,166.82L113.5,186.01L113.69,172.7L114.15,172.28L114.43,199.52L114.48,182.78L114.57,179.1L114.76,184.11L114.94,170.72L114.99,181.98L115.31,172.64L115.64,216.1L115.69,193.14L115.73,186.1L115.92,176.33L116.24,190.87L116.34,194.71L116.9,198.31L117.08,170.29L117.22,179.08L117.31,179.48L117.36,187.11L117.64,181.18L117.69,208.06L118.06,192.68L118.15,193.19L118.29,187.24L118.43,193.84L118.48,211.83L118.71,177.06L119.31,179.9L119.41,174.06L119.92,201.98L120.24,194.12L120.34,186.73L120.48,191.17L120.9,171.17L121.03,202.46L121.27,208.82L121.41,176.01L121.78,196.52L121.83,185.44L122.06,192.84L122.15,179.37L122.29,197.62L122.48,197.76L122.9,179.14L122.94,206.34L123.59,172.13L123.78,177.87L123.83,180.24L124.1,193.41L124.29,190.31L124.52,176.08L124.62,190.91L124.8,171.3L124.94,165.17L125.92,200.99L126.11,185.62L126.66,178.5L126.8,199L126.85,168.76L127.69,195.02L127.73,174.77L128.15,198.44L128.43,193.27L128.62,182.99L128.66,174.84L128.71,195.32L129.18,192.02L129.36,199L130.15,172.43L130.25,186.72L130.29,206.81L130.9,176.5L131.08,181.82L131.18,192.81L131.31,205.25L131.87,173.38L131.97,178.8L132.06,186.33L132.34,182.22L132.52,204.61L132.8,189.84L132.85,187.4L133.08,177.37L133.18,205.93L133.55,188.28L133.69,208.1L134.11,177.35L134.43,195.26L134.48,203.57L134.85,170.54L135.18,192.56L135.36,189.09L135.55,203.43L135.69,180.38L136.01,187.98L136.15,182.07L136.34,180.56L136.85,192.51L137.04,182.27L137.83,213.78L137.92,208.38L137.97,191.5L138.01,199.03L138.25,163.04L138.57,191.67L138.62,167.07L138.71,196.89L139.36,181.93L139.41,177.78L139.64,208.3L140.11,189.79L140.2,185.67L140.62,177.79L140.85,203.15L140.99,179.33L141.32,226.41L141.46,177.01L141.73,196.97L141.78,179.04L142.06,176.37L142.29,201.29L142.57,186.48L142.66,181.64L142.85,206.56L143.04,186.58L143.18,180.85L143.36,238.05L143.64,196.62L143.69,197.69L143.73,203.16L144.25,179.8L144.34,194.75L144.43,193.97L144.57,201.08L144.67,178.29L145.27,200.43L145.32,199.46L145.36,203.14L145.41,187.85L145.64,190.51L146.01,190.49L146.34,208.99L146.62,183.41L146.76,199.38L146.9,193.8L147.13,194.48L147.18,198.1L147.74,206.11L147.83,187.16L147.97,192.32L148.01,197.61L148.25,188.21L148.62,212.21L148.71,185.2L148.76,169.43L148.94,199.82L149.36,190.61L149.55,179.75L149.74,210.35L149.97,189.47L150.11,182.92L150.25,180.24L150.43,201.41L150.67,194.08L150.94,186.99L151.5,173.29L151.69,210.3L151.88,182.99L152.2,222.39L152.39,181.32L152.62,195.32L152.76,184.84L153.32,213.44L153.5,193.58L153.6,204.81L153.64,210.38L153.97,182.44L154.15,191.11L154.29,191.06L154.76,180.33L155.04,202.47L155.18,186.22L155.22,214.77L155.64,179.26L155.92,180.5L156.02,196.78L156.34,206"/></g><g class="points"/><g class="text"/></g><g class="trace scatter trace839942" style="stroke-miterlimit: 2; opacity: 1;"><g class="fills"/><g class="errorbars"/><g class="lines"><path class="js-line" style="vector-effect: none; fill: none; stroke: rgb(0, 0, 255); stroke-opacity: 1; stroke-width: 2px; opacity: 1;" d="M156.43,203.54L156.53,215.39L156.57,194.61L156.95,212.2L157.08,183.12L157.36,207.83L157.83,197.81L157.92,186.72L158.02,218.4L158.11,176.26L158.62,212.27L158.85,184.69L158.9,187.22L159.32,185.4L159.46,216.18L159.69,210.7L159.74,191.94L159.83,179.7L160.25,210.01L160.39,195.45L160.43,200.8L160.57,181.64L161.09,206.96L161.22,199.07L161.36,195.28L161.41,191.12L161.5,180.06L161.78,206.03L162.06,191.51L162.25,192.11L162.29,177.08L162.48,204.95L162.95,196.9L162.99,200.06L163.09,175.73L163.23,204.63L163.74,196.53L163.78,191.91L163.88,194.04L163.97,189.53L164.02,191.22L164.06,197.88L164.34,177.69L164.39,211.54L164.57,189.58L164.62,205.83L164.67,183.48L164.81,212.23L165.36,195.95L165.41,189.62L165.74,173.45L165.97,206.8L166.02,188.62L166.06,181.85L166.62,204.91L166.76,184.43L166.85,191.74L166.95,209.4L167.27,178.76L167.55,191.06L167.64,200L167.69,199.75L167.78,211.66L168.2,183.12L168.43,225.93L168.53,188.33L168.62,214.25L168.99,217.87L169.04,188.32L169.37,195.11L169.41,198.97L169.5,207.19L169.83,184.36L170.16,196.91L170.2,212.15L170.34,197.19L170.39,230.41L170.57,214.96L170.62,194.63L170.81,230.54L171.04,192.2L171.41,218.57L171.5,217.6L171.74,184.15L172.11,200.96L172.16,205.99L172.71,217.39L172.81,177.5L172.95,201.41L173.04,198.6L173.23,214.52L173.6,189.89L173.78,211.45L173.83,201.77L174.39,209.66L174.57,184.51L174.62,200.91L174.95,185.46L175.09,217.2L175.13,210.93L175.23,189.17L175.88,207.16L175.92,181.9L176.02,199.32L176.06,186.46L176.67,213.48L176.85,203.54L176.9,194.44L177.13,181.44L177.41,215.13L177.55,199.56L177.65,186.41L178.11,206.82L178.3,179.01L178.48,203.81L178.53,198.91L178.67,182.71L179.13,203.67L179.18,193.41L179.23,207.28L179.27,180.83L179.55,211.12L179.97,194.62L180.02,218.37L180.58,178.61L180.76,193.84L180.9,178.21L181.69,216.34L181.74,192.05L181.83,197L181.92,180.8L182.39,190.04L182.58,200.06L182.76,224.72L182.85,195.82L183.23,201.3L183.41,205.65L183.65,214.19L183.69,207.36L183.79,199.12L184.16,191.08L184.39,212.49L184.48,208.44L184.58,187.2L184.95,210.4L185.37,202.57L185.41,199.17L185.65,194.07L185.88,227.17L186.06,211.19L186.2,197.89L186.34,190.79L186.9,218.37L187.04,226.92L187.83,183.2L187.88,198.87L188.48,213.59L188.53,189.25L188.62,206.6L188.95,185.71L189.13,219.98L189.23,193.45L189.41,216.49L189.55,179.3L189.79,216.84L190.2,191.69L190.25,189.77L190.62,225.84L190.95,197.32L191,195.97L191.09,214.39L191.55,187.13L191.74,214.32L191.88,193.65L191.93,193.22L191.97,198.43L192.02,190.87L192.11,186.75L192.53,214.52L192.76,205.14L192.81,197.5L192.86,220.29L193.32,174.69L193.51,212.04L193.6,197.22L193.83,191.87L194.02,212.67L194.34,204.42L194.44,195.74L194.48,196.18L194.53,215.84L195.04,184.05L195.27,197.74L195.32,195.98L195.46,188.47L195.65,223.11L195.83,216.65L195.97,215.87L196.02,191.78L196.34,222.37L196.72,203.71L196.81,207.24L197.23,197.18L197.37,219.68L197.55,200.47L197.6,220.22L197.93,186.75L198.34,191.72L198.39,208.24L198.48,206.96L198.53,214.09L198.58,196.7L199.04,190.26L199.09,213.45L199.32,201.47L199.37,194.62L199.55,218.1L200.11,197.91L200.16,190.07L200.21,235.88L200.9,203.49L201.04,202.89L201.14,219.84L201.83,193.12L201.88,196.25L201.93,206.24L201.97,209.98L202.35,193.15L202.58,200.49L202.67,204.01L203.04,194.25L203.09,211.38L203.28,205.99L203.46,223.97L204.3,189.99L204.39,196.96L204.58,226.78L204.95,187.47L205.18,219.49L205.23,199.78L205.37,221.4L205.69,183.57L206.02,216.43L206.07,203.24L206.21,184.82L206.39,212.4L206.53,204.35L206.58,217.64L207.04,187.2L207.28,188.58L207.51,208.91L207.6,208.75L207.69,190.98L207.74,215.07L207.97,190.69L208.39,195.54L208.49,209.23L208.53,230.25L209.14,192.35L209.18,221.26L209.23,202.69L209.28,228.78L209.93,196.36L209.97,210.41L210.02,201.18L210.16,195.61L210.76,220.88L210.95,221.95L211.18,197.13L211.23,236.04L211.69,198.96L211.74,213.53L211.93,217.81L212.53,198.74L212.58,198.63L212.72,191.74L213.32,217.55L213.42,210.23L213.56,196.88L213.6,215.73L214.11,214.4L214.16,223.9L214.49,188.66L214.9,209.82L215.04,204.49L215.28,214.88L215.32,191.57L215.6,200.35L215.74,196.69L215.88,192.29L216.11,219.36L216.21,196.99L216.25,232.03L216.58,186.61L216.86,232.44L217,206.39L217.09,203.34L217.23,181.89L217.46,214.48L217.74,211.81L217.79,191.23L217.97,215.84L218.53,188.09L218.67,206.77L218.86,189.22L219,196.24L219.09,203.55L219.46,225.11L219.56,195.06L219.79,201.59L219.84,216.4L219.97,190.88L220.63,199.69L220.67,200.73L220.86,192.1L220.91,204.43L220.95,205.64L221.14,210.7L221.37,199.24L221.42,211.16L221.51,196.07L221.56,221.02"/></g><g class="points"/><g class="text"/></g><g class="trace scatter trace465dbf" style="stroke-miterlimit: 2; opacity: 1;"><g class="fills"/><g class="errorbars"/><g class="lines"><path class="js-line" style="vector-effect: none; fill: none; stroke: rgb(0, 0, 255); stroke-opacity: 1; stroke-width: 2px; opacity: 1;" d="M221.6,203.85L221.79,210.48L222.07,199.86L222.11,220.29L222.3,191.08L222.86,202.94L223.14,204.98L223.32,200.98L223.46,221.15L223.79,201.49L223.88,195.73L224.11,223.34L224.53,206.08L224.63,206.97L224.86,233.55L225.42,191.07L225.46,226.03L225.56,184.59L226.21,197.6L226.25,215.96L226.53,216.95L227.23,194.34L227.42,210.99L227.56,190.06L227.7,223.54L227.93,205.14L227.98,222.62L228.25,214.98L228.3,182.42L229.05,220.8L229.14,190.24L229.23,216.73L229.84,189.27L229.88,209.88L229.98,206.13L230.25,190.46L230.67,222.11L230.86,213.7L231.09,190.6L231.32,220.82L231.42,208.01L231.51,188.48L231.88,218.31L232.25,210.78L232.53,198.25L232.72,197.23L232.81,201.8L232.86,218.75L233.32,181.73L233.7,189.76L233.79,200.88L234.16,222.88L234.39,198.27L234.44,199.67L234.53,194.77L234.72,230.4L235.33,207.81L235.37,201.26L235.46,217.91L235.84,211.97L235.88,199.03L235.98,230.67L236.44,208.08L236.58,199.81L237.28,230.89L237.42,223.45L237.56,217.22L237.65,222.87L238.12,196.19L238.26,203.9L238.35,218.1L238.44,196.37L238.58,222.27L239.14,198.99L239.19,208.71L239.56,202.31L239.74,211.92L239.79,194.83L239.98,220.19L240.4,215.31L240.58,188.52L240.81,228.09L240.91,188.01L241.23,216.36L241.37,193.98L241.6,187.73L241.98,226.28L242.12,214.32L242.21,199.33L242.26,200.41L242.3,181.41L243,228.92L243.05,208.09L243.19,202.9L243.47,190.24L243.93,216.36L243.98,215.17L244.02,213.91L244.26,214.14L244.3,189.28L244.77,191.22L244.91,207.65L245.23,191.08L245.33,232.96L245.7,191.99L245.74,195.52L245.93,193.98L246.54,205.94L246.58,194.33L246.72,188.83L246.86,217.44L247,192L247.05,190.97L247.84,240.91L248.02,221.35L248.16,205.47L248.26,206.76L248.4,232.47L249.33,185.41L249.37,226.37L249.56,247.04L249.65,199.99L250.16,203.81L250.26,224.91L250.58,189.31L250.72,205.87L250.81,218.54L251.23,219.95L251.56,200.72L251.61,221.4L251.93,227.73L252.02,203.53L252.3,212.95L252.63,214.99L253,220.25L253.37,198.46L253.42,203.33L253.56,207.29L253.88,194.38L254.12,216.98L254.26,197.29L255.05,222.33L255.09,208.81L255.14,202.86L255.37,183.9L255.61,220.37L255.7,216.96L255.93,203.18L256.12,191.3L256.26,217.96L256.72,211.19L256.77,197.61L257.33,226.36L257.47,190.01L257.56,217.22L257.65,206.38L258.02,218.59L258.3,197.35L258.4,208.42L258.63,219.56L258.77,203.23L259.09,206.27L259.14,204.16L259.28,208.87L259.7,201.83L259.79,208.63L259.84,199.82L260.35,192.46L260.63,233.14L260.68,202.55L261.19,222.04L261.33,221.94L261.47,201.43L261.65,229.87L261.84,194.94L262.12,220.98L262.58,215.79L263.1,205.29L263.23,218.57L263.56,203.39L263.65,247.99L264.12,189.51L264.44,211.89L264.54,221.81L264.91,195.55L265.28,203.47L265.37,222.59L265.75,206.58L265.89,223.42L266.77,192.69L267,197.57L267.24,195.48L267.47,222.6L267.75,215.74L267.84,206.35L267.93,221.39L268.63,194.64L268.72,218.46L269.33,221.27L269.47,195.23L269.75,201.37L270.12,198.29L270.26,219.57L270.54,204.78L270.58,197.7L270.86,225.5L271.24,207.31L271.33,199.98L271.38,196.3L271.7,218.85L271.84,201.64L271.89,221.82L272.07,239.28L272.44,203.07L272.68,214.83L272.77,218.14L272.91,197L273.1,203.48L273.14,202.44L273.19,201.62L273.24,214.61L273.33,222.06L273.51,197.63L273.98,214.36L274.07,205.06L274.12,228.24L274.72,210.38L274.86,203.86L275.24,232.14L275.56,219.52L275.65,198.52L275.89,230.29L276.4,205.83L276.58,217.78L276.91,231.55L276.96,226.49L277.1,195.63L277.52,221.87L277.84,197.48L278.03,215.36L278.12,210.87L278.21,216.64L278.26,193.66L278.91,221.65L279.19,215.69L279.28,202.97L279.52,240.19L279.84,224.1L279.93,209.41L280.03,224.32L280.54,202.22L280.72,211.19L280.96,199.38L281.05,215.93L281.24,228.87L281.38,203.81L281.98,206.5L282.03,225.58L282.12,231.89L282.17,205.26L282.54,226.25L282.72,205.39L283.14,211.77L283.24,200.48L283.38,202.14L283.7,201.21L284.12,203.91L284.17,221.86L284.49,235.37L284.86,198.67L285.05,211.89L285.1,225.36L285.47,189.96L285.61,202.63L285.8,202.6L286.03,199.54L286.07,223.92L286.4,226.43L286.59,190.52L286.68,214.3L286.73,227.28L286.96,233.96L287.33,208.19L287.61,212.65L287.7,223.4L288.21,228.33L288.49,199.61L288.54,218.78L288.63,199.79L288.96,231.5L289.28,220.19L289.33,216.57L289.52,211.71L289.98,230.35L290.12,202.24L290.77,197.82L290.87,223.24L290.91,210.87L291.1,223.14L291.28,202.09L291.33,224.15L292.07,196.78L292.12,237.73L292.96,204.74L293.1,225.71L293.47,226.19L293.56,193.76L293.84,199.85L293.94,216.53L294.54,224.71L294.68,203.65L294.77,207.71L294.91,207.41L295.33,193.42L295.56,217.93L295.8,215.81L295.89,221.24L296.49,198.04L296.54,222.27L296.96,197.67L297.28,204.33L297.42,219.27L297.7,190.65L297.75,221.74L297.94,211.82L298.17,220.73L298.45,227.12L298.91,203.94L299.01,211.13L299.24,198.1L299.28,210.18L299.47,217.65L299.61,206.31L299.84,229.4L300.12,207.09L300.17,228.5L300.22,234.27L300.63,200.04L300.77,216.04L300.87,206L301.19,235.58L301.75,219.65L301.8,220.78L302.49,203.49L302.54,220.64L302.68,223.29L302.87,211.74L302.91,226.37L302.96,206.15L303.56,231.63L303.61,199.45L303.7,202.51L303.84,215.59L304.17,199L304.45,214.81L304.59,202.49L305.33,200.25L305.38,246L305.42,215.68L305.8,208.28L305.98,229.22L306.17,226.7L306.22,203.86L306.68,198.56L306.87,223.46L307.1,219.41L307.38,214.48L307.8,229.12L307.94,199.36L308.12,218.42L308.63,229.09L308.73,191.57L309.01,202.73L309.05,211L309.19,210.35L309.24,220.21L310.08,198.11L310.26,204.38L310.36,199.44L310.4,226.35L310.82,210.13L311.1,206.12L311.66,188.06L311.8,228.4L311.84,211.6L311.89,200.95L312.17,229.77L312.36,199.85L312.77,228.7L312.82,226.32L312.87,214.96"/></g><g class="points"/><g class="text"/></g><g class="trace scatter tracea2f279" style="stroke-miterlimit: 2; opacity: 1;"><g class="fills"/><g class="errorbars"/><g class="lines"><path class="js-line" style="vector-effect: none; fill: none; stroke: rgb(0, 0, 255); stroke-opacity: 1; stroke-width: 2px; opacity: 1;" d="M312.87,220.68L312.96,221.42L313.01,213.85L313.38,235.22L313.57,207.23L313.8,225.28L313.89,214.8L314.08,208.27L314.26,226.94L314.59,211.05L314.64,216.11L314.73,231.67L315.15,204.24L315.24,216.68L315.29,210.68L315.94,206.98L316.12,242.43L316.17,221.46L316.26,238.04L316.68,201.04L316.73,236.93L316.82,199.68L317.8,229.54L317.84,211.46L317.98,225.78L318.03,198.19L318.26,210.7L318.5,205.39L318.82,200.28L319.24,234.72L319.52,225.26L319.57,192.63L320.26,225.46L320.31,231.64L321.1,199.44L321.15,220.29L321.29,223.32L321.52,201.02L321.66,219.6L321.94,230.73L322.08,200.29L322.4,203.5L322.5,216.62L322.59,230.2L322.78,198.27L323.19,214.25L323.29,204.46L323.33,227.46L323.98,206.99L324.08,212.59L324.12,229.15L324.59,191.04L324.82,212.83L324.87,210.33L324.96,198.95L325.43,231.78L325.47,226.58L325.61,220.03L325.71,207.75L326.03,240.51L326.26,238.62L326.36,221.94L326.4,208.57L326.78,252.31L327.1,213.97L327.15,238.44L327.19,208.01L327.85,228.94L327.94,211.88L328.22,237.36L328.26,210.66L328.92,236.85L328.96,218.18L329.06,220.29L329.29,204.45L329.52,226.62L329.71,218.23L329.75,230.32L330.26,233.59L330.4,205.02L330.45,227.5L330.96,203.49L331.15,228.88L331.38,210.68L331.43,213.57L331.66,228.31L331.75,199.42L332.03,211.37L332.08,198.42L332.45,235.18L332.87,228.49L332.92,207.06L333.15,233.96L333.47,190.93L333.61,227.22L333.8,210.11L333.99,203.02L334.17,237.1L334.54,211.07L334.64,197.52L335.1,224.25L335.38,211.35L335.47,198.16L335.71,226.17L336.22,215.83L336.27,206.96L336.4,200.25L336.5,240.53L336.87,201.05L337.2,208.22L337.33,231.21L337.89,197.78L337.99,207.87L338.03,227.27L338.17,200.01L338.73,208.46L339.01,248.3L339.34,215.28L339.66,242.8L339.85,226.79L340.03,232.8L340.22,216.57L340.31,222.47L340.36,212.1L340.5,193.79L340.73,255.48L341.15,228.18L341.24,227.36L341.38,199.63L341.43,232.53L342.03,211.36L342.08,223.79L342.36,235.07L342.73,211.09L342.78,229.43L343.01,240.87L343.2,211.89L343.34,218.3L343.48,221.1L343.89,230.07L343.99,211.82L344.03,221.65L344.27,225.96L344.5,226.09L345.06,203.26L345.1,216.93L345.15,217.35L345.2,213.02L345.24,225.35L345.38,208.78L345.85,213.27L345.89,219.19L346.22,230.86L346.55,194.02L346.59,226.81L346.64,226.45L346.68,204.5L346.78,229.73L347.24,207.67L347.29,198.94L347.8,235.53L348.03,219.85L348.13,211.49L348.17,230.37L348.64,197.28L348.82,213.24L348.92,210.74L349.15,205.34L349.2,225.84L349.66,220.92L349.75,210.4L349.89,196.65L350.03,220.5L350.41,206.22L350.55,226.73L350.69,200.7L351.29,220.62L351.34,218.53L351.38,200.76L351.8,241.26L352.08,216.74L352.17,217.21L352.41,212.01L352.45,238.12L352.73,242.53L352.87,210.27L353.24,221.84L353.34,237.77L353.38,212.79L354.08,217.38L354.13,218.9L354.27,213L354.82,255.06L354.92,203.59L355.48,241.23L355.71,228.54L355.8,222.67L356.08,203.4L356.36,236.86L356.55,229.84L357.06,229.95L357.34,211.01L357.48,210.68L357.71,205.04L358.03,233.39L358.27,219.72L358.41,204.31L358.73,228.28L358.83,212.18L358.87,226.22L359.1,228.67L359.34,205.67L359.66,221.27L359.9,225.24L360.17,228.41L360.73,208.23L360.83,204.59L361.48,201.04L361.52,224.67L361.66,208.94L361.85,230.09L362.45,220.61L362.5,207.16L362.69,224.23L362.83,204.93L363.1,217.4L363.15,205.9L363.43,223.46L363.66,200.59L363.71,228.77L363.94,225.36L364.04,212.5L364.17,213.22L364.22,208.69L364.36,208.26L364.41,222.44L364.69,204.46L365.01,234.04L365.2,228.91L365.24,217.37L365.52,238.24L365.71,215.2L365.99,233.83L366.13,236.14L366.31,213.68L366.92,216.25L367.01,208.7L367.76,233.05L367.85,228.28L367.94,221.17L368.13,217.42L368.22,227.49L368.36,217.82L368.41,229.32L368.5,205.4L369.15,226.35L369.29,214.73L369.48,234.43L369.71,220.69L369.76,210.52L370.22,199.26L370.55,237.79L370.64,233.9L370.69,204.82L370.83,204.52L371.01,227.08L371.34,218.48L371.48,221.78L371.99,194.06L372.04,238.65L372.22,222.45L372.27,218.05L372.55,196.05L372.87,239.68L372.97,225.29L373.01,242.53L373.29,205.68L373.8,209.03L373.94,213.41L374.41,228.03L374.45,198.11L374.64,207.37L374.97,211.3L375.71,229.61L375.76,225.47L375.85,212.82L376.13,205.76L376.32,222.63L376.45,220.63L376.5,231.98L377.34,203.14L377.39,215.25L377.52,212.52L377.57,218.41L377.66,197.99L378.18,235.13L378.22,224.38L378.59,216.04L378.78,210.61L379.15,236.61L379.43,228.64L379.48,220.15L379.52,239.44L380.04,209.99L380.22,218.02L380.27,218.09L380.69,228.33L380.87,210.75L380.92,226.57L380.97,229.49L381.25,216.77L381.39,226.12L381.43,212.18L381.8,239.18L382.22,227.05L382.32,220.6L382.36,210.04L382.87,236.67L383.06,224.74L383.15,203.89L383.25,231.11L383.71,212.64L383.85,229.35L384.73,199.49L384.83,216.69L384.92,247.29L385.2,207.31L385.53,210.76L385.62,227.86L386.08,201.5L386.18,234.06L386.83,203.68L387.01,211.04L387.06,207.27L387.76,227.04L387.8,208.78L387.9,218.88L388.04,239.71L388.08,214.91L388.5,214.31L388.69,237.13L388.74,199.39L388.92,197.39L389.48,221.86L389.57,206.15L389.67,230.55L390.04,205.54L390.27,223.71L390.36,214.93L390.55,214.31L390.83,228.84"/></g><g class="points"/><g class="text"/></g><g class="trace scatter trace0f156c" style="stroke-miterlimit: 2; opacity: 1;"><g class="fills"/><g class="errorbars"/><g class="lines"><path class="js-line" style="vector-effect: none; fill: none; stroke: rgb(0, 0, 255); stroke-opacity: 1; stroke-width: 2px; opacity: 1;" d="M0.33,32.41L0.47,27.85L1.07,37.03L1.16,34.64L1.21,39.49L1.35,37.47L1.63,43.59L1.67,38.31L1.72,50.63L1.81,41.2L2.19,58.26L2.33,66.2L2.6,42.6L2.98,58.19L3.12,65.39L3.4,50L3.58,78.49L3.81,64.43L3.91,72.51L4.19,78.08L4.28,42.97L4.74,53.8L4.79,70.89L4.93,54.76L5.35,74.6L5.54,56.83L5.63,63.89L5.67,65.01L5.72,54.67L5.77,79.6L6.28,55.62L6.42,93.7L6.47,62.02L6.56,76.34L6.79,57.46L6.84,83.99L6.88,83.96L6.98,84.1L7.02,52.89L7.21,90.68L7.68,75.03L7.72,96.63L7.77,101.19L7.86,71.83L8.05,79.86L8.14,65.57L8.42,100.65L8.93,82.42L8.98,69.15L9.77,106.46L9.81,74.33L10.61,104.86L10.65,99.66L10.75,86.91L11.12,86.24L11.21,102.4L11.44,87.47L11.54,92.35L12.05,73.32L12.09,113.66L12.19,100.53L12.28,89.85L12.42,80.65L12.51,91.05L12.56,111.16L12.79,85.87L12.88,113.54L13.26,96.88L13.3,119.02L13.49,80.44L13.86,87.77L14.05,128.39L14.09,78.85L14.79,109.14L14.84,95.37L15.02,86.26L15.12,112.89L15.63,101.76L15.68,94.92L15.72,127.31L16.42,112.99L16.47,122.04L16.56,91.91L17.07,124.51L17.21,108.12L17.26,111.33L17.49,119.68L17.68,93.27L17.72,113.08L17.77,97.01L18.42,120L18.47,103.6L18.51,101.89L18.84,123.77L19.03,95.21L19.12,104.92L19.21,111.98L19.26,134.74L19.35,91.68L19.91,122.15L19.96,101.59L20.05,96.05L20.14,131.47L20.28,119.38L20.33,126.41L20.75,91.7L21.07,112.11L21.26,101.86L21.44,140.73L21.91,101.26L22,108.88L22.1,118.51L22.33,112.07L22.37,132.22L22.7,129.48L22.75,102.62L23.07,132.86L23.49,122.83L23.54,113.24L23.63,140.08L23.68,105.1L24.33,134.62L24.37,109.63L24.47,107.06L24.79,137.51L24.98,123.7L25.07,115.46L25.17,101.52L25.77,137.52L25.82,118.34L25.91,121.43L26.05,149.11L26.19,106.04L26.28,160.56L26.89,113.28L27.12,129.92L27.3,141.07L27.77,102.98L27.96,118.62L28,165.64L28.65,112.65L28.7,145.94L28.84,132.32L29.03,110.27L29.26,138.25L29.54,132.96L29.58,135.97L29.72,136.36L29.77,131.37L30.28,159.3L30.47,122.23L30.51,130.61L30.61,133.41L30.7,127.25L30.79,146.69L30.93,122.79L31.49,148.25L31.77,138.38L31.82,124.81L32.1,142.07L32.33,120.38L32.61,129.67L32.65,124.03L32.7,122.51L32.84,132.66L32.89,140.64L33.49,150.29L33.68,120.49L33.77,144.15L33.82,115.39L34.19,152.1L34.51,130.44L34.65,142.45L34.7,142.28L34.75,130.88L34.84,123.08L35.03,146.5L35.31,139.58L35.45,157.66L35.77,162.16L35.91,116.73L36.24,141.76L36.28,132.83L36.47,151.66L36.75,128.82L37.07,149.81L37.12,125.33L37.82,150.87L38,145.53L38.05,141.43L38.33,149.44L38.79,129.03L38.84,152.83L39.12,131.57L39.49,172.83L39.54,134.98L39.63,147.98L39.72,156.12L39.91,132.61L40.33,151.11L40.38,133.62L40.42,162.21L41.12,147.91L41.17,139.91L41.35,135.88L41.45,148.8L41.49,156.38L41.82,131.94L42.1,181.37L42.24,144.79L42.28,147.38L42.38,172.03L42.56,122.22L43.03,148.84L43.07,151.4L43.63,165.04L43.77,134.28L43.82,159.26L44.33,162.58L44.38,130.12L44.75,141.89L44.8,144.53L45.21,130.45L45.49,170.04L45.54,150.41L45.73,134.78L45.96,166.45L46.47,149.69L46.56,159.15L47.07,133.9L47.17,164.47L47.35,146.11L47.91,132.71L48.14,170.29L48.19,146.31L48.52,164.58L48.84,140.08L48.93,144.85L48.98,143.28L49.12,166.65L49.73,158.33L49.77,142.59L50.1,138.8L50.14,161.65L50.42,140.54L50.47,138.15L51.07,161.71L51.17,150.09L51.4,149.75L51.59,141.91L51.63,144.81L51.68,158.97L51.77,167.12L51.91,139.27L52.38,159.34L52.42,154.71L52.52,147.63L52.8,174.08L52.94,159.72L52.98,146.8L53.35,177.84L53.59,146.6L53.77,163.34L53.82,148.89L54.47,139.41L54.52,192.3L54.56,137.27L55.03,172.69L55.31,154.43L55.4,152.1L55.73,150.51L55.91,172.15L56.19,164.42L56.24,150.13L56.56,149.19L56.75,175.55L56.8,166.72L56.84,153.95L57.17,167.81L57.45,150.77L57.49,137.38L57.91,174.94L58.33,162.01L58.38,146.69L58.42,166.02L58.47,143.79L59.12,143.97L59.17,160.54L59.26,137.67L59.31,180.57L59.87,160.67L59.96,169.26L60.15,176.87L60.47,145.45L60.84,156.81L60.89,169.18L61.12,169.95L61.4,140.51L61.63,165.63L61.68,172.02L61.73,141.83L62.42,158.34L62.56,168.69L62.84,155.22L62.89,169.43L62.98,173.67L63.17,149.6L63.26,160.4L63.31,167.95L63.4,147.47L63.77,176.73L64.05,166.4L64.15,152.62L64.24,173.75L64.29,144.7L64.84,165.68L64.89,158.22L65.03,149.02L65.12,159.26"/></g><g class="points"/><g class="text"/></g><g class="trace scatter trace13e652" style="stroke-miterlimit: 2; opacity: 1;"><g class="fills"/><g class="errorbars"/><g class="lines"><path class="js-line" style="vector-effect: none; fill: none; stroke: rgb(0, 0, 255); stroke-opacity: 1; stroke-width: 2px; opacity: 1;" d="M390.87,224.49L391.01,254.46L391.53,215.5L391.57,223.39L391.71,225.12L391.94,237.72L392.08,216.97L392.13,222.42L392.41,229.92L393.06,215.96L393.11,235.54L393.81,210.24L393.9,215.44L394.46,236.65L394.6,213.85L394.69,236.4L394.74,210.76L394.83,231.19L395.06,210.36L395.53,225.86L395.67,205.22L395.95,241.38L396.27,236.08L396.5,212.63L396.69,235.8L397.11,209.05L397.25,224.86L397.53,221.35L397.67,231.43L398.27,202.94L398.32,208.1L398.41,217.96L398.78,226.35L398.83,210.68L398.88,247.37L399.25,204.26L399.76,214.7L399.81,223.39L400.18,201.41L400.41,235.16L400.5,210.51L400.6,240.28L401.2,203.24L401.34,209.18L401.53,208.38L401.9,234.59L401.95,206.82L402.32,232.75L402.6,202.08L402.64,221.89L402.69,201.13L402.97,223.63L403.43,217.54L403.48,202.23L403.67,200.46L403.9,243.14L404.36,234.1L404.6,221.52L404.74,211.23L405.43,248.31L405.57,231.28L405.85,222.36L405.95,237.44L406.18,219.31L406.32,231.2L406.69,210.9L406.83,224.98L406.88,237.85L407.3,209.66L407.62,236.17L407.71,231.52L407.9,235.56L408.46,202.66L408.78,226.36L408.83,235.77L409.3,206.76L409.43,234.09L409.53,219.76L409.85,209.75L410.13,241.75L410.18,239.25L410.32,215.78L410.5,230.04L410.64,228.71L410.69,209.6L411.16,228.43L411.39,219.38L411.48,208.32L412.09,230.7L412.18,220.9L412.27,216.53L412.32,229.58L412.5,210.14L412.97,224.43L413.11,195.62L413.39,232.99L413.85,223.32L414.04,214.24L414.18,208.23L414.23,239.11L414.69,195.72L414.97,205.11L415.02,216.73L415.06,224.42L415.53,202.68L415.71,219.82L415.81,222.14L415.95,198.71L416.46,233.61L416.55,214.33L417.02,246.46L417.3,225.81L417.44,228.69L417.53,239.7L418.13,221.92L418.23,231.34L418.65,212.77L418.69,244.5L418.92,230.52L419.02,231.21L419.71,213.45L419.81,222.59L419.85,226.67L419.99,242.04L420.09,215.52L420.41,224.82L420.51,214.5L420.65,217.1L420.69,234.41L420.83,204.38L421.06,238.86L421.48,210.52L421.53,221.34L421.9,215.58L422.04,231.14L422.27,220.49L422.32,219.82L422.65,230.36L422.69,228.18L422.83,213.29L423.06,214.26L423.16,222.84L423.2,246.76L423.39,198.05L423.85,210.33L423.9,201.8L423.99,242.6L424.65,231.5L424.69,214.61L424.74,233.26L424.92,198.88L425.44,225.72L425.48,199.69L426.04,231.56L426.13,210.91L426.37,219.88L426.65,232.48L426.97,209.97L427.11,221.51L427.16,206.99L427.3,220.68L427.58,203.9L427.67,219.01L428.04,209.24L428.09,244.8L428.32,215.12L428.37,200.09L428.69,240.52L429.11,211.87L429.16,213.4L429.3,202.69L429.72,233.63L429.95,224.58L430.09,225.64L430.41,243.15L430.6,222.74L430.88,232.35L430.93,226.02L431.11,253.63L431.39,219.87L431.86,245.8L432.09,246.18L432.18,210.82L432.65,231.99L432.79,240.39L433.02,207.94L433.58,210.45L433.62,221.98L433.72,211.66L434,235.6L434.37,214.22L434.55,220.29L434.83,213.75L435.02,232.51L435.16,239.45L435.25,221.09L435.3,208.87L435.53,234.68L435.76,207.26L436.04,219.57L436.27,210.7L437.11,230.07L437.16,210.2L437.62,244.05L437.9,231.03L438,215.07L438.09,222.69L438.69,213.69L438.74,219.73L439.02,215.4L439.16,201.33L439.39,224.34L439.53,220.26L439.81,201.65L440.51,238.73L440.6,208.79L440.79,246.47L441.11,207.37L441.39,235.85L441.44,208.82L441.62,200.49L441.72,224.08L441.95,225.02L442.41,199.58L442.55,214.81L442.6,229.91L442.69,210.15L443.07,250.15L443.35,223.95L443.39,227.61L443.44,226.55L443.48,207.69L444,236.28L444.18,232.46L444.28,228.1L444.6,240.92L444.79,221.74L445.02,234.39L445.11,235.54L445.58,204.8L445.86,230.51L445.95,229.06L446.14,230.88L446.18,225.32L446.23,226.16L446.37,213.96L447.02,237.98L447.11,213.68L447.3,225.92L447.39,209.14L448,241.33L448.04,226.72L448.18,225.1L448.74,231.37L448.83,206.93L448.97,228.03L449.3,231.66L449.35,204.34L449.67,220.29L449.81,215.55L450,215.44L450.23,247.37L450.28,204.79L451.02,211.52L451.16,223.17L451.25,228.38L451.3,208.59L451.62,217.24L451.81,216.51L452.04,231.54L452.42,207.22L452.51,206.35L452.97,228.09L453.39,212.33L453.53,210.96L453.58,217.46L453.72,232.67L453.76,234.2L453.86,210.69L454.04,209.02L454.14,241.33L454.51,206.78L454.83,225.9L454.88,221.96L455.07,207.71L455.35,222.5L455.53,220.32L455.67,235.13L455.86,220.09L456.14,244.78L456.23,226.1L456.6,234.65L456.97,213.58L457.02,233.7L457.44,243.67L457.58,216.7L457.86,245.42L458.23,223.5L458.28,216.17L458.32,237.53L458.65,207.3L458.93,225.57L459.25,232.33L459.53,236.48L459.77,209.5L460.04,225.38L460.09,243.98L460.88,210.99L461.07,224.05L461.25,208.14L461.35,225.55L461.72,215.19L461.86,214.84L462.23,238.18L462.56,219.76L462.74,228.64L462.88,233.11L463.3,206.15L463.53,228.09L463.63,234.39L463.72,214.88L464.04,228.09L464.18,218.83L464.28,220.92L464.32,207.38L464.42,214.08L464.46,232.28L464.6,236L464.84,223.8L465.07,218.19L465.35,208.98L465.39,219.67L465.44,217.64L465.77,225.64L465.91,212.34L466.04,233.11L466.23,223.58L466.32,204.36L466.98,239.67L467.07,221.28L467.16,215.16L467.21,214.24L467.44,226.72L467.81,233.18L467.91,199.89L468.18,222.48L468.28,217.95L468.74,222.13L468.88,217.65L468.98,212.83L469.49,256.5L469.72,214.46L469.81,231.81L470.14,215.14L470.28,228.46L470.37,246.35L471.12,217.35L471.35,239.7L471.77,240.05L472.05,221.56L472.14,247.99L472.88,210.77L472.98,211.83L473.53,237.78L473.72,220.74L473.86,223.98L474.14,202.65L474.23,236.35L474.6,211.89L474.65,229.95L474.7,217.04L474.74,232.57L475.35,231.5L475.44,229.59L475.81,231.6L475.86,211.63L476.14,211.8L476.19,242.32L476.79,209.37L476.98,230.04L477.07,218.49L477.39,223.54L477.58,206.44L477.91,207.87L477.95,215.54L478.19,208.85L478.33,235.54L478.46,220.96L478.51,228.25L478.84,205.53L479.21,209.64L479.3,228.24L479.35,241.62L479.53,207.95L479.86,233.2L480,213.82L480.37,242.27L480.56,211.94L480.74,214.61L480.88,214.25L481.21,225.25L481.35,203.17L481.63,210.23L481.72,218.91L482,220.03"/></g><g class="points"/><g class="text"/></g></g></g><g class="overplot"/><path class="xlines-above crisp" style="fill: none; stroke-width: 1px; stroke: rgb(68, 68, 68); stroke-opacity: 1;" d="M79,370.5H562"/><path class="ylines-above crisp" style="fill: none; stroke-width: 1px; stroke: rgb(68, 68, 68); stroke-opacity: 1;" d="M79.5,100V370"/><g class="overlines-above"/><g class="xaxislayer-above"><path class="xtick ticks crisp" style="stroke: rgb(68, 68, 68); stroke-opacity: 1; stroke-width: 1px;" d="M0,371v5" transform="translate(80,0)"/><path class="xtick ticks crisp" style="stroke: rgb(68, 68, 68); stroke-opacity: 1; stroke-width: 1px;" d="M0,371v5" transform="translate(173.03,0)"/><path class="xtick ticks crisp" style="stroke: rgb(68, 68, 68); stroke-opacity: 1; stroke-width: 1px;" d="M0,371v5" transform="translate(266.06,0)"/><path class="xtick ticks crisp" style="stroke: rgb(68, 68, 68); stroke-opacity: 1; stroke-width: 1px;" d="M0,371v5" transform="translate(359.1,0)"/><path class="xtick ticks crisp" style="stroke: rgb(68, 68, 68); stroke-opacity: 1; stroke-width: 1px;" d="M0,371v5" transform="translate(452.13,0)"/><path class="xtick ticks crisp" style="stroke: rgb(68, 68, 68); stroke-opacity: 1; stroke-width: 1px;" d="M0,371v5" transform="translate(545.1600000000001,0)"/><g class="xtick"><text text-anchor="middle" x="0" y="390.4" style="font-family: TOBESTRIPPEDOpen SansTOBESTRIPPED, verdana, arial, sans-serif; font-size: 12px; fill: rgb(68, 68, 68); fill-opacity: 1; white-space: pre; opacity: 1;" transform="translate(80,0)">0</text></g><g class="xtick"><text text-anchor="middle" x="0" y="390.4" style="font-family: TOBESTRIPPEDOpen SansTOBESTRIPPED, verdana, arial, sans-serif; font-size: 12px; fill: rgb(68, 68, 68); fill-opacity: 1; white-space: pre; opacity: 1;" transform="translate(173.03,0)">2k</text></g><g class="xtick"><text text-anchor="middle" x="0" y="390.4" style="font-family: TOBESTRIPPEDOpen SansTOBESTRIPPED, verdana, arial, sans-serif; font-size: 12px; fill: rgb(68, 68, 68); fill-opacity: 1; white-space: pre; opacity: 1;" transform="translate(266.06,0)">4k</text></g><g class="xtick"><text text-anchor="middle" x="0" y="390.4" style="font-family: TOBESTRIPPEDOpen SansTOBESTRIPPED, verdana, arial, sans-serif; font-size: 12px; fill: rgb(68, 68, 68); fill-opacity: 1; white-space: pre; opacity: 1;" transform="translate(359.1,0)">6k</text></g><g class="xtick"><text text-anchor="middle" x="0" y="390.4" style="font-family: TOBESTRIPPEDOpen SansTOBESTRIPPED, verdana, arial, sans-serif; font-size: 12px; fill: rgb(68, 68, 68); fill-opacity: 1; white-space: pre; opacity: 1;" transform="translate(452.13,0)">8k</text></g><g class="xtick"><text text-anchor="middle" x="0" y="390.4" style="font-family: TOBESTRIPPEDOpen SansTOBESTRIPPED, verdana, arial, sans-serif; font-size: 12px; fill: rgb(68, 68, 68); fill-opacity: 1; white-space: pre; opacity: 1;" transform="translate(545.1600000000001,0)">10k</text></g></g><g class="yaxislayer-above"><path class="ytick ticks crisp" style="stroke: rgb(68, 68, 68); stroke-opacity: 1; stroke-width: 1px;" d="M79,0h-5" transform="translate(0,363.24)"/><path class="ytick ticks crisp" style="stroke: rgb(68, 68, 68); stroke-opacity: 1; stroke-width: 1px;" d="M79,0h-5" transform="translate(0,315.1)"/><path class="ytick ticks crisp" style="stroke: rgb(68, 68, 68); stroke-opacity: 1; stroke-width: 1px;" d="M79,0h-5" transform="translate(0,266.97)"/><path class="ytick ticks crisp" style="stroke: rgb(68, 68, 68); stroke-opacity: 1; stroke-width: 1px;" d="M79,0h-5" transform="translate(0,218.82999999999998)"/><path class="ytick ticks crisp" style="stroke: rgb(68, 68, 68); stroke-opacity: 1; stroke-width: 1px;" d="M79,0h-5" transform="translate(0,170.69)"/><path class="ytick ticks crisp" style="stroke: rgb(68, 68, 68); stroke-opacity: 1; stroke-width: 1px;" d="M79,0h-5" transform="translate(0,122.55)"/><g class="ytick"><text text-anchor="end" x="71.6" y="4.199999999999999" style="font-family: TOBESTRIPPEDOpen SansTOBESTRIPPED, verdana, arial, sans-serif; font-size: 12px; fill: rgb(68, 68, 68); fill-opacity: 1; white-space: pre; opacity: 1;" transform="translate(0,363.24)">4.5</text></g><g class="ytick"><text text-anchor="end" x="71.6" y="4.199999999999999" style="font-family: TOBESTRIPPEDOpen SansTOBESTRIPPED, verdana, arial, sans-serif; font-size: 12px; fill: rgb(68, 68, 68); fill-opacity: 1; white-space: pre; opacity: 1;" transform="translate(0,315.1)">5</text></g><g class="ytick"><text text-anchor="end" x="71.6" y="4.199999999999999" style="font-family: TOBESTRIPPEDOpen SansTOBESTRIPPED, verdana, arial, sans-serif; font-size: 12px; fill: rgb(68, 68, 68); fill-opacity: 1; white-space: pre; opacity: 1;" transform="translate(0,266.97)">5.5</text></g><g class="ytick"><text text-anchor="end" x="71.6" y="4.199999999999999" style="font-family: TOBESTRIPPEDOpen SansTOBESTRIPPED, verdana, arial, sans-serif; font-size: 12px; fill: rgb(68, 68, 68); fill-opacity: 1; white-space: pre; opacity: 1;" transform="translate(0,218.82999999999998)">6</text></g><g class="ytick"><text text-anchor="end" x="71.6" y="4.199999999999999" style="font-family: TOBESTRIPPEDOpen SansTOBESTRIPPED, verdana, arial, sans-serif; font-size: 12px; fill: rgb(68, 68, 68); fill-opacity: 1; white-space: pre; opacity: 1;" transform="translate(0,170.69)">6.5</text></g><g class="ytick"><text text-anchor="end" x="71.6" y="4.199999999999999" style="font-family: TOBESTRIPPEDOpen SansTOBESTRIPPED, verdana, arial, sans-serif; font-size: 12px; fill: rgb(68, 68, 68); fill-opacity: 1; white-space: pre; opacity: 1;" transform="translate(0,122.55)">7</text></g></g><g class="overaxes-above"/></g></g><g class="polarlayer"/><g class="smithlayer"/><g class="ternarylayer"/><g class="geolayer"/><g class="funnelarealayer"/><g class="pielayer"/><g class="iciclelayer"/><g class="treemaplayer"/><g class="sunburstlayer"/><g class="glimages"/><defs id="topdefs-d6903c"><g class="clips"/><clipPath id="legendd6903c"><rect width="116" height="29" x="0" y="0"/></clipPath></defs><g class="layer-above"><g class="imagelayer"/><g class="shapelayer"/></g><g class="infolayer"><g class="legend" pointer-events="all" transform="translate(571.64,100)"><rect class="bg" shape-rendering="crispEdges" style="stroke: rgb(68, 68, 68); stroke-opacity: 1; fill: rgb(255, 255, 255); fill-opacity: 1; stroke-width: 0px;" width="116" height="29" x="0" y="0"/><g class="scrollbox" transform="" clip-path="url(#legendd6903c)"><g class="groups"><g class="traces" style="opacity: 1;" transform="translate(0,14.5)"><text class="legendtext" text-anchor="start" style="font-family: TOBESTRIPPEDOpen SansTOBESTRIPPED, verdana, arial, sans-serif; font-size: 12px; fill: rgb(68, 68, 68); fill-opacity: 1; white-space: pre;" x="40" y="4.680000000000001">HALF-10H</text><g class="layers" style="opacity: 1;"><g class="legendfill"/><g class="legendlines"><path class="js-line" d="M5,0h30" style="fill: none; stroke: rgb(0, 0, 255); stroke-opacity: 1; stroke-width: 2px;"/></g><g class="legendsymbols"><g class="legendpoints"/></g></g><rect class="legendtoggle" style="fill: rgb(0, 0, 0); fill-opacity: 0;" x="0" y="-9.5" width="110.19999694824219" height="19"/></g></g></g><rect class="scrollbar" rx="20" ry="3" width="0" height="0" style="fill: rgb(128, 139, 164); fill-opacity: 1;" x="0" y="0"/></g><g class="g-gtitle"><text class="gtitle" style="font-family: TOBESTRIPPEDOpen SansTOBESTRIPPED, verdana, arial, sans-serif; font-size: 17px; fill: rgb(68, 68, 68); opacity: 1; font-weight: normal; white-space: pre;" x="350" y="50" text-anchor="middle" dy="0em">train_loss</text></g><g class="g-xtitle"><text class="xtitle" style="font-family: TOBESTRIPPEDOpen SansTOBESTRIPPED, verdana, arial, sans-serif; font-size: 14px; fill: rgb(68, 68, 68); opacity: 1; font-weight: normal; white-space: pre;" x="321" y="422" text-anchor="middle">Steps</text></g><g class="g-ytitle"/></g></svg>