<svg class="main-svg" xmlns="http://www.w3.org/2000/svg" xmlns:xlink="http://www.w3.org/1999/xlink" width="700" height="450" style="" viewBox="0 0 700 450"><rect x="0" y="0" width="700" height="450" style="fill: rgb(255, 255, 255); fill-opacity: 1;"/><defs id="defs-f3a044"><g class="clips"><clipPath id="clipf3a044xyplot" class="plotclip"><rect width="419" height="270"/></clipPath><clipPath class="axesclip" id="clipf3a044x"><rect x="80" y="0" width="419" height="450"/></clipPath><clipPath class="axesclip" id="clipf3a044y"><rect x="0" y="100" width="700" height="270"/></clipPath><clipPath class="axesclip" id="clipf3a044xy"><rect x="80" y="100" width="419" height="270"/></clipPath></g><g class="gradients"/><g class="patterns"/></defs><g class="bglayer"/><g class="layer-below"><g class="imagelayer"/><g class="shapelayer"/></g><g class="cartesianlayer"><g class="subplot xy"><g class="layer-subplot"><g class="shapelayer"/><g class="imagelayer"/></g><g class="minor-gridlayer"><g class="x"/><g class="y"/></g><g class="gridlayer"><g class="x"><path class="xgrid crisp" transform="translate(183.45999999999998,0)" d="M0,100v270" style="stroke: rgb(238, 238, 238); stroke-opacity: 1; stroke-width: 1px;"/><path class="xgrid crisp" transform="translate(286.90999999999997,0)" d="M0,100v270" style="stroke: rgb(238, 238, 238); stroke-opacity: 1; stroke-width: 1px;"/><path class="xgrid crisp" transform="translate(390.37,0)" d="M0,100v270" style="stroke: rgb(238, 238, 238); stroke-opacity: 1; stroke-width: 1px;"/><path class="xgrid crisp" transform="translate(493.83,0)" d="M0,100v270" style="stroke: rgb(238, 238, 238); stroke-opacity: 1; stroke-width: 1px;"/></g><g class="y"><path class="ygrid crisp" transform="translate(0,355.31)" d="M80,0h419" style="stroke: rgb(238, 238, 238); stroke-opacity: 1; stroke-width: 1px;"/><path class="ygrid crisp" transform="translate(0,297.69)" d="M80,0h419" style="stroke: rgb(238, 238, 238); stroke-opacity: 1; stroke-width: 1px;"/><path class="ygrid crisp" transform="translate(0,240.07)" d="M80,0h419" style="stroke: rgb(238, 238, 238); stroke-opacity: 1; stroke-width: 1px;"/><path class="ygrid crisp" transform="translate(0,182.45)" d="M80,0h419" style="stroke: rgb(238, 238, 238); stroke-opacity: 1; stroke-width: 1px;"/><path class="ygrid crisp" transform="translate(0,124.83)" d="M80,0h419" style="stroke: rgb(238, 238, 238); stroke-opacity: 1; stroke-width: 1px;"/></g></g><g class="zerolinelayer"/><path class="xlines-below"/><path class="ylines-below"/><g class="overlines-below"/><g class="xaxislayer-below"/><g class="yaxislayer-below"/><g class="overaxes-below"/><g class="plot" transform="translate(80,100)" clip-path="url(#clipf3a044xyplot)"><g class="scatterlayer mlayer"><g class="trace scatter traceeddea0" style="stroke-miterlimit: 2; opacity: 1;"><g class="fills"/><g class="errorbars"/><g class="lines"><path class="js-line" style="vector-effect: none; fill: none; stroke: rgb(255, 0, 0); stroke-opacity: 1; stroke-width: 2px; opacity: 1;" d="M0,76.92L2.07,89.12L2.59,90.54L3.62,91.38L4.14,90.41L4.66,91.55L5.17,88.49L6.72,92.99L7.24,94.66L8.28,92.68L8.79,93.45L9.31,89.54L9.83,89.92L10.35,94.04L13.45,90.44L13.97,91.42L14.48,92.34L15,91.66L15.52,94.04L16.04,91.52L16.55,93.96L17.07,91.54L17.59,94.04L18.1,91.8L18.62,90.57L19.14,94.02L19.66,91.83L20.17,92.3L20.69,94.17L21.21,91.23L21.73,93.31L22.76,90.14L23.28,92.47L23.8,91.46L24.31,93.16L25.35,94.54L25.86,92.99L27.42,90.04L27.93,93.52L29.49,91.56L30,90.41L30.52,92.38L31.04,89.94L32.07,93.53L32.59,92.33L34.14,95.24L34.66,92.42L35.18,90.88L35.69,92.29L36.73,94.64L37.24,94.11L37.76,94.21L38.28,91.35L38.8,92.78L39.31,91.56L39.83,91.93L40.35,92.15L41.38,94.69L41.9,94.36L42.42,94.77L42.93,91.22L44.49,92L45,93.71L45.52,92.42L46.04,94.84L46.56,94.16L47.07,95.66L48.11,91.49L48.62,90.72L49.14,92.97L49.66,91.98L50.18,92.24L51.21,92.51L51.73,93.68L52.25,95.17L52.76,93.38L53.28,94.98L53.8,92.27L54.83,91.5L55.35,94.09L55.87,91.38L56.38,93.08L56.9,93.87L57.42,93.4L57.94,92.83L58.97,91.16L59.49,93L60,91.43L60.52,92.92L61.04,96.27L61.56,92.25L62.07,95.47L62.59,93.75L63.11,92.75L63.63,95.57L64.66,92.06L65.18,96.08L65.7,92.07L66.21,95.05L66.73,95.67L67.25,92.71L67.76,92.92L68.28,91.73L68.8,89.66L69.32,93.44L69.83,95.35L70.35,94.48L70.87,95.25L71.39,92.47L71.9,94.98L72.42,93.15L72.94,95.03L73.45,95.34L73.97,93.99L74.49,92.52L75.01,94.74L75.52,95.19L76.04,97.47L76.56,97.02L77.08,93.23L77.59,101.56L78.11,96.23L78.63,100.79L79.14,97.77L80.18,107.19L80.7,100.04L81.21,102.04L81.73,100.59L83.28,105.13L83.8,107.85L84.83,99.19L85.35,68.65L85.87,94.4L86.39,93.92L86.9,88.66L87.42,93.38L87.94,91.81L88.46,92.94L88.97,91.37L89.49,93.14L90.01,95.63L90.52,91.64L91.04,93.8L91.56,91.81L92.08,95.06L92.59,92.41L93.11,92.15L93.63,93.27L94.66,94.33L95.18,92.52L95.7,94.06L96.21,92.34L96.73,93.96L97.25,93.28L97.77,92.83L98.28,94.56L98.8,93.12L99.32,91.56L99.84,92.47L100.35,93.37L100.87,92.66L101.9,94.25L102.42,92.89L102.94,94.09L103.46,93.62L103.97,90.29L105.01,95.02L105.53,92.02L107.08,96.54L107.6,94.06L108.11,91.71L108.63,92.67L109.15,93.34L109.66,92.38L110.18,93.25L110.7,94.97L111.22,92.59L111.73,93.5L112.25,91.87L113.29,94.98L113.8,92.81L114.84,95.07L115.35,92L115.87,92.68L116.39,91.63L117.42,93.91L117.94,93.94L118.46,92.98L118.98,96.16L119.49,92.95L120.01,94.89L121.56,92.16L122.08,92.76L122.6,91.38L123.11,92.95L124.15,93.12L124.67,96.76L125.18,93.55L125.7,94.76L126.22,93.87L126.73,92.87L127.25,94.56L127.77,96.52L128.29,95.64L128.8,90.49L129.32,93.93L129.84,92.32L130.36,93.89L130.87,90.33L131.39,93.47L131.91,91.32L132.94,91.91L133.46,93.93L133.98,93.32L134.49,97L136.56,91.33L137.08,93.54L137.6,95L138.11,93.74L138.63,94.41L139.15,93.71L139.67,91.86L140.18,94.45L140.7,93.53L141.22,94.79L141.74,95.18L142.25,91.57L143.29,95.11L143.8,94.07L144.32,93.98L144.84,92.77L145.36,92.44L145.87,94.93L146.39,91.13L146.91,95.68L147.43,93.23L147.94,95.38L148.46,96.19L148.98,94.66L149.5,94.47L150.01,93.48L151.05,91.68L151.56,93.7L153.12,93.7L153.63,94.32L154.15,92.91L154.67,93.92L155.19,93.92L155.7,95.29L156.22,92.79L156.74,95.15L158.29,90.68L158.81,91.34L159.84,95.56L160.36,93.25L160.88,93.06L161.39,93.92L161.91,96.01L162.43,93.31L162.94,91.28L163.46,94.73L165.01,93.54L165.53,91.69L166.57,95.83L167.08,94.93L168.63,91.78L169.15,92.77L169.67,95.66L170.19,92.54L171.22,93.39L171.74,94.56L172.26,93.47L172.77,95.4L173.29,93.56L173.81,93.76L174.32,94.75L174.84,92.67L175.36,95.84L175.88,91.41L176.39,93.24L176.91,92.54L178.46,96.77L178.98,94.96L179.5,92.12L180.01,94.21L180.53,94.39L181.05,93.48L181.57,95.22L182.08,92.38L182.6,95.66L183.12,91.83L183.64,94.11L184.15,93.15L184.67,92.91L185.19,91.88L185.7,93.3L187.77,97.76L188.29,93.96L188.81,94.05L189.33,93.12L189.84,91.7L190.36,95.02L190.88,94.72L191.4,92.94L191.91,93.87L192.43,93.3L192.95,93.14L194.5,92.97L195.02,94.06L195.53,91.67L196.05,95.49L196.57,92.48L197.09,95.17L198.12,92.22L198.64,94.43L199.15,93.59L199.67,94.96L200.71,93.33L201.22,96.63L202.78,93.96L203.29,93.59L203.81,94.06L204.33,95.74L205.36,92.44L205.88,93.63L206.4,93.45L206.91,91.85L207.43,94.08L207.95,92.51L208.47,94.43L208.98,94.07L209.5,91.26L210.53,95.39L211.05,93.98L211.57,94.27L212.09,95.98L212.6,92.86L213.12,92.98L213.64,95.71L214.16,95.08L214.67,91.14L215.71,94.89L216.22,93.05L216.74,91.41L217.26,92.16L217.78,95.22L218.29,95.3L218.81,93.33L219.33,92.93L219.85,96.11L221.4,92.48L221.91,94.3L222.43,95.55L222.95,94.69L223.47,91.74L223.98,93.26L224.5,93.12L225.02,94.58L226.05,93.7L226.57,94.41L227.09,92.05L227.6,94.17L228.64,94.67L229.16,94.02L229.67,96.07L230.19,94.44L230.71,93.5L231.23,95.36L232.26,95.22L232.78,93.36L233.3,95.29L233.81,93.11L235.88,93.9L236.4,94.52L236.92,92.92L237.43,93.92L237.95,95.86L238.47,93.81L238.99,95.5L239.5,93.69L240.02,93.79L240.54,90.78L241.57,96.1L242.09,93.67L243.12,97.55L243.64,93.5L244.16,93.44L244.68,94.42L245.19,90.57L245.71,92.22L246.23,94.82L246.74,94.62L247.26,95.97L248.3,93.48L248.81,95.62L249.85,92.92L250.37,96.48L250.88,91.71L251.4,96.32L252.43,92.17L252.95,94.66L253.47,92.72L253.99,96.96L254.5,92.85L255.02,95.58L255.54,92.4L256.06,93.03L256.57,94.53L257.09,95.75L257.61,93.17L258.12,92.96L258.64,95.48L259.16,92.13L259.68,93.64L260.19,95.16L260.71,91.46L261.23,93.91L262.78,93.25L263.3,95.17L264.33,94.36L264.85,91.91L265.37,96.08L265.88,92.74L266.4,93.6L266.92,92.35L267.95,94.55L268.47,93.89L268.99,92.84L269.5,94.76L270.02,94.71L270.54,93.78L271.57,91.89L272.09,94.79L272.61,95.2L273.13,97.58L273.64,93.15L274.16,95.74L274.68,92.69L275.2,94.96L275.71,92.99L276.23,94.8L276.75,93.79L277.26,94.87L277.78,91.77L278.3,92.99L278.82,94.51L279.33,93.75L279.85,94.4L280.89,92.64L281.4,95.4L283.47,93.18L283.99,94.67L284.51,93.83L285.02,94.47L286.58,93.62L287.09,91.52L287.61,96.06L288.13,92.39L289.16,95.41L289.68,95.08L290.2,93.04L290.71,96.24L291.23,94.16L291.75,93.45L292.27,94.56L292.78,94.19L293.3,92.34L294.33,95.27L294.85,94.36L295.37,94.43L295.89,91.49L296.92,96.56L297.44,94.54L297.96,93.94L298.47,95L300.02,94.6L300.54,94.62L301.58,92.58L302.09,93.91L302.61,92.89L303.13,93.33L303.65,94.77L304.68,93.93L305.2,94.1L305.71,95.36L306.23,93.26L307.27,95.23L307.78,94.52L308.3,93.39L308.82,94.73L309.34,95.51L309.85,94.48L311.4,93.39L311.92,95.65L312.44,90.68L312.96,92.03L313.47,96.03L313.99,95.92L314.51,92.3L315.03,94.38L315.54,93.25L316.06,92.79L316.58,95.12L318.13,93.84L318.65,95.46L319.68,91.38L320.2,93.15L320.72,96.25L321.23,95.62L321.75,93.75L322.27,94.02L322.79,92.91L323.82,94.89L324.34,94.6L324.85,94.48L325.37,94.63L325.89,95.67L326.41,97.26L326.92,90.75L327.44,93.64L327.96,93.29L328.48,91.67L329.51,94.75L330.03,92.26L330.54,91.17L331.06,93.88L331.58,96.45L332.1,95.89L332.61,94.99L333.13,97.1L333.65,90.6L334.68,95.65L335.2,94.03L336.23,92.79L336.75,95.49L337.79,94.8L338.3,95.54L338.82,94.25L339.34,95.37L339.86,92.24L340.37,95.1L341.41,93.08L341.92,97.43L342.44,94.92L342.96,96.08L343.48,94.49L344.51,94.23L345.03,91.1L346.06,95.73L346.58,94.48L347.1,94.26L347.61,91.97L348.65,93.11L349.17,95.79L350.2,94.21L350.72,94.08L351.24,92.22L351.75,93.7L352.27,95.12L352.79,93.53L353.3,95.41L353.82,94.23L354.86,93.39L355.37,95.8L355.89,94.05L356.41,96.69L357.44,92.89L357.96,93.01L358.48,94L359,96.67L359.51,92.28L360.03,94.96L360.55,92.7L361.06,92.94L361.58,94.95L363.65,93.77L364.17,92.74L364.69,95.31L365.2,93.14L365.72,91.54L366.24,95.52L367.27,94.36L367.79,95.51L368.31,94.96L368.82,92.96L370.38,95.63L370.89,93.95L371.41,94.21L371.93,92.06L372.44,95.67L372.96,95.11L373.48,92.44L374,92.56L374.51,93.91L375.03,95.45L375.55,95.1L376.07,94.74L376.58,94.75L377.1,96.09L378.13,94.14L378.65,95.24L379.69,93L380.2,93.89L381.76,93.15L382.27,95.36L382.79,96.84L383.31,92.78L383.82,95.07L384.34,93.14L384.86,94.74L385.38,93.51L385.89,94L386.41,98.88L386.93,91.09L387.45,93.18L387.96,92.71L389,95.45L389.51,93.62L390.03,93.24L390.55,93.85L391.07,95.85L391.58,93.56L392.62,94.65L393.14,95.02L393.65,92.46L394.17,94.33L394.69,98.26L395.2,87.27L395.72,95.21L396.24,92.36L396.76,96.12L397.27,94.42L397.79,94.84L398.31,94.14L399.86,96.7L400.38,93.51L401.41,96.98L401.93,97.89L402.45,97.35L402.96,100L403.48,91.59L404,94.38L404.52,92.07L405.03,95.75L405.55,93.23L407.1,96.09L407.62,92.61L408.65,92.27L409.17,96.8L410.21,93.76L410.72,96.2L411.24,90.65L411.76,94.48L412.79,94.46L413.31,95.52L415.38,92.77L415.9,93.6L416.41,91.92L416.93,94.34L418.48,94.25"/></g><g class="points"/><g class="text"/></g><g class="trace scatter traceba7f2a" style="stroke-miterlimit: 2; opacity: 1;"><g class="fills"/><g class="errorbars"/><g class="lines"><path class="js-line" style="vector-effect: none; fill: none; stroke: rgb(144, 238, 144); stroke-opacity: 1; stroke-width: 2px; opacity: 1;" d="M0,13.5L1.55,34.86L2.07,38.41L2.59,42.35L3.1,37.08L3.62,36.44L4.14,37.61L5.17,41.87L5.69,39.97L6.72,39.29L7.24,37.49L7.76,40.09L8.28,37.69L8.79,37.62L9.31,40.18L9.83,40.76L10.35,37.03L10.86,42.64L11.38,34.43L11.9,43.26L12.41,34.13L13.45,41.68L13.97,38.31L15,41.18L15.52,38.4L16.04,44.3L16.55,41.05L17.07,47.37L17.59,42.44L18.1,33.49L18.62,38.19L19.66,39.64L20.17,38.77L20.69,39.63L21.21,43.28L21.73,44.53L22.24,37.62L22.76,38.07L23.28,42.16L24.31,44.19L24.83,38.04L25.86,42.46L26.38,38.78L27.42,44.9L27.93,43.31L28.45,42.93L28.97,35.54L30.52,43.06L31.04,41.29L31.55,38.56L32.07,41.6L32.59,43.16L33.11,42.01L33.62,41.29L34.14,37.11L34.66,36.55L35.18,42.2L35.69,40.59L36.21,44.7L36.73,44.36L37.24,37.39L37.76,45.16L38.28,43.41L38.8,43.61L39.31,39.48L39.83,42.36L40.87,41.4L41.38,42.52L41.9,47.1L42.42,44.5L42.93,37.04L43.45,38.53L43.97,40.92L44.49,38.96L45,39.58L45.52,40.72L46.04,37.09L46.56,42.99L47.59,37.67L48.11,39.02L48.62,45.37L49.14,44.74L49.66,38.44L50.69,45.08L51.21,43.64L51.73,40.29L52.25,45.18L53.28,45.76L53.8,42.33L54.31,40.6L54.83,43.2L55.35,44.36L55.87,41.6L56.38,39.39L56.9,45.38L57.42,48.75L57.94,42.15L58.45,40.28L58.97,45.27L60,40.42L60.52,43.5L61.04,40.4L61.56,42.45L62.07,36.95L62.59,41.01L63.11,42.64L63.63,37.31L65.18,43.46L65.7,42.63L66.21,41.94L66.73,42.91L67.25,43.41L67.76,42.19L68.28,42.39L68.8,38.58L69.32,43.52L69.83,42.79L70.35,41.46L70.87,46.53L71.39,40.47L71.9,37.02L72.42,40.15L72.94,40.55L73.45,44.21L73.97,41.83L74.49,44.61L75.01,44.1L75.52,39.88L76.04,43.92L76.56,43.39L77.08,39.02L77.59,38.53L78.11,44.92L79.14,44.8L79.66,41.38L80.7,44.21L81.21,40.5L81.73,44.26L82.25,43.99L82.77,41.65L83.28,35.89L83.8,48.01L84.32,45.01L84.83,45.38L85.35,44.13L85.87,44.87L86.39,44.19L86.9,46.67L87.42,44.48L88.46,42.21L88.97,36.46L89.49,37.76L90.01,34.44L91.04,45.04L91.56,41.08L92.08,40.48L92.59,46.57L93.63,37.67L94.15,39.01L94.66,41.54L95.18,38.77L95.7,40.84L96.21,39.88L96.73,41.76L97.25,46.7L97.77,39.12L99.32,41.7L99.84,44.65L100.87,39.4L101.39,42.19L101.9,44.66L102.42,43.72L102.94,44.22L103.97,43.28L104.49,39.57L105.01,38.84L105.53,47.03L106.04,40.98L106.56,41.78L107.08,41L107.6,42.59L108.11,41.97L108.63,40.39L109.15,48.39L109.66,38.8L110.18,38.43L110.7,44.84L111.22,44.89L111.73,44.04L112.25,40.5L112.77,47.95L113.29,39.7L113.8,45.19L115.87,42.68L116.39,44.67L116.91,39.22L117.42,48.18L118.98,41.35L119.49,46.83L120.53,38.96L121.04,42.19L122.08,40.82L122.6,41.12L123.11,36.6L123.63,43.44L124.15,40.2L124.67,47.98L125.7,35.76L126.22,40.21L126.73,41.88L127.25,46.46L128.8,36.88L129.32,42.11L129.84,44.13L130.36,39.22L131.39,44.09L131.91,45.79L133.46,42.37L133.98,43.28L134.49,47.37L135.01,41.16L136.56,44.36L137.08,40.56L137.6,39.03L138.11,41.76L138.63,46.14L139.15,42.92L139.67,39.9L140.18,45.12L140.7,45.95L141.22,40.04L142.25,42.59L142.77,41.2L143.29,43.12L143.8,40.68L144.32,45.66L144.84,43.37L145.36,45.66L145.87,40.44L146.91,44.03L147.43,42.92L147.94,42.2L148.46,43.38L148.98,46.11L149.5,43.39L150.53,40.39L151.05,41.2L152.08,44.82L152.6,36.67L153.12,45.11L153.63,39.07L154.15,43.51L154.67,43.38L155.19,44.8L155.7,49.6L156.22,43.93L156.74,47.82L157.25,45.52L157.77,41.51L158.29,43.75L158.81,36.61L159.32,41.01L160.36,42.5L160.88,41.86L161.91,39.99L162.43,45.22L162.94,38.29L163.46,44.42L163.98,39.76L164.5,41.58L165.01,42.07L165.53,45.6L166.05,43.02L166.57,39.66L167.08,47.12L167.6,38.35L168.12,47.96L168.63,41.79L169.15,44.36L169.67,39.49L170.19,41.79L170.7,48.09L171.22,37.41L171.74,42.24L172.26,37.28L172.77,42.53L173.29,45.53L173.81,43.6L174.32,41.52L174.84,44.65L175.36,37.56L175.88,42.17L176.39,41.6L176.91,46.99L177.43,39.92L177.95,45.03L178.98,43.09L179.5,45.1L180.01,49.13L180.53,39.79L181.05,40.49L181.57,43.22L182.08,36.28L182.6,43.36L183.12,45.21L183.64,38.55L184.15,50.44L184.67,42.49L185.19,45.55L185.7,40.32L186.74,42.05L187.26,46.75L187.77,42.24L188.29,45.15L189.84,38.57L190.36,45.49L190.88,39.54L191.4,40.03L191.91,44.84L192.43,39.68L192.95,42.96L193.46,42.59L193.98,43.43L194.5,45.08L195.02,42.97L195.53,48.02L196.05,42.28L196.57,42.75L197.09,40.55L198.12,37.75L198.64,42.39L199.15,40.69L199.67,42.91L200.19,42.47L200.71,45.34L201.22,39.1L201.74,44.72L202.26,41.39L202.78,44.24L203.29,44.54L203.81,42.31L204.33,38.66L204.84,40.21L205.36,41.21L206.4,46.21L206.91,43.66L207.43,41.33L207.95,48.19L208.47,41.85L208.98,45.34L209.5,45.25L210.02,44.31L210.53,41.36L211.05,42.56L211.57,40.83L212.09,44.22L212.6,40.74L213.64,41.1L214.16,38.14L214.67,48.06L215.19,41.69L215.71,41.8L216.22,39.71L216.74,45.31L217.26,41.86L217.78,39.2L218.29,44.92L219.33,40.53L219.85,43.75L220.36,47.55L220.88,42.61L221.91,43.24L222.43,42.66L222.95,40.3L223.47,47.44L223.98,42.61L224.5,43.38L225.02,41.49L225.54,42.53L226.05,45.93L226.57,36.1L227.09,44.55L227.6,48.35L228.12,39.46L228.64,42.66L229.16,42.21L229.67,41.88L230.19,42.6L230.71,45.16L231.23,43.32L231.74,43.61L232.26,44.33L233.3,43.3L233.81,45.46L234.33,38.94L234.85,45L235.36,39.8L235.88,43.38L236.4,41.59L236.92,35.15L237.43,46.6L237.95,40.45L238.47,44.61L238.99,41.66L239.5,44.28L240.02,42.99L241.05,40.79L241.57,42.88L242.09,42.98L242.61,44.39L243.12,42.41L243.64,43.3L244.16,41.69L245.19,48.46L245.71,39L246.23,38.7L246.74,41.84L247.26,40.44L247.78,46.46L248.3,41.9L248.81,45.45L249.33,38.95L249.85,44.53L250.37,41.44L250.88,48.57L251.4,41.29L251.92,41.8L252.43,42.38L253.47,41.99L253.99,46.04L254.5,42.89L255.02,43.41L255.54,43.15L256.06,42.8L256.57,44.19L257.09,38.6L257.61,43.08L258.12,43.89L258.64,42.82L259.68,48L260.19,38.93L261.23,42.92L261.75,42.08L262.26,47.46L262.78,39.92L263.3,44.79L263.81,40.45L264.33,43.76L264.85,43.5L265.37,40.27L265.88,48.3L266.4,37.86L266.92,45.16L267.44,44.29L267.95,42.51L268.47,37.08L268.99,46.37L269.5,46.3L270.02,42.1L270.54,42.07L271.06,44.04L272.09,47.51L272.61,42.35L273.13,42.18L273.64,44.26L274.16,42.97L274.68,44.17L276.23,38.88L276.75,40.49L278.3,44.86L278.82,41.13L279.33,42.52L279.85,39.93L280.37,41.29L280.89,45.78L281.4,37.92L281.92,40.56L282.44,41.6L282.95,47.04L283.47,44.71L283.99,41.13L285.02,45.38L285.54,40.31L286.58,43.79L287.09,49.19L288.13,41.72L288.64,42.63L289.68,41.22L290.2,43.07L290.71,45.62L291.23,41.41L292.27,45.89L292.78,43.75L293.82,45.57L294.33,39.31L295.37,48.37L295.89,41.55L296.4,43.45L296.92,50.37L297.44,39.19L297.96,42.15L298.47,43.99L298.99,43.66L299.51,38.84L300.02,40.11L300.54,44.06L301.58,37.5L302.09,42.33L302.61,38.39L303.13,43.27L303.65,42.13L304.16,48.26L304.68,42.59L305.2,48.65L306.23,42.62L306.75,42.82L307.27,43.63L307.78,46.11L308.3,42.12L308.82,44.35L309.85,41.37L310.37,47.3L310.89,45.42L311.4,36.73L312.44,43.24L312.96,43.3L313.47,44.72L313.99,43.28L314.51,43.34L315.03,45.36L315.54,44.42L316.06,44.89L316.58,36.93L317.1,36.8L317.61,41.67L318.13,43.19L318.65,40.58L320.2,47.13L320.72,43.75L321.23,48.77L321.75,39.01L322.79,42.08L323.3,49.12L323.82,44.46L324.34,46.79L324.85,40.95L325.37,42.73L325.89,43.15L326.41,47.88L326.92,41.5L327.44,44.1L327.96,42.37L328.48,42.94L328.99,42.07L329.51,45.45L330.03,38.04L331.06,46.33L331.58,40.02L332.61,41.65L333.13,47.23L335.2,39.62L335.72,45.55L336.23,47.87L336.75,43.83L337.27,44.19L337.79,46.2L338.3,45.64L338.82,39.34L339.34,46.14L339.86,43.67L340.37,44.01L341.41,44.64L341.92,43.17L342.44,38.24L342.96,45.21L343.48,50.71L343.99,43.24L345.03,39.37L345.55,42.32L346.06,41.08L346.58,44L347.1,37.54L347.61,41.69L348.65,40.87L349.17,41.01L349.68,43.64L350.2,40.33L351.24,46.73L351.75,46.24L352.27,42.49L352.79,40.23L353.3,44.56L353.82,39.65L354.34,43.22L354.86,42.49L355.37,39.64L355.89,41.32L356.41,46.31L357.96,37.74L358.48,45.12L359,39.07L359.51,43.36L360.03,44.07L360.55,47.43L361.06,43.84L361.58,44.04L362.1,43.31L362.62,41.88L363.13,48.55L363.65,43.81L364.17,46.1L364.69,42.54L365.2,49.57L366.24,40.54L366.75,46.59L367.79,39.34L368.31,48.61L368.82,49.02L369.34,44.7L369.86,43.96L370.38,40.38L370.89,41.13L371.41,43.53L371.93,42.42L372.44,44.11L373.48,40.98L374,42.16L374.51,37.71L375.03,41.1L376.07,44.35L376.58,43.38L377.1,41.96L377.62,43.99L378.13,47.02L378.65,43.25L379.17,44.88L379.69,41.26L380.2,40.02L380.72,41.66L381.24,45.15L381.76,42.6L382.79,42.54L383.31,43.79L383.82,42.25L384.34,45.74L384.86,40.39L385.38,44.91L385.89,42.98L386.41,43.5L386.93,42.58L387.45,42.31L387.96,44.98L388.48,50.07L389,41.06L389.51,43.48L390.03,41.73L390.55,41.51L391.07,42.84L392.1,40.69L392.62,43.02L393.14,45.51L393.65,39.12L394.17,37.19L394.69,42.73L395.2,46.74L395.72,46.13L396.24,43.26L396.76,45.85L397.27,44.95L397.79,46.73L398.31,39.66L398.83,44L399.34,38.59L399.86,43.16L400.38,43.26L400.9,45.99L401.41,46.09L401.93,42.53L402.45,45.56L402.96,44.01L403.48,46.71L404,42.69L404.52,43.94L405.03,39.81L406.07,45.13L406.59,42.92L407.1,45.05L407.62,41.35L408.14,49.54L408.65,40.72L409.17,40.23L409.69,46.27L410.21,38.82L410.72,43.64L412.28,45.94L412.79,44.68L413.31,41.31L413.83,46.35L414.34,36.08L414.86,45.85L415.9,36.74L416.41,45.42L417.45,43.36L417.97,45.48L419,42.29"/></g><g class="points"/><g class="text"/></g><g class="trace scatter trace30e5b1" style="stroke-miterlimit: 2; opacity: 1;"><g class="fills"/><g class="errorbars"/><g class="lines"><path class="js-line" style="vector-effect: none; fill: none; stroke: rgb(0, 0, 255); stroke-opacity: 1; stroke-width: 2px; opacity: 1;" d="M0,13.51L2.59,35.28L3.1,33.53L3.62,32.93L4.14,40.18L4.66,42L5.17,39.93L6.21,37.31L6.72,45.51L7.24,42.9L7.76,46.81L8.79,38.46L9.31,40.81L9.83,45.94L10.35,35.73L11.38,38.14L11.9,42.49L12.41,38.58L12.93,40.52L13.97,41.17L14.48,43.91L15,43.48L15.52,39.68L16.04,43.7L16.55,37.83L17.07,41.07L17.59,40.61L18.1,41.03L18.62,43L19.14,41.57L19.66,42.29L20.17,40.88L20.69,42.81L21.21,41.83L21.73,40.68L22.24,45.5L22.76,39.45L23.28,44.82L23.8,43.92L24.31,40.04L25.35,43.45L25.86,44.8L26.9,39.17L27.42,45.83L28.45,43.07L28.97,45.66L29.49,45.63L30,43.41L30.52,39.88L31.04,41.49L31.55,45.19L32.07,51.63L32.59,48.21L33.11,49.24L33.62,45.58L34.14,47.38L34.66,46.39L35.69,48.73L36.21,46.03L36.73,46.79L37.24,50.74L38.28,53.92L38.8,50.89L39.31,51.99L39.83,60.26L40.35,59.07L40.87,67.61L41.38,63.27L41.9,74.34L42.42,75.9L42.93,70.7L43.45,78.54L43.97,63.9L44.49,82.75L45,79.4L45.52,86.6L46.04,77.33L46.56,87.71L47.07,82.9L47.59,97.02L48.11,93.34L48.62,98.64L49.14,98.75L49.66,100.22L50.18,105.43L50.69,104.99L51.21,105.03L51.73,101.68L52.25,115.86L53.8,108.15L54.31,107.06L54.83,118.55L55.35,115.49L55.87,114.47L56.9,115.97L57.42,110.59L58.45,123.77L58.97,122.02L59.49,126.26L60,116.41L60.52,123.91L61.04,119.69L61.56,117.05L62.07,118.28L62.59,116.6L63.11,120.66L63.63,117.25L64.66,123.51L65.18,121.42L65.7,125.35L66.21,123.3L66.73,119.58L67.25,120.23L67.76,121.27L68.28,125.12L68.8,116.85L69.32,114.04L69.83,120.67L70.35,123.69L70.87,122.05L71.9,128L72.42,118.08L72.94,128.34L73.45,125.89L73.97,129.79L74.49,122.95L75.01,124.54L75.52,126.66L76.04,121.4L76.56,128.37L77.08,113.69L77.59,118.23L78.11,121.85L78.63,126.09L79.14,136.59L80.18,127.27L80.7,128.78L81.21,128.14L81.73,125.87L82.25,119.93L82.77,125.09L83.28,126.81L83.8,132.47L84.32,135.17L84.83,127.19L85.35,128.09L85.87,138.83L86.39,137.54L86.9,131.5L87.42,119.36L87.94,133.27L88.46,127.17L88.97,129.28L89.49,136.1L90.52,124.41L91.04,133.89L91.56,131.41L92.08,134.42L93.11,127.97L93.63,130.66L94.15,127.75L94.66,139.26L96.21,122.97L96.73,136.81L97.25,129.43L97.77,139.13L98.28,132.42L98.8,142.21L99.32,135.67L99.84,146.92L101.39,133.63L101.9,135.4L102.42,135.96L102.94,129.26L106.04,143.92L106.56,137.25L108.11,145.9L108.63,139.29L109.15,136.67L109.66,139L110.18,142.99L110.7,142.08L111.22,139.34L111.73,149.12L112.25,147.09L112.77,149.59L113.29,149.3L113.8,152.87L114.32,138.05L114.84,146.04L115.87,152.92L116.39,143.87L116.91,142.23L117.42,149.25L117.94,146.45L118.46,138.58L119.49,150.25L120.01,146.5L120.53,148.07L121.04,159.2L121.56,141.68L122.08,150.5L122.6,145.31L123.11,151.42L123.63,152.43L124.15,144.08L125.18,145.08L125.7,153.65L126.22,156.56L126.73,149.79L127.25,157.54L127.77,147.25L128.29,160.87L128.8,152.01L129.32,162.88L129.84,160.04L130.36,151.08L130.87,151.9L131.39,150.65L132.42,156.96L132.94,150.18L133.46,151.2L133.98,158.63L134.49,149.52L135.01,154.9L135.53,151.36L136.05,158.54L136.56,156.08L137.08,149.15L138.11,164.6L138.63,156.61L139.15,159.03L139.67,154.31L140.7,167.91L141.22,156.31L141.74,166.34L142.25,165.91L142.77,166.91L143.29,164.42L143.8,155.14L144.84,167.06L145.36,163.56L145.87,170.38L146.39,165.98L147.43,153.66L147.94,157.74L148.46,155.76L148.98,168.47L150.01,156.4L150.53,158.25L151.56,158.74L152.08,162.98L152.6,154.45L153.12,159.05L154.15,170.4L154.67,163.92L155.19,165.43L155.7,171.74L156.74,163.61L157.25,166.5L157.77,167.42L158.29,166.25L159.32,173.18L159.84,168.66L160.36,164.47L160.88,166.43L161.39,165.81L161.91,171.12L163.98,159.69L164.5,167.79L165.01,170.57L165.53,163.25L166.05,175.51L166.57,165.24L167.08,165.88L167.6,174.39L168.12,178.7L168.63,170.87L169.15,172.37L169.67,171.79L170.19,177.99L170.7,176.04L171.22,177.27L171.74,173.09L172.26,175.21L172.77,178.02L173.29,167.61L174.32,179.41L174.84,172.92L175.36,171.07L175.88,165.07L176.39,174.19L176.91,171.12L177.43,177.5L178.46,168.44L178.98,180.77L179.5,168.63L180.01,171.36L180.53,164.25L181.57,185.78L182.08,175.61L183.12,170.7L183.64,185.57L184.15,175.24L184.67,180.41L185.19,182.09L185.7,177.01L186.22,174.21L186.74,181.32L187.26,174.08L187.77,176.79L188.29,178.28L188.81,177.94L189.33,169.98L190.36,179.98L190.88,181.55L191.4,174.86L191.91,182.98L192.43,187.77L192.95,174.71L193.46,180.6L193.98,177.55L194.5,170.6L195.02,186.54L195.53,192.59L196.05,188.06L196.57,179.37L197.09,179.75L197.6,184.18L198.64,185.47L199.15,189.41L199.67,189.02L200.19,185.52L200.71,185.86L201.22,185.02L202.78,186.49L203.29,184.23L204.33,179.7L204.84,184.78L205.36,180.73L205.88,186.57L207.43,174.86L207.95,180.83L208.98,178.93L209.5,188.67L210.53,188.94L211.05,192.09L211.57,191.46L212.09,182.2L212.6,201.13L213.12,187.64L214.16,192.31L214.67,187.73L215.71,196.86L216.22,189.93L216.74,180.32L217.26,184.95L217.78,187.57L218.29,184.29L218.81,183.28L219.33,188.74L219.85,190.07L220.36,188.46L221.4,189.93L221.91,181.4L222.43,187.12L222.95,184.2L223.47,196L223.98,193.29L224.5,193.59L225.02,200.36L225.54,196.05L226.05,189.25L226.57,196.2L227.09,199L227.6,187.21L228.12,199.16L228.64,193.18L230.19,199.34L230.71,195.06L231.23,187.44L231.74,188.49L232.26,187.06L232.78,190.76L233.3,190.23L233.81,192.12L234.33,196.2L234.85,189.34L235.36,186.16L235.88,196.19L236.4,195.78L236.92,187.42L238.47,207.26L238.99,194.39L239.5,197.98L240.02,212.55L240.54,197L241.05,200.41L241.57,195.68L242.09,199.01L242.61,198.5L243.12,196.28L243.64,204.06L244.16,198.32L244.68,197.65L245.19,193.3L245.71,204.29L246.23,190.81L246.74,196.16L247.26,192.34L247.78,193.63L248.3,190.64L248.81,191.07L249.33,194.34L250.37,199.03L250.88,188.48L251.92,205.11L252.43,203.13L252.95,210.85L253.47,202.87L253.99,203.03L254.5,201.15L255.02,208.97L255.54,201.96L256.06,201.24L256.57,206.05L257.61,201L258.12,202.13L258.64,198.11L259.16,199.11L259.68,200.13L260.19,203.2L260.71,202.1L261.23,200.47L261.75,211.76L262.26,195.63L262.78,199.48L263.3,198.42L263.81,198.36L264.33,194.3L264.85,201.49L265.88,211.48L266.4,210.38L266.92,208.87L267.44,209.81L267.95,206.17L268.47,209.34L268.99,204.59L269.5,210.13L271.06,197.88L271.57,203.18L272.09,199.63L272.61,207.58L273.13,217.38L273.64,205.87L274.16,200.5L274.68,214.82L276.23,197.65L276.75,201.86L277.26,206.97L277.78,198.22L278.3,196.76L278.82,201.64L279.85,213.93L280.37,211.5L280.89,215.1L281.92,212.4L282.44,205.9L282.95,210.26L283.47,206.62L283.99,212.74L284.51,209.49L285.54,213.89L286.06,215.75L286.58,207.38L287.09,213.6L287.61,216.74L288.13,201.1L288.64,213.46L289.16,200.82L289.68,213.24L290.2,201.85L291.23,210.12L291.75,205.7L292.27,213.47L292.78,209.44L293.3,213.07L293.82,224.44L294.33,213.56L294.85,216.29L295.37,216.71L295.89,224.95L296.4,222.34L296.92,219.62L297.44,218.46L297.96,210.13L298.47,215.11L298.99,214.33L299.51,214.25L300.54,219.08L301.06,212.47L301.58,217.31L302.09,210.17L303.13,223.17L303.65,217.72L304.16,204.87L304.68,210.21L305.2,204.49L305.71,211.01L306.23,204.63L306.75,207.09L307.27,223.45L307.78,220.48L308.3,225.59L308.82,218.1L309.34,231.11L310.37,222.35L310.89,225.84L311.4,219.64L311.92,219.71L312.44,220.04L312.96,222.39L313.47,218.75L313.99,219.58L314.51,217.53L315.03,216.83L315.54,217.76L316.06,215.57L316.58,218.14L317.1,217.39L317.61,213.42L318.13,214.73L318.65,211.89L319.16,216.48L319.68,209.29L320.2,216.51L320.72,211.7L321.23,232.86L321.75,226.85L322.27,225.01L322.79,227.25L323.3,226.75L323.82,223.41L324.85,230.69L325.37,224.25L326.41,220.26L326.92,222.51L327.44,220.43L327.96,222.23L328.48,218.56L328.99,227.57L329.51,225.18L330.03,215.3L330.54,216.35L331.06,227.9L331.58,217.47L332.1,217.5L332.61,218.83L333.13,219.45L333.65,224.52L334.17,216.29L334.68,217.73L335.2,227.89L335.72,235.77L336.23,231.28L337.79,236.85L338.3,232.27L338.82,232.64L339.34,228.29L339.86,224.77L340.37,235.26L341.92,222.06L342.44,224.49L342.96,217.94L343.48,223.01L343.99,227.38L344.51,224.92L345.03,225.2L345.55,217.47L346.06,224.15L346.58,221.35L347.1,225.94L347.61,225.4L348.13,221.68L348.65,216.39L349.17,231.77L350.2,236.45L350.72,230.21L351.24,241.52L351.75,240.53L352.27,233.52L352.79,235.46L353.3,228.88L353.82,226.98L354.34,228.06L354.86,237.37L355.37,231.02L355.89,225.15L356.41,226.62L356.93,230.86L357.44,236.07L357.96,231.41L358.48,229.76L359,232.18L361.06,221.45L361.58,227.74L362.1,224.82L362.62,232.55L363.65,245.23L364.17,245.41L365.2,234.19L365.72,241.82L366.75,233.43L367.27,237.65L368.31,241.42L368.82,236.6L369.34,228.83L369.86,237.04L370.38,232.51L370.89,237.33L371.93,227.35L372.44,229.54L372.96,233.04L373.48,229.07L374,229.48L374.51,237.93L375.55,226.64L376.07,227.19L376.58,237.57L377.1,252.03L377.62,245.18L378.13,246.57L378.65,244.03L379.69,242.42L380.2,239.69L380.72,243.68L381.24,255.03L381.76,237.44L382.27,243.38L382.79,238.94L383.82,236.43L384.34,242.3L384.86,234.36L385.38,238.14L385.89,239.92L386.41,245.62L387.45,231.31L387.96,236.08L388.48,231.18L389,236.39L390.55,224.19L391.07,245.11L391.58,252.7L392.1,247.45L392.62,250.83L393.14,247.28L393.65,252.22L394.17,251.6L394.69,249.82L395.2,243.47L395.72,248.06L396.76,241.46L397.27,246.14L397.79,239.05L398.31,243.51L399.34,236.59L399.86,238.02L400.38,235.93L400.9,237.31L401.41,240.65L401.93,237.25L402.45,240.78L402.96,237.68L403.48,239.58L404,234.34L405.55,251.82L406.07,251.72L406.59,250.71L407.1,249L407.62,252.29L408.14,252.04L408.65,250.36L409.17,250.39L409.69,249.27L410.21,252.12L410.72,247.26L411.24,256.5L411.76,252.5L412.28,247.64L412.79,248.07L413.31,246.96L413.83,239.01L414.34,245.64L414.86,247.36L415.38,241.24L416.41,244.79L416.93,238.91L417.45,245.05L417.97,241.67L418.48,238.62"/></g><g class="points"/><g class="text"/></g></g></g><g class="overplot"/><path class="xlines-above crisp" style="fill: none; stroke-width: 1px; stroke: rgb(68, 68, 68); stroke-opacity: 1;" d="M79,370.5H499"/><path class="ylines-above crisp" style="fill: none; stroke-width: 1px; stroke: rgb(68, 68, 68); stroke-opacity: 1;" d="M79.5,100V370"/><g class="overlines-above"/><g class="xaxislayer-above"><path class="xtick ticks crisp" style="stroke: rgb(68, 68, 68); stroke-opacity: 1; stroke-width: 1px;" d="M0,371v5" transform="translate(80,0)"/><path class="xtick ticks crisp" style="stroke: rgb(68, 68, 68); stroke-opacity: 1; stroke-width: 1px;" d="M0,371v5" transform="translate(183.45999999999998,0)"/><path class="xtick ticks crisp" style="stroke: rgb(68, 68, 68); stroke-opacity: 1; stroke-width: 1px;" d="M0,371v5" transform="translate(286.90999999999997,0)"/><path class="xtick ticks crisp" style="stroke: rgb(68, 68, 68); stroke-opacity: 1; stroke-width: 1px;" d="M0,371v5" transform="translate(390.37,0)"/><path class="xtick ticks crisp" style="stroke: rgb(68, 68, 68); stroke-opacity: 1; stroke-width: 1px;" d="M0,371v5" transform="translate(493.83,0)"/><g class="xtick"><text text-anchor="middle" x="0" y="390.4" style="font-family: TOBESTRIPPEDOpen SansTOBESTRIPPED, verdana, arial, sans-serif; font-size: 12px; fill: rgb(68, 68, 68); fill-opacity: 1; white-space: pre; opacity: 1;" transform="translate(80,0)">0</text></g><g class="xtick"><text text-anchor="middle" x="0" y="390.4" style="font-family: TOBESTRIPPEDOpen SansTOBESTRIPPED, verdana, arial, sans-serif; font-size: 12px; fill: rgb(68, 68, 68); fill-opacity: 1; white-space: pre; opacity: 1;" transform="translate(183.45999999999998,0)">200</text></g><g class="xtick"><text text-anchor="middle" x="0" y="390.4" style="font-family: TOBESTRIPPEDOpen SansTOBESTRIPPED, verdana, arial, sans-serif; font-size: 12px; fill: rgb(68, 68, 68); fill-opacity: 1; white-space: pre; opacity: 1;" transform="translate(286.90999999999997,0)">400</text></g><g class="xtick"><text text-anchor="middle" x="0" y="390.4" style="font-family: TOBESTRIPPEDOpen SansTOBESTRIPPED, verdana, arial, sans-serif; font-size: 12px; fill: rgb(68, 68, 68); fill-opacity: 1; white-space: pre; opacity: 1;" transform="translate(390.37,0)">600</text></g><g class="xtick"><text text-anchor="middle" x="0" y="390.4" style="font-family: TOBESTRIPPEDOpen SansTOBESTRIPPED, verdana, arial, sans-serif; font-size: 12px; fill: rgb(68, 68, 68); fill-opacity: 1; white-space: pre; opacity: 1;" transform="translate(493.83,0)">800</text></g></g><g class="yaxislayer-above"><path class="ytick ticks crisp" style="stroke: rgb(68, 68, 68); stroke-opacity: 1; stroke-width: 1px;" d="M79,0h-5" transform="translate(0,355.31)"/><path class="ytick ticks crisp" style="stroke: rgb(68, 68, 68); stroke-opacity: 1; stroke-width: 1px;" d="M79,0h-5" transform="translate(0,297.69)"/><path class="ytick ticks crisp" style="stroke: rgb(68, 68, 68); stroke-opacity: 1; stroke-width: 1px;" d="M79,0h-5" transform="translate(0,240.07)"/><path class="ytick ticks crisp" style="stroke: rgb(68, 68, 68); stroke-opacity: 1; stroke-width: 1px;" d="M79,0h-5" transform="translate(0,182.45)"/><path class="ytick ticks crisp" style="stroke: rgb(68, 68, 68); stroke-opacity: 1; stroke-width: 1px;" d="M79,0h-5" transform="translate(0,124.83)"/><g class="ytick"><text text-anchor="end" x="71.6" y="4.199999999999999" style="font-family: TOBESTRIPPEDOpen SansTOBESTRIPPED, verdana, arial, sans-serif; font-size: 12px; fill: rgb(68, 68, 68); fill-opacity: 1; white-space: pre; opacity: 1;" transform="translate(0,355.31)">4</text></g><g class="ytick"><text text-anchor="end" x="71.6" y="4.199999999999999" style="font-family: TOBESTRIPPEDOpen SansTOBESTRIPPED, verdana, arial, sans-serif; font-size: 12px; fill: rgb(68, 68, 68); fill-opacity: 1; white-space: pre; opacity: 1;" transform="translate(0,297.69)">5</text></g><g class="ytick"><text text-anchor="end" x="71.6" y="4.199999999999999" style="font-family: TOBESTRIPPEDOpen SansTOBESTRIPPED, verdana, arial, sans-serif; font-size: 12px; fill: rgb(68, 68, 68); fill-opacity: 1; white-space: pre; opacity: 1;" transform="translate(0,240.07)">6</text></g><g class="ytick"><text text-anchor="end" x="71.6" y="4.199999999999999" style="font-family: TOBESTRIPPEDOpen SansTOBESTRIPPED, verdana, arial, sans-serif; font-size: 12px; fill: rgb(68, 68, 68); fill-opacity: 1; white-space: pre; opacity: 1;" transform="translate(0,182.45)">7</text></g><g class="ytick"><text text-anchor="end" x="71.6" y="4.199999999999999" style="font-family: TOBESTRIPPEDOpen SansTOBESTRIPPED, verdana, arial, sans-serif; font-size: 12px; fill: rgb(68, 68, 68); fill-opacity: 1; white-space: pre; opacity: 1;" transform="translate(0,124.83)">8</text></g></g><g class="overaxes-above"/></g></g><g class="polarlayer"/><g class="smithlayer"/><g class="ternarylayer"/><g class="geolayer"/><g class="funnelarealayer"/><g class="pielayer"/><g class="iciclelayer"/><g class="treemaplayer"/><g class="sunburstlayer"/><g class="glimages"/><defs id="topdefs-f3a044"><g class="clips"/><clipPath id="legendf3a044"><rect width="181" height="67" x="0" y="0"/></clipPath></defs><g class="layer-above"><g class="imagelayer"/><g class="shapelayer"/></g><g class="infolayer"><g class="legend" pointer-events="all" transform="translate(507.38,100)"><rect class="bg" shape-rendering="crispEdges" style="stroke: rgb(68, 68, 68); stroke-opacity: 1; fill: rgb(255, 255, 255); fill-opacity: 1; stroke-width: 0px;" width="181" height="67" x="0" y="0"/><g class="scrollbox" transform="" clip-path="url(#legendf3a044)"><g class="groups"><g class="traces" style="opacity: 1;" transform="translate(0,14.5)"><text class="legendtext" text-anchor="start" style="font-family: TOBESTRIPPEDOpen SansTOBESTRIPPED, verdana, arial, sans-serif; font-size: 12px; fill: rgb(68, 68, 68); fill-opacity: 1; white-space: pre;" x="40" y="4.680000000000001">HALF-1H</text><g class="layers" style="opacity: 1;"><g class="legendfill"/><g class="legendlines"><path class="js-line" d="M5,0h30" style="fill: none; stroke: rgb(255, 0, 0); stroke-opacity: 1; stroke-width: 2px;"/></g><g class="legendsymbols"><g class="legendpoints"/></g></g><rect class="legendtoggle" style="fill: rgb(0, 0, 0); fill-opacity: 0;" x="0" y="-9.5" width="175.39999389648438" height="19"/></g><g class="traces" style="opacity: 1;" transform="translate(0,33.5)"><text class="legendtext" text-anchor="start" style="font-family: TOBESTRIPPEDOpen SansTOBESTRIPPED, verdana, arial, sans-serif; font-size: 12px; fill: rgb(68, 68, 68); fill-opacity: 1; white-space: pre;" x="40" y="4.680000000000001">HALF-1H-OFF+2EMB</text><g class="layers" style="opacity: 1;"><g class="legendfill"/><g class="legendlines"><path class="js-line" d="M5,0h30" style="fill: none; stroke: rgb(144, 238, 144); stroke-opacity: 1; stroke-width: 2px;"/></g><g class="legendsymbols"><g class="legendpoints"/></g></g><rect class="legendtoggle" style="fill: rgb(0, 0, 0); fill-opacity: 0;" x="0" y="-9.5" width="175.39999389648438" height="19"/></g><g class="traces" style="opacity: 1;" transform="translate(0,52.5)"><text class="legendtext" text-anchor="start" style="font-family: TOBESTRIPPEDOpen SansTOBESTRIPPED, verdana, arial, sans-serif; font-size: 12px; fill: rgb(68, 68, 68); fill-opacity: 1; white-space: pre;" x="40" y="4.680000000000001">HALF-1H-OFF</text><g class="layers" style="opacity: 1;"><g class="legendfill"/><g class="legendlines"><path class="js-line" d="M5,0h30" style="fill: none; stroke: rgb(0, 0, 255); stroke-opacity: 1; stroke-width: 2px;"/></g><g class="legendsymbols"><g class="legendpoints"/></g></g><rect class="legendtoggle" style="fill: rgb(0, 0, 0); fill-opacity: 0;" x="0" y="-9.5" width="175.39999389648438" height="19"/></g></g></g><rect class="scrollbar" rx="20" ry="3" width="0" height="0" style="fill: rgb(128, 139, 164); fill-opacity: 1;" x="0" y="0"/></g><g class="g-gtitle"><text class="gtitle" style="font-family: TOBESTRIPPEDOpen SansTOBESTRIPPED, verdana, arial, sans-serif; font-size: 17px; fill: rgb(68, 68, 68); opacity: 1; font-weight: normal; white-space: pre;" x="350" y="50" text-anchor="middle" dy="0em">train_loss</text></g><g class="g-xtitle"><text class="xtitle" style="font-family: TOBESTRIPPEDOpen SansTOBESTRIPPED, verdana, arial, sans-serif; font-size: 14px; fill: rgb(68, 68, 68); opacity: 1; font-weight: normal; white-space: pre;" x="289.5" y="422" text-anchor="middle">Steps</text></g><g class="g-ytitle"/></g></svg>