<svg class="main-svg" xmlns="http://www.w3.org/2000/svg" xmlns:xlink="http://www.w3.org/1999/xlink" width="700" height="450" style="" viewBox="0 0 700 450"><rect x="0" y="0" width="700" height="450" style="fill: rgb(255, 255, 255); fill-opacity: 1;"/><defs id="defs-d3f3e0"><g class="clips"><clipPath id="clipd3f3e0xyplot" class="plotclip"><rect width="419" height="270"/></clipPath><clipPath class="axesclip" id="clipd3f3e0x"><rect x="80" y="0" width="419" height="450"/></clipPath><clipPath class="axesclip" id="clipd3f3e0y"><rect x="0" y="100" width="700" height="270"/></clipPath><clipPath class="axesclip" id="clipd3f3e0xy"><rect x="80" y="100" width="419" height="270"/></clipPath></g><g class="gradients"/><g class="patterns"/></defs><g class="bglayer"/><g class="layer-below"><g class="imagelayer"/><g class="shapelayer"/></g><g class="cartesianlayer"><g class="subplot xy"><g class="layer-subplot"><g class="shapelayer"/><g class="imagelayer"/></g><g class="minor-gridlayer"><g class="x"/><g class="y"/></g><g class="gridlayer"><g class="x"><path class="xgrid crisp" transform="translate(172.99,0)" d="M0,100v270" style="stroke: rgb(238, 238, 238); stroke-opacity: 1; stroke-width: 1px;"/><path class="xgrid crisp" transform="translate(279.88,0)" d="M0,100v270" style="stroke: rgb(238, 238, 238); stroke-opacity: 1; stroke-width: 1px;"/><path class="xgrid crisp" transform="translate(386.77,0)" d="M0,100v270" style="stroke: rgb(238, 238, 238); stroke-opacity: 1; stroke-width: 1px;"/><path class="xgrid crisp" transform="translate(493.66,0)" d="M0,100v270" style="stroke: rgb(238, 238, 238); stroke-opacity: 1; stroke-width: 1px;"/></g><g class="y"><path class="ygrid crisp" transform="translate(0,354.58000000000004)" d="M80,0h419" style="stroke: rgb(238, 238, 238); stroke-opacity: 1; stroke-width: 1px;"/><path class="ygrid crisp" transform="translate(0,282.93)" d="M80,0h419" style="stroke: rgb(238, 238, 238); stroke-opacity: 1; stroke-width: 1px;"/><path class="ygrid crisp" transform="translate(0,211.28)" d="M80,0h419" style="stroke: rgb(238, 238, 238); stroke-opacity: 1; stroke-width: 1px;"/><path class="ygrid crisp" transform="translate(0,139.63)" d="M80,0h419" style="stroke: rgb(238, 238, 238); stroke-opacity: 1; stroke-width: 1px;"/></g></g><g class="zerolinelayer"/><path class="xlines-below"/><path class="ylines-below"/><g class="overlines-below"/><g class="xaxislayer-below"/><g class="yaxislayer-below"/><g class="overaxes-below"/><g class="plot" transform="translate(80,100)" clip-path="url(#clipd3f3e0xyplot)"><g class="scatterlayer mlayer"><g class="trace scatter trace7e1647" style="stroke-miterlimit: 2; opacity: 1;"><g class="fills"/><g class="errorbars"/><g class="lines"><path class="js-line" style="vector-effect: none; fill: none; stroke: rgb(255, 0, 0); stroke-opacity: 1; stroke-width: 2px; opacity: 1;" d="M0,139.25L14.43,140.64L28.86,140.68L57.72,140.92L72.15,171.18L86.58,141.31L101.01,141.85L158.73,142.22L173.16,142.91L202.02,142.44L216.45,142.67L230.88,143.39L245.31,142.8L389.61,143.1L404.04,141.04L418.47,142.68"/></g><g class="points"/><g class="text"/></g><g class="trace scatter tracec2ada9" style="stroke-miterlimit: 2; opacity: 1;"><g class="fills"/><g class="errorbars"/><g class="lines"><path class="js-line" style="vector-effect: none; fill: none; stroke: rgb(144, 238, 144); stroke-opacity: 1; stroke-width: 2px; opacity: 1;" d="M0.53,13.5L14.96,15.34L29.39,16.29L58.25,17.31L72.68,17.75L101.54,17.34L115.97,17.56L130.4,17.15L144.83,17.77L274.7,18.55L289.13,18.58L332.42,18.59L346.85,18.23L361.28,18.7L375.71,18.31L404.57,18.89L419,18.8"/></g><g class="points"/><g class="text"/></g><g class="trace scatter trace419ec7" style="stroke-miterlimit: 2; opacity: 1;"><g class="fills"/><g class="errorbars"/><g class="lines"><path class="js-line" style="vector-effect: none; fill: none; stroke: rgb(0, 0, 255); stroke-opacity: 1; stroke-width: 2px; opacity: 1;" d="M0,15.32L14.43,18.19L28.86,79.94L43.29,200.45L57.72,210.08L72.15,214.52L86.58,221.57L101.01,234.26L115.44,243.03L144.3,252.08L158.73,255.21L173.16,256.5L187.59,256.07L202.02,255.73L216.45,252.06L230.88,251.26L245.31,249.54L259.74,246.94L274.17,242.41L288.6,240.93L303.03,238.35L317.46,232.66L331.89,229.88L375.18,214.68L389.61,207.46L404.04,202.27L418.47,195.28"/></g><g class="points"/><g class="text"/></g></g></g><g class="overplot"/><path class="xlines-above crisp" style="fill: none; stroke-width: 1px; stroke: rgb(68, 68, 68); stroke-opacity: 1;" d="M79,370.5H499"/><path class="ylines-above crisp" style="fill: none; stroke-width: 1px; stroke: rgb(68, 68, 68); stroke-opacity: 1;" d="M79.5,100V370"/><g class="overlines-above"/><g class="xaxislayer-above"><path class="xtick ticks crisp" style="stroke: rgb(68, 68, 68); stroke-opacity: 1; stroke-width: 1px;" d="M0,371v5" transform="translate(172.99,0)"/><path class="xtick ticks crisp" style="stroke: rgb(68, 68, 68); stroke-opacity: 1; stroke-width: 1px;" d="M0,371v5" transform="translate(279.88,0)"/><path class="xtick ticks crisp" style="stroke: rgb(68, 68, 68); stroke-opacity: 1; stroke-width: 1px;" d="M0,371v5" transform="translate(386.77,0)"/><path class="xtick ticks crisp" style="stroke: rgb(68, 68, 68); stroke-opacity: 1; stroke-width: 1px;" d="M0,371v5" transform="translate(493.66,0)"/><g class="xtick"><text text-anchor="middle" x="0" y="390.4" style="font-family: TOBESTRIPPEDOpen SansTOBESTRIPPED, verdana, arial, sans-serif; font-size: 12px; fill: rgb(68, 68, 68); fill-opacity: 1; white-space: pre; opacity: 1;" transform="translate(172.99,0)">200</text></g><g class="xtick"><text text-anchor="middle" x="0" y="390.4" style="font-family: TOBESTRIPPEDOpen SansTOBESTRIPPED, verdana, arial, sans-serif; font-size: 12px; fill: rgb(68, 68, 68); fill-opacity: 1; white-space: pre; opacity: 1;" transform="translate(279.88,0)">400</text></g><g class="xtick"><text text-anchor="middle" x="0" y="390.4" style="font-family: TOBESTRIPPEDOpen SansTOBESTRIPPED, verdana, arial, sans-serif; font-size: 12px; fill: rgb(68, 68, 68); fill-opacity: 1; white-space: pre; opacity: 1;" transform="translate(386.77,0)">600</text></g><g class="xtick"><text text-anchor="middle" x="0" y="390.4" style="font-family: TOBESTRIPPEDOpen SansTOBESTRIPPED, verdana, arial, sans-serif; font-size: 12px; fill: rgb(68, 68, 68); fill-opacity: 1; white-space: pre; opacity: 1;" transform="translate(493.66,0)">800</text></g></g><g class="yaxislayer-above"><path class="ytick ticks crisp" style="stroke: rgb(68, 68, 68); stroke-opacity: 1; stroke-width: 1px;" d="M79,0h-5" transform="translate(0,354.58000000000004)"/><path class="ytick ticks crisp" style="stroke: rgb(68, 68, 68); stroke-opacity: 1; stroke-width: 1px;" d="M79,0h-5" transform="translate(0,282.93)"/><path class="ytick ticks crisp" style="stroke: rgb(68, 68, 68); stroke-opacity: 1; stroke-width: 1px;" d="M79,0h-5" transform="translate(0,211.28)"/><path class="ytick ticks crisp" style="stroke: rgb(68, 68, 68); stroke-opacity: 1; stroke-width: 1px;" d="M79,0h-5" transform="translate(0,139.63)"/><g class="ytick"><text text-anchor="end" x="71.6" y="4.199999999999999" style="font-family: TOBESTRIPPEDOpen SansTOBESTRIPPED, verdana, arial, sans-serif; font-size: 12px; fill: rgb(68, 68, 68); fill-opacity: 1; white-space: pre; opacity: 1;" transform="translate(0,354.58000000000004)">6</text></g><g class="ytick"><text text-anchor="end" x="71.6" y="4.199999999999999" style="font-family: TOBESTRIPPEDOpen SansTOBESTRIPPED, verdana, arial, sans-serif; font-size: 12px; fill: rgb(68, 68, 68); fill-opacity: 1; white-space: pre; opacity: 1;" transform="translate(0,282.93)">6.5</text></g><g class="ytick"><text text-anchor="end" x="71.6" y="4.199999999999999" style="font-family: TOBESTRIPPEDOpen SansTOBESTRIPPED, verdana, arial, sans-serif; font-size: 12px; fill: rgb(68, 68, 68); fill-opacity: 1; white-space: pre; opacity: 1;" transform="translate(0,211.28)">7</text></g><g class="ytick"><text text-anchor="end" x="71.6" y="4.199999999999999" style="font-family: TOBESTRIPPEDOpen SansTOBESTRIPPED, verdana, arial, sans-serif; font-size: 12px; fill: rgb(68, 68, 68); fill-opacity: 1; white-space: pre; opacity: 1;" transform="translate(0,139.63)">7.5</text></g></g><g class="overaxes-above"/></g></g><g class="polarlayer"/><g class="smithlayer"/><g class="ternarylayer"/><g class="geolayer"/><g class="funnelarealayer"/><g class="pielayer"/><g class="iciclelayer"/><g class="treemaplayer"/><g class="sunburstlayer"/><g class="glimages"/><defs id="topdefs-d3f3e0"><g class="clips"/><clipPath id="legendd3f3e0"><rect width="181" height="67" x="0" y="0"/></clipPath></defs><g class="layer-above"><g class="imagelayer"/><g class="shapelayer"/></g><g class="infolayer"><g class="legend" pointer-events="all" transform="translate(507.38,100)"><rect class="bg" shape-rendering="crispEdges" style="stroke: rgb(68, 68, 68); stroke-opacity: 1; fill: rgb(255, 255, 255); fill-opacity: 1; stroke-width: 0px;" width="181" height="67" x="0" y="0"/><g class="scrollbox" transform="" clip-path="url(#legendd3f3e0)"><g class="groups"><g class="traces" style="opacity: 1;" transform="translate(0,14.5)"><text class="legendtext" text-anchor="start" style="font-family: TOBESTRIPPEDOpen SansTOBESTRIPPED, verdana, arial, sans-serif; font-size: 12px; fill: rgb(68, 68, 68); fill-opacity: 1; white-space: pre;" x="40" y="4.680000000000001">HALF-1H</text><g class="layers" style="opacity: 1;"><g class="legendfill"/><g class="legendlines"><path class="js-line" d="M5,0h30" style="fill: none; stroke: rgb(255, 0, 0); stroke-opacity: 1; stroke-width: 2px;"/></g><g class="legendsymbols"><g class="legendpoints"/></g></g><rect class="legendtoggle" style="fill: rgb(0, 0, 0); fill-opacity: 0;" x="0" y="-9.5" width="175.39999389648438" height="19"/></g><g class="traces" style="opacity: 1;" transform="translate(0,33.5)"><text class="legendtext" text-anchor="start" style="font-family: TOBESTRIPPEDOpen SansTOBESTRIPPED, verdana, arial, sans-serif; font-size: 12px; fill: rgb(68, 68, 68); fill-opacity: 1; white-space: pre;" x="40" y="4.680000000000001">HALF-1H-OFF+2EMB</text><g class="layers" style="opacity: 1;"><g class="legendfill"/><g class="legendlines"><path class="js-line" d="M5,0h30" style="fill: none; stroke: rgb(144, 238, 144); stroke-opacity: 1; stroke-width: 2px;"/></g><g class="legendsymbols"><g class="legendpoints"/></g></g><rect class="legendtoggle" style="fill: rgb(0, 0, 0); fill-opacity: 0;" x="0" y="-9.5" width="175.39999389648438" height="19"/></g><g class="traces" style="opacity: 1;" transform="translate(0,52.5)"><text class="legendtext" text-anchor="start" style="font-family: TOBESTRIPPEDOpen SansTOBESTRIPPED, verdana, arial, sans-serif; font-size: 12px; fill: rgb(68, 68, 68); fill-opacity: 1; white-space: pre;" x="40" y="4.680000000000001">HALF-1H-OFF</text><g class="layers" style="opacity: 1;"><g class="legendfill"/><g class="legendlines"><path class="js-line" d="M5,0h30" style="fill: none; stroke: rgb(0, 0, 255); stroke-opacity: 1; stroke-width: 2px;"/></g><g class="legendsymbols"><g class="legendpoints"/></g></g><rect class="legendtoggle" style="fill: rgb(0, 0, 0); fill-opacity: 0;" x="0" y="-9.5" width="175.39999389648438" height="19"/></g></g></g><rect class="scrollbar" rx="20" ry="3" width="0" height="0" style="fill: rgb(128, 139, 164); fill-opacity: 1;" x="0" y="0"/></g><g class="g-gtitle"><text class="gtitle" style="font-family: TOBESTRIPPEDOpen SansTOBESTRIPPED, verdana, arial, sans-serif; font-size: 17px; fill: rgb(68, 68, 68); opacity: 1; font-weight: normal; white-space: pre;" x="350" y="50" text-anchor="middle" dy="0em">val_loss</text></g><g class="g-xtitle"><text class="xtitle" style="font-family: TOBESTRIPPEDOpen SansTOBESTRIPPED, verdana, arial, sans-serif; font-size: 14px; fill: rgb(68, 68, 68); opacity: 1; font-weight: normal; white-space: pre;" x="289.5" y="422" text-anchor="middle">Steps</text></g><g class="g-ytitle"/></g></svg>