<svg class="main-svg" xmlns="http://www.w3.org/2000/svg" xmlns:xlink="http://www.w3.org/1999/xlink" width="700" height="450" style="" viewBox="0 0 700 450"><rect x="0" y="0" width="700" height="450" style="fill: rgb(255, 255, 255); fill-opacity: 1;"/><defs id="defs-a0edc1"><g class="clips"><clipPath id="clipa0edc1xyplot" class="plotclip"><rect width="457" height="270"/></clipPath><clipPath class="axesclip" id="clipa0edc1x"><rect x="80" y="0" width="457" height="450"/></clipPath><clipPath class="axesclip" id="clipa0edc1y"><rect x="0" y="100" width="700" height="270"/></clipPath><clipPath class="axesclip" id="clipa0edc1xy"><rect x="80" y="100" width="457" height="270"/></clipPath></g><g class="gradients"/><g class="patterns"/></defs><g class="bglayer"/><g class="layer-below"><g class="imagelayer"/><g class="shapelayer"/></g><g class="cartesianlayer"><g class="subplot xy"><g class="layer-subplot"><g class="shapelayer"/><g class="imagelayer"/></g><g class="minor-gridlayer"><g class="x"/><g class="y"/></g><g class="gridlayer"><g class="x"><path class="xgrid crisp" transform="translate(188.6,0)" d="M0,100v270" style="stroke: rgb(238, 238, 238); stroke-opacity: 1; stroke-width: 1px;"/><path class="xgrid crisp" transform="translate(297.21000000000004,0)" d="M0,100v270" style="stroke: rgb(238, 238, 238); stroke-opacity: 1; stroke-width: 1px;"/><path class="xgrid crisp" transform="translate(405.81,0)" d="M0,100v270" style="stroke: rgb(238, 238, 238); stroke-opacity: 1; stroke-width: 1px;"/><path class="xgrid crisp" transform="translate(514.4100000000001,0)" d="M0,100v270" style="stroke: rgb(238, 238, 238); stroke-opacity: 1; stroke-width: 1px;"/></g><g class="y"><path class="ygrid crisp" transform="translate(0,326.38)" d="M80,0h457" style="stroke: rgb(238, 238, 238); stroke-opacity: 1; stroke-width: 1px;"/><path class="ygrid crisp" transform="translate(0,275.78999999999996)" d="M80,0h457" style="stroke: rgb(238, 238, 238); stroke-opacity: 1; stroke-width: 1px;"/><path class="ygrid crisp" transform="translate(0,225.19)" d="M80,0h457" style="stroke: rgb(238, 238, 238); stroke-opacity: 1; stroke-width: 1px;"/><path class="ygrid crisp" transform="translate(0,174.6)" d="M80,0h457" style="stroke: rgb(238, 238, 238); stroke-opacity: 1; stroke-width: 1px;"/><path class="ygrid crisp" transform="translate(0,124.01)" d="M80,0h457" style="stroke: rgb(238, 238, 238); stroke-opacity: 1; stroke-width: 1px;"/></g></g><g class="zerolinelayer"/><path class="xlines-below"/><path class="ylines-below"/><g class="overlines-below"/><g class="xaxislayer-below"/><g class="yaxislayer-below"/><g class="overaxes-below"/><g class="plot" transform="translate(80,100)" clip-path="url(#clipa0edc1xyplot)"><g class="scatterlayer mlayer"><g class="trace scatter traceb8e5c0" style="stroke-miterlimit: 2; opacity: 1;"><g class="fills"/><g class="errorbars"/><g class="lines"><path class="js-line" style="vector-effect: none; fill: none; stroke: rgb(0, 128, 0); stroke-opacity: 1; stroke-width: 2px; opacity: 1;" d="M0.16,31.95L0.81,38.2L0.98,34.28L1.19,38.62L1.47,36.85L2.06,44.96L2.17,39.72L2.66,46.92L2.77,53.01L2.93,46.09L3.31,53.27L3.37,61.23L3.69,47.95L3.8,61.26L3.86,62.62L4.18,52.71L4.45,61.74L4.83,57.76L5.59,67.47L5.81,64.44L5.92,59.02L6.57,75.35L6.79,51.02L6.95,83.58L7.44,59.75L7.82,87.3L8.15,74.02L8.53,75.75L8.69,86.78L9.23,82.93L9.29,88.32L9.34,96.32L9.61,94.38L9.83,66.04L10.81,126.83L10.97,100.05L11.24,82.14L11.57,109.36L11.67,93.43L11.89,97.75L12,77.38L12.16,106.48L12.44,89.88L12.98,90.59L13.36,120.65L14.01,75.1L14.06,100.41L14.72,94.16L14.88,117.79L15.1,94.54L15.64,114.06L15.75,97.89L16.02,107.79L16.18,90.57L16.62,95.49L16.72,96.13L16.94,122.32L17.32,124.49L17.49,92.37L18.3,96.42L18.35,116.95L18.79,101.3L19.11,105.87L19.22,114.33L19.71,98.14L19.82,105.75L19.87,106.19L19.93,101.81L20.53,115.15L20.96,99.93L21.29,112.54L21.39,115.69L21.83,94.84L21.94,117.01L22.21,109.61L23.08,131.07L23.13,111.97L23.62,129.68L23.73,127.04L23.84,107.15L24.11,96.98L24.44,118.09L24.54,98.94L25.52,135.33L25.74,112.87L26.28,132.43L26.44,118.81L26.66,131.91L26.82,107.79L27.31,134.94L27.64,119.54L27.69,106.18L28.18,129.88L28.94,138.36L29.32,108.5L29.54,142.8L29.7,129.12L29.87,139.96L30.19,124.27L30.63,127.74L30.84,132.45L31.01,115.04L31.49,138.67L31.71,128.8L31.77,153.39L32.09,114.13L32.36,139.29L32.47,126.75L32.69,146.22L33.02,107.2L33.29,138.39L33.34,129.63L33.45,155.39L33.99,132.45L34.1,140.57L34.75,119.24L34.86,120.44L34.92,116.97L35.24,116.72L35.51,145.48L35.57,127.56L35.73,128.1L35.84,141.59L36.38,132.73L36.65,116.1L36.71,155.72L37.31,151.41L37.58,122.97L37.85,118.6L37.96,144.82L38.28,129.1L38.55,131.68L38.93,116.51L39.1,141.1L39.42,116.89L39.59,150.5L39.8,132.23L40.07,125.91L40.29,146.38L40.4,143.58L41.05,143.46L41.16,131.38L41.49,152.39L41.76,141.8L41.92,134.95L42.08,119.68L42.41,146.2L42.46,143.61L42.79,147.04L42.95,130.62L43.66,132.08L43.71,133.35L43.77,131.03L43.82,140.72L43.98,159.58L44.42,156.42L44.47,148.23L44.96,143.68L45.18,126.18L45.88,155.23L46.16,119.41L46.54,154.13L46.81,132.26L46.97,124.83L47.3,149.96L48,136.14L48.44,143.07L48.6,141.01L48.71,118.1L49.25,151.95L49.47,129.96L49.63,138.8L49.85,160.74L50.39,144.78L50.5,142.06L50.99,136.64L51.15,167.22L51.31,142.77L51.69,157.24L52.13,122.47L52.29,138.91L52.4,147.53L52.56,138.83L53.11,139.93L53.32,132.87L53.76,159.22L53.87,131.61L54.46,156.22L54.63,133.33L54.9,152.03L55.12,156.34L55.82,141.48L56.2,145.79L56.26,175.59L56.8,134.72L57.34,160.28L58.05,134.57L58.1,162.08L58.16,164.56L58.21,152.74L58.27,138.02L58.65,166.59L58.92,142.23L59.03,140.37L59.24,150.25L59.62,138.01L59.95,156.75L60.11,151.92L60.22,138.3L60.33,161.48L60.38,138.16L60.93,153.66L61.09,155.88L61.25,175.17L61.69,142.57L61.85,143.52L62.45,168.56L62.56,147.2L63.1,135.45L63.75,165.91L63.86,159.77L63.91,139.56L64.4,138.14L64.62,162.62L64.78,136L65.43,155.52L65.54,138.52L65.92,151.62L66.14,162.02L66.52,146.48L66.74,133.92L67.66,161.54L67.93,152.96L67.99,146.33L68.2,143.2L68.47,160.99L68.8,146.88L69.34,165.43L69.4,143.5L69.61,165.02L69.78,141.71L70.21,166.01L70.54,149.6L70.7,148.85L70.92,142.84L71.13,161.19L71.68,140.29L71.79,167.98L72,150.88L72.49,156.79L73.04,157.98L73.52,164.44L73.85,140.02L74.07,173.85L74.66,140.02L74.72,155.95L74.94,144.8L75.64,143.71L75.86,177.9L76.94,154.93L77.76,177.48L77.98,151.38L78.14,148.05L78.25,179.04L78.68,168.59L78.79,137.97L79.01,160.6L79.33,148.83L79.99,162.55L80.15,157.39L80.53,188.36L80.75,159.36L80.91,160.44L81.07,169.75L81.13,173.35L81.34,156.51L81.4,161.71L81.56,150.51L82.16,149.9L82.27,165.63L82.32,149.79L82.97,149.31L83.3,164.18L83.46,149.28L83.68,175.86L84.06,158.83L84.22,164.61L84.33,153.18L84.82,159.8L84.98,169L85.36,141.59L85.58,157.43L85.8,171.56L86.07,158.46L86.61,178.55L86.66,144.91L87.05,149.32L87.48,173.42L88.19,187.07L88.35,175.33L88.57,175.1L88.78,165.16L88.89,150.32L89.43,171.05L89.65,154.66L89.76,172.85L89.92,148.56L90.47,172.28L90.68,145.24L91.61,203.86L91.66,172.68L91.99,152.44L92.53,153.05L92.69,175.96L92.96,151.2L93.29,165.5L93.51,172.78L93.56,144.67L93.94,152.47L94.38,169.9L94.43,175.93L94.76,152.13L95.03,167.27L95.19,167.07L95.24,158.11L95.84,161.6L96.38,156.41L96.93,175.7L97.15,166.02L97.31,168.91L97.53,149.2L97.85,169.84L98.18,164.06L98.29,167.86L98.77,157.36L98.99,178.16L99.48,165.45L99.7,166.08L99.81,154.79L100.29,169.61L100.35,158.17L100.51,169.01L101,160.84L101.27,187.95L101.33,193.37L101.38,160.24L101.76,176.09L101.92,151.69L102.41,180.92L102.63,180.01L102.9,155.55L103.12,157.23L103.28,165.84L103.72,188.47L103.88,187.44L104.15,155.22L104.48,161.21L105.07,158.98L105.13,187.49L105.72,162L105.89,177.35L106.05,188.48L106.21,162.94L106.81,184.23L106.87,181.52L107.57,182.21L107.95,165.68L108.11,188.9L109.53,170.46L109.74,179.4L110.01,167.69L110.29,180.68L110.56,169.15L110.77,167.73L111.15,159.36L111.53,170.4L111.64,156.59L112.24,172.02L112.3,160.99L112.62,188.55L112.89,168.69L113.16,162.6L113.27,194.98L113.49,160.71L113.92,178.75L114.03,175.72L114.3,187.31L114.52,169.83L114.58,183.13L114.79,166.76L115.06,149.8L115.34,188.6L115.5,179.32L115.93,167.79L116.15,162.31L116.37,166.83L116.69,184.39L117.24,154.76L117.4,179.14L117.78,178.82L118.16,169.73L118.76,167.28L118.87,191.16L119.41,169.27L119.63,177.76L119.95,171.32L120.06,173.53L120.11,146.51L120.22,183.25L120.82,161.73L120.93,168.67L121.58,210.67L121.74,180.7L121.85,168.1L122.4,178.29L122.56,198.58L122.61,200.63L122.94,178.78L123.1,164.82L123.59,207.01L123.86,180.45L124.46,200.59L124.89,171.54L125.22,177.31L125.38,189.48L125.76,162.03L125.92,194.67L126.2,177.62L126.52,192.36L126.63,166.79L127.17,200.25L127.23,181.26L127.28,197.58L127.45,164.06L127.99,185.4L128.1,181.61L128.42,164.15L128.59,177.43L128.75,192.05L129.13,167.28L129.45,177.45L129.73,168.2L129.94,158.22L130.16,181.89L130.21,168.72L130.97,165.12L131.14,187.78L131.35,176.81L131.84,176.13L132.01,174.39L132.22,194.65L132.55,163.33L132.93,176.94L133.26,185.84L133.69,177.82L133.8,179.41L133.85,163.32L134.29,183.18L134.5,177.63L134.88,164.27L135.16,183.43L135.64,174.52L135.7,177.54L135.75,189.05L136.3,163.95L136.46,173.19L136.79,165.24L136.89,190.95L137,188.61L137.27,177.94L137.44,176.27L138.03,193.95L138.09,184.45L138.69,176.13L139.28,190.57L139.34,172.25L139.45,202.23L139.93,168.38L139.99,190.26L140.26,187.87L140.31,210.54L140.75,177.21L141.07,188.62L141.45,194.54L141.51,168.38L142.11,197.78L142.16,178.76L142.7,183.7L142.98,187.51L143.08,198.03L143.3,171.29L143.36,182.95L143.52,202.41L144.12,178.41L144.55,181.45L144.98,189.61L145.04,170.8L145.09,191.98L145.58,178.06L145.74,194.42L146.23,175.46L146.72,179.62L146.78,199.19L146.83,166.84L147.32,177.11L147.54,169.02L147.97,193.28L148.08,166.17L148.24,172.1L148.46,196.84L148.51,206.5L149,172.42L149.06,189.87L149.11,176.7L149.49,177.91L149.55,171.97L149.93,187.02L150.31,184.51L150.47,178.08L150.69,189.08L151.17,175.35L151.23,177.36L151.88,176.52L151.99,182.58L152.37,178.76L152.7,210.81L152.75,189.15L153.4,199.47L153.89,177.74L154.27,196.15L154.38,175.44L154.6,187.13L154.81,177.71L154.87,175.47L155.14,195.14L155.25,198.41L155.41,181.61L155.63,186L155.9,172.31L156.33,186.72L156.39,186.61L156.44,173.51L157.09,198.37L157.2,178.49L157.69,198.71L158.07,184.21L158.13,184.95L158.23,206.65L158.78,171.46L158.83,191.16L159.1,204.63L160.13,169.22L160.3,174.66L160.62,191.18L160.84,173.9L160.89,195.85L161.44,182.76L161.71,183.44L161.87,171.21L162.2,197.67L162.52,187.48L162.69,199.79L163.12,177.02L163.28,183.48L163.45,197.44L163.88,182.81L163.94,168.41L164.75,209.15L165.4,179.09L165.46,177.94L165.51,196.94L165.62,181.57L166.11,187.83L166.49,183.76L166.92,192.79L167.09,176.96L167.25,210.9"/></g><g class="points"/><g class="text"/></g><g class="trace scatter traced035f4" style="stroke-miterlimit: 2; opacity: 1;"><g class="fills"/><g class="errorbars"/><g class="lines"><path class="js-line" style="vector-effect: none; fill: none; stroke: rgb(0, 128, 0); stroke-opacity: 1; stroke-width: 2px; opacity: 1;" d="M397.7,226.48L397.76,227.59L397.81,206.06L397.87,220.31L398.03,202.81L398.57,216.24L398.63,208.1L398.68,206.27L398.73,216.85L398.79,209.3L398.84,228.55L399.06,199.55L399.44,203.7L399.49,249.11L400.15,194.48L400.31,210.63L400.36,218.25L400.42,240.32L400.64,209.78L401.12,225.61L401.23,214.11L401.56,238.04L401.67,197.79L401.99,217.28L402.05,217.81L402.1,203.26L402.54,230.09L402.75,219.61L402.81,215.5L402.86,229.28L403.46,208.08L403.51,217.55L403.57,217.51L403.89,231.55L403.95,198.61L404.16,216.29L404.22,238.96L404.49,186.56L405.09,197.64L405.14,198.83L405.41,241.42L405.96,232.44L406.01,217.67L406.17,205.04L406.66,222.46L406.72,220.74L406.83,208.2L406.88,239.32L407.21,186.49L407.53,196.98L407.59,195.36L408.24,238.17L408.29,214.22L408.4,198.31L408.51,248.94L409.16,218.37L409.21,223.72L409.54,233.17L409.7,202.81L409.87,222.43L409.92,207.89L410.3,198.52L410.68,227.19L410.79,227.13L410.95,235.42L411.66,195.88L411.71,239.6L411.88,241.18L411.93,210.92L412.53,212.39L412.58,217.21L412.64,241.04L413.07,200.36L413.34,231.53L413.4,221.65L413.67,234.16L413.83,208.55L414.1,212.48L414.16,221.95L414.21,222.37L414.26,217.56L414.32,221.04L414.37,213.15L414.64,230.34L414.75,207.68L414.97,215.03L415.03,211.35L415.57,207.81L415.73,225.64L415.84,222.36L415.89,215.87L416.33,233.12L416.38,198.43L416.6,216.28L416.65,209.03L417.09,238.57L417.14,202.78L417.41,217.18L417.47,218.09L417.63,202.68L417.74,230.71L418.07,218.89L418.12,228.59L418.28,231.69L418.45,209.05L418.88,217.02L418.93,225.77L419.04,227.03L419.42,196.77L419.69,209.55L419.75,218.26L419.86,198.73L419.97,231.6L420.18,220.89L420.24,204.95L420.29,203.76L420.35,221.59L420.62,205.95L420.84,232.6L421,216.21L421.05,207.37L421.7,236.21L421.87,224.78L421.92,218.83L422.14,196.87L422.63,232.55L422.68,209.34L422.84,224.07L423.17,202.19L423.28,206.11L423.39,217.02L423.66,231.46L423.71,209.67L424.26,229.04L424.36,203.75L424.47,200.12L424.64,199.91L425.18,228.04L425.23,209.55L425.99,236.51L426.05,227.26L426.1,211.3L426.27,207.93L426.37,240.38L426.86,222.38L426.92,207.19L427.08,249.96L427.57,223.01L427.62,213.88L428.11,199.79L428.22,237.89L428.27,232.37L428.33,199.77L428.76,247.2L428.82,198.61L429.2,233.3L429.41,229.99L429.52,201.81L429.96,249.17L430.23,206.83L430.28,214.11L430.61,207.24L430.77,241.58L430.99,234.17L431.04,216.01L431.1,235.4L431.42,201.09L431.8,227.63L431.86,215.11L432.18,206.85L432.4,243.61L432.62,233.15L432.67,212.52L432.73,236.09L433.05,200.87L433.38,228.25L433.43,202.85L434.08,243.83L434.19,236.82L434.25,198.9L434.63,235.63L435.01,210.31L435.06,207.3L435.44,200.17L435.61,223.55L435.66,198.39L436.26,227.52L436.42,219.09L436.47,212.89L436.53,213.53L436.58,210.78L436.64,203.84L436.91,238.56L437.34,214.74L437.4,198.87L438.1,226.31L438.16,189.83L438.21,240.23L438.92,214.56L439.03,210.55L439.46,200.94L439.68,235.34L439.84,218.56L439.9,202.55L440.33,191.86L440.44,232.85L440.66,213.73L440.76,203.36L440.82,197.87L440.93,225.29L441.14,210.64L441.25,229.11L441.47,205.18L441.85,237.12L441.9,211.29L441.96,246.63L442.28,207.41L442.61,231.5L442.66,206.89L443.21,241.65L443.42,217.76L443.48,219.97L443.53,227.69L444.02,201.69L444.18,222.89L444.24,212.4L444.4,237.67L444.78,208.35L444.84,236.16L444.89,207.4L445.16,235.47L445.27,207.14L445.6,218.75L445.65,208.06L446.25,239.12L446.36,237.77L446.41,207.14L446.47,242.43L446.85,202.34L447.12,214.29L447.17,207.51L447.28,223.71L447.44,200.47L447.88,215.01L447.99,200.21L448.09,256.5L448.75,223.21L448.8,222.07L449.07,236.24L449.18,202.97L449.45,224.16L449.51,214.99L449.78,233.26L450,203.25L450.21,224.12L450.27,211.27L450.43,227.25L450.92,204.72L451.03,218.72L451.08,203.4L451.57,247.04L451.95,223.71L452,214.5L452.6,196.25L452.66,233.49L452.71,217.59L452.76,213.74L453.36,205.45L453.47,236.15L453.52,225.32L453.58,206.04L453.9,247.82L454.28,216.33L454.34,210.66L454.83,192.33L455.15,224.11L455.21,222.13L455.26,222.59L455.37,213.14L455.53,201.75L456.13,233.21L456.19,224L456.24,227.89L456.35,205.26L456.57,245.77L457,216.23"/></g><g class="points"/><g class="text"/></g><g class="trace scatter traceb85558" style="stroke-miterlimit: 2; opacity: 1;"><g class="fills"/><g class="errorbars"/><g class="lines"><path class="js-line" style="vector-effect: none; fill: none; stroke: rgb(0, 128, 0); stroke-opacity: 1; stroke-width: 2px; opacity: 1;" d="M0,13.5L0.81,38.2L0.87,37.32L0.98,34.28L1.52,32.43L1.79,46.37L1.85,36.62L2.72,55.98L2.88,49.29L2.93,46.09L3.86,62.62L3.96,46.71L4.34,61.85L4.72,60.54L4.83,57.76L4.89,49.48L5.38,65.16L5.43,61.95L5.59,67.47L5.97,57.57L6.08,75.5L6.19,75.16L6.52,88.76L6.79,51.02L6.84,60.55L6.95,83.58L7.44,59.75L7.66,84.13L7.77,77.34L8.36,90.77L8.47,72.43L8.53,75.75L8.91,87.22L9.01,75.09L9.29,88.32L9.34,96.32L9.5,61.97L9.67,87.41L9.77,102.37L9.83,66.04L9.99,107.21L10.48,87.32L10.59,86.35L10.7,78.28L10.75,107.19L10.81,126.83L11.24,82.14L11.57,109.36L11.67,93.43L11.84,107.23L11.95,92.87L12,77.38L12.65,77.34L12.71,108.73L12.76,93.29L12.82,85.61L13.36,120.65L13.52,102.04L13.68,97.81L13.74,96.27L13.79,103.71L13.85,82.16L14.01,75.1L14.55,106.15L14.66,93.57L14.72,94.16L14.82,94.77L14.88,117.79L15.26,81.81L15.58,115.93L15.64,114.06L16.29,88.89L16.51,116.32L16.89,94.82L16.94,122.32L17.27,99.96L17.32,124.49L17.76,82.55L18.03,124.67L18.08,109.06L18.25,107.68L18.3,96.42L18.57,118.62L18.95,106.77L19.01,106.2L19.11,105.87L19.17,102.76L19.28,124.93L19.39,94.24L19.87,106.19L19.93,101.81L20.31,98.85L20.74,124.29L20.85,107.71L21.23,94.71L21.5,124.17L21.56,98.91L21.77,138.4L21.83,94.84L22.21,109.61L22.37,118.58L22.7,107.96L23.08,131.07L23.13,111.97L23.62,129.68L23.84,107.15L23.89,109.47L24.11,96.98L24.65,137.7L24.76,123.82L24.98,103.55L25.09,133.52L25.47,123.46L25.52,135.33L25.58,111.82L26.23,114.71L26.28,132.43L26.39,145.86L26.82,107.79L26.88,117.92L26.99,127.38L27.31,134.94L27.69,106.18L27.75,118.79L27.8,127.26L27.86,108.53L28.24,141.23L28.4,119.7L28.56,125.12L28.78,123.72L28.89,134.89L28.94,138.36L29.16,109.57L29.27,131.3L29.32,108.5L29.54,142.8L30.08,129.33L30.14,126.56L30.52,136.08L30.79,120.36L30.84,132.45L30.9,132.91L31.01,115.04L31.77,153.39L31.82,137.71L31.93,122.46L32.09,114.13L32.36,139.29L32.53,117.17L32.64,135.32L33.02,107.2L33.45,155.39L33.5,104.79L34.32,148.88L34.37,131.94L34.92,116.97L35.02,154.17L35.19,131.79L35.24,116.72L35.78,151.15L35.89,126.01L36,124.56L36.49,135.66L36.54,128.35L36.65,116.1L36.71,155.72L37.03,114.48L37.41,149.83L37.47,144.1L37.85,118.6L37.96,144.82L38.28,129.1L38.5,136.07L38.93,116.51L39.04,148.62L39.15,135.91L39.26,137.83L39.31,151.78L39.42,116.89L39.91,124.56L40.07,125.91L40.29,146.38L40.35,114.6L40.51,126.81L40.78,135.09L41.21,128.56L41.49,152.39L41.54,132.96L41.87,158.78L42.08,119.68L42.3,144.27L42.36,136.28L42.84,111.98L42.9,163.54L42.95,130.62L43.06,125.88L43.17,117.89L43.28,156.45L43.82,140.72L43.88,135.81L43.98,159.58L44.15,125.42L44.53,145.45L44.58,122.19L44.91,151.85L45.02,113.08L45.4,147.78L45.45,128.65L45.61,140.66L45.72,139.75L45.78,127.5L45.88,155.23L46.16,119.41L46.54,154.13L46.59,133.63L46.97,124.83L47.3,149.96L47.46,131.81L47.89,160.21L48.27,142.64L48.33,140.92L48.49,143.08L48.6,141.01L48.71,118.1L49.09,156.69L49.47,129.96L49.58,127.92L49.85,160.74L50.39,144.78L50.45,135.26L51.1,129.2L51.15,167.22L51.21,124.11L51.69,157.24L51.91,136.74L52.07,137.26L52.13,122.47L52.24,148.38L52.73,148.1L52.78,182.28L53.38,131.14L53.7,141.78L53.76,159.22L53.87,131.61L54.57,134.04L54.63,133.33L54.68,129.01L54.9,152.03L55.06,140.84L55.12,156.34L55.17,130.91L55.88,133.15L55.98,128.74L56.26,175.59L56.74,158.44L56.8,134.72L57.13,133.34L57.34,160.28L57.56,142.38L57.67,146.08L58.05,134.57L58.16,164.56L58.32,157.08L58.48,144.57L58.54,143.41L58.65,166.59L59.03,140.37L59.35,147.22L59.62,138.01L59.95,156.75L60.17,144.6L60.22,138.3L60.27,137.66L60.33,161.48L60.38,138.16L60.82,162.29L61.09,155.88L61.14,162.22L61.25,175.17L61.63,140.33L61.74,149.84L61.85,143.52L61.9,134.63L62.45,168.56L62.5,167.69L63.1,135.45L63.26,163.1L63.32,151.38L63.75,165.91L63.91,139.56L63.97,141.22L64.08,151.8L64.62,162.62L64.78,136L64.84,149.84L64.89,175.63L64.94,134.48L65.65,139.65L65.7,155.2L66.08,148.79L66.14,162.02L66.74,133.92L66.95,144.66L67.01,145.85L67.06,168.43L67.33,136.65L67.71,168.23L67.77,150L68.2,143.2L68.47,160.99L68.58,159.08L68.64,133.23L69.23,176.68L69.4,143.5L69.45,157.44L69.61,165.02L69.78,141.71L70.16,152.86L70.21,166.01L70.65,136.35L70.97,160.27L71.13,161.19L71.35,142.3L71.41,146.25L71.57,164.7L71.79,167.98L72.17,135.95L72.22,145.47L72.38,152.8L72.66,150.28L72.82,162.9L72.87,142.15L73.14,165.76L73.42,139.8L73.58,151.6L73.63,140.85L73.85,140.02L74.07,173.85L74.39,151.58L74.5,161.7L74.66,140.02L74.99,167.2L75.15,173.95L75.64,143.71L75.86,177.9L75.97,150.18"/></g><g class="points"/><g class="text"/></g><g class="trace scatter trace8398ea" style="stroke-miterlimit: 2; opacity: 1;"><g class="fills"/><g class="errorbars"/><g class="lines"><path class="js-line" style="vector-effect: none; fill: none; stroke: rgb(0, 128, 0); stroke-opacity: 1; stroke-width: 2px; opacity: 1;" d="M167.52,189.94L168.06,189.54L168.12,184.29L168.28,177.19L168.5,198.09L168.71,191.89L168.77,185.43L169.47,196.37L170.23,184.28L170.67,198.86L170.94,180.44L171.16,210.64L171.48,192.55L171.76,183.41L172.14,204.42L173.06,183.27L173.11,192.64L173.6,188.48L173.87,199.46L174.09,159.85L174.25,204.53L174.69,172.67L175.12,202.77L175.45,183.22L175.83,186.99L175.99,191.51L176.21,194.48L176.59,189.62L176.64,202.13L176.91,198.86L177.29,210.26L177.35,172.26L177.73,207.19L178.11,225.49L178.33,181.52L178.98,192.06L179.25,188.78L179.3,177.33L179.47,198.02L179.74,187.3L180.55,198.64L180.61,197.71L181.31,171.02L181.37,189.09L182.02,185.68L182.18,206.75L182.4,180.95L182.78,192.69L182.94,206.67L183.43,181.4L183.48,196.78L184.03,190.09L184.24,196.18L184.46,186.85L184.57,215.95L184.79,180.79L185.6,209.35L185.66,189.43L186.09,198.47L186.42,189.27L186.53,207.48L187.23,203.96L187.83,192.81L188.26,210.54L188.48,176.08L188.86,206.59L189.24,181.78L189.84,192.44L190.16,192.38L190.22,208.04L190.98,205L191.03,199.99L191.36,172.96L191.41,205.83L191.85,192L192.06,193.05L192.34,210.65L192.55,182L192.72,201.85L192.82,192.36L193.42,202.21L193.75,192.56L193.86,196.46L194.13,194.7L195,188.24L195.1,181.52L195.48,208.49L196.25,201.53L196.41,177.86L196.95,201.5L197.17,189.25L197.93,213.59L198.15,201.44L198.42,191.06L199.01,226.95L199.67,186.66L200.05,176.91L201.13,210.82L201.3,208.96L201.4,189.41L201.46,180.71L201.89,225.89L202.22,192.71L202.27,214.45L202.54,184.89L202.87,194.01L203.03,214.6L203.68,190.54L203.96,217.71L204.23,188.6L204.44,192.09L204.88,193.61L204.99,179.99L205.15,216.57L205.42,194.49L205.86,212.95L206.13,216.1L206.45,200.54L206.56,215.08L206.67,177.58L207.11,188.8L207.38,179.87L207.7,197.22L208.79,192.72L208.84,218.74L209.44,180.88L209.55,202.58L209.66,203.4L210.09,171.17L210.96,190.88L211.72,207.13L211.78,199.77L212.26,171.14L213.19,208.87L213.51,206.24L213.84,192.09L214.33,198.93L214.54,210.87L214.6,186.47L215.3,208.07L215.9,220.71L216.01,188.81L216.23,198.77L216.61,215.94L216.72,186.84L217.15,207.1L217.8,208.71L218.45,183.71L218.83,194.79L219,183.16L219.59,191.69L220.46,196.76L220.63,185.86L220.84,203.24L221.17,199.1L221.28,204.72L221.71,213.21L221.77,193.02L221.93,183.52L222.42,186.25L222.8,199.71L223.02,183.57L223.56,197.22L223.61,197.26L224.1,204.27L224.64,198.29L224.97,189.21L225.4,216.62L225.57,210.52L225.78,194.17L226.93,190.27L227.14,204.13L227.25,206.76L227.41,198.62L227.52,186.24L228.23,221.85L228.61,221.64L228.77,201.14L229.15,189.76L229.53,205.35L229.86,193.83L230.4,196.41L230.51,217.16L231.05,187.55L231.49,203.09L231.6,199.66L232.08,196.46L232.14,227.59L232.79,190.42L233.71,216.68L234.04,214.56L234.85,203.12L235.23,194.57L235.4,217.58L235.56,192.1L235.78,217.17L236.32,202.28L236.59,216.82L237.51,189.77L237.79,199.27L237.84,193.36L238,215.15L238.22,206.83L238.71,208.19L239.09,185.09L239.79,187.1L240.34,192.33L240.5,192.22L240.83,200.76L241.15,213.55L241.37,185.87L242.24,209.53L242.56,200.6L242.78,215.64L242.94,206.19L244.25,216.8L244.46,205.38L245.01,225.7L245.44,198.47L245.5,227.16L245.99,198.73L246.42,201.57L246.47,208.09L246.64,191.98L247.29,210.81L247.34,192.04L247.45,199.54L248.05,212.64L248.65,207.23L248.86,185.94L249.46,222L249.62,201.03L250.27,204.74L250.6,213.96L250.82,210.23L251.36,200.67L251.58,196.16L252.12,221.57L252.34,196.79L252.45,221.65L252.72,203.13L252.88,213.11L253.37,185.7L253.97,207.57L254.24,191.88L254.35,205.37L254.78,220.67L256.19,194.57L256.36,195.67L256.68,214.07L256.74,185.52L257.12,205.46L257.55,208.62L258.2,194.11L258.37,211.15L258.91,214.76L258.96,198.19L259.29,204.19L259.34,193.99L259.72,207.28L259.99,206.83L260.1,207.81L260.81,186.48L260.86,191.09L260.97,213.48L261.24,221.41L261.68,214.78L261.73,239.17L262.06,192.16L262.55,208.14L263.14,200.18L263.69,193.92L263.8,206.4L263.96,200.79L264.23,212.42L264.28,220.34L264.45,200.81L265.04,204.94L266.08,190.79L266.29,219.66L266.78,189.86L267,212.3L267.11,188.7L267.6,194.96L267.81,216.97L268.3,202.24L268.57,227.93L268.63,198.34L268.68,200.29L269.39,211.7L269.55,189.95L270.2,195.61L270.42,199.76L270.96,220.87L271.02,210.27L271.18,198.87L271.45,192.98L271.78,193.19L271.83,215.43L272.38,223.51L272.43,207.97L272.65,198.88L272.92,217.63L273.03,211.92L273.35,212.38L273.52,218.67L273.73,203.24L273.79,218.15L273.9,203.39L274.06,222.29L274.66,206.26L275.2,202.08L275.42,216.46L277.32,195.97L277.81,200.73L277.86,228.62L278.89,193.05L279.54,196.64L279.71,195.47L280.19,198.93L280.63,204.17L280.74,194.45L281.88,220.67L282.1,205.49L282.37,201.05L282.42,210.72L282.64,202.98L282.8,216.48L283.29,196.91L283.45,200.3L284,213.04L285.08,201.08L285.46,221.93L286.06,223.58L286.44,196.07L286.71,194.81L286.82,208.6L286.93,222.97L287.25,199.65L287.36,177.67L287.58,218.05L288.12,207.86L288.72,206.54L289.86,231.9L290.4,209.59L291.16,196.19L291.76,219.23L292.52,191.76L292.79,221.46L293.93,204.52L294.1,218.06L294.48,213.35L294.53,227.45L294.69,194.71L295.02,205.54L295.4,204.18L296.16,215.33L296.76,213.76L297.03,211.16L297.46,198.83L297.52,205.78L299.15,209.51L299.31,224.39L299.58,203.3L299.85,203.85L299.91,199.7L300.56,204.26L300.99,201.9L301.16,229.91L301.81,188.32L302.24,225.61L303.38,190.2L303.49,192.7L304.3,222.47L304.58,214.32L304.68,204.84L305.12,221.77L306.59,226.98L306.75,192.95L307.29,197.84L307.62,187.46L307.89,215.3L308.05,209.68L308.43,198.09L309.46,211.08L309.52,199.91L310.01,223.06L310.28,233.61L310.55,197.26L310.82,209.32L311.85,230.59L312.29,237.12L312.34,208.89L312.4,198.64L312.5,218.57L312.88,200.43L313.05,221.56L313.32,228.4L313.43,182.57L313.54,200.68L314.02,235.09L314.89,201.46L314.95,214.82L315.22,218.83L315.49,206.41L315.76,216.37L316.09,194.98L316.14,215.19L316.31,205.54L316.9,214.75L317.17,198.98L317.61,193.94L317.99,239.13L318.15,202.24L318.53,210.52L319.18,204.72L320.05,199.46L320.65,214.13L321.19,190.11L321.3,207.02L321.41,214.59L321.57,227.13L321.9,210.67L322.12,205.44L322.55,192.54L322.66,224.35L322.93,218.48L323.64,226.24L323.74,201.07L324.18,226.67L324.4,222.18L324.5,212.98L324.94,197.18L325.37,215.85L325.59,218.86L326.41,195.62L326.62,218.7L326.68,220.13L327.44,218.87L327.76,227.3L328.14,205.25L328.31,234.82L328.41,198.75L329.07,211.61L329.34,206.71L329.83,195.46L330.26,222.72L330.31,216L330.42,210.08L330.75,224.01L331.24,208.97L331.51,209.6L331.78,200.9L332.05,195.88L332.76,229.07L332.87,206.19L333.41,221.19L333.79,220.49L333.95,194.81L334.22,200.86L334.71,219.76L335.09,220.64L335.42,208.41L335.8,242.68L336.02,205.02L336.23,216.39L336.67,204.43L336.78,213.09L337.05,222.71L337.16,204.34L337.7,214.19L338.08,213.1L338.35,225.45L338.62,208.2L339.27,212.02L339.44,207.16L339.6,212.17L339.87,226.12L340.36,227.22L340.52,203.06L341.01,222.32L341.28,207.68L341.72,200.33L341.99,235.96L342.15,211.27L342.26,209.71L342.64,195.35L343.08,203.78L343.29,213.82L343.4,201.15L343.73,230.02L344.49,218.54L344.6,220.96L344.76,201.48L345.14,229.42L345.41,219.48L345.85,211.86L346.33,200.86L346.39,208.46L346.82,220.36L347.26,196.8L347.96,225.14L348.34,214.86L348.67,219.35L348.94,198.08L349.37,225.28L349.54,198.87L350.03,230.98L350.08,213.25L350.3,209.95L350.52,222.09L350.68,239.1L351.28,204.83L351.76,216.88L352.04,209.77L352.14,204.44L352.42,217.15L352.58,211.2L352.9,230.49L353.88,195.63L354.04,214.31L354.32,213.55L354.86,205.57L355.13,200.9L355.24,211.39L355.62,190.24L356.33,229.49L356.43,222.24L356.49,204.2L356.76,200.31L357.14,228.38L357.3,203.77L358.12,227.93L358.39,197.88L358.77,223.18L359.26,211.27L359.31,197.82L359.58,216.79L359.75,198.19L360.07,201.58L360.29,202.68L360.51,216.7L360.62,228.87L360.94,212.69L361.1,215.29L361.32,198.38L361.43,236.21L362.08,216.16L362.14,205.06L362.3,208.89L362.79,200.34L363.49,215.34L363.55,231.69L363.6,211.3L364.04,216.06L364.42,225.42L364.9,224.58L365.72,214.78L365.88,205.87L365.99,218.78L366.48,213.76L366.59,208.67L366.64,216.46L366.7,213.07L367.67,237.97L368.16,209.47L368.81,209.92L368.87,215.62L369.14,223.99L369.19,193.64L369.79,226.12L370.01,207.44L370.5,204.58L370.72,225.57L371.1,215.72L371.15,210.11L371.53,214.23L371.64,210.52L371.75,222.7L372.67,212.45L372.72,200.73L373.1,220.77L373.92,222.11L373.97,211.33L374.03,225.32L374.68,212.38L374.9,205.76L375.22,214.21L375.77,213.26L376.42,233.71L376.74,232.13L376.91,228.58L377.39,204.21L377.72,213.77L378.26,201.52L378.91,215.75L379.19,204.6L379.51,232.53L379.89,217.16L380.22,224.12L380.49,220.95L380.87,238.89L380.92,226.52L381.03,207.03L381.96,221.08L382.01,218.13L382.17,209.51L383.15,227.16L383.2,209.06L383.48,203.33L383.58,216.12L383.75,228.22L383.8,211.78L384.34,220.06L384.51,225.25L384.94,201.69L385.16,212.9L385.27,231.29L386.03,209.18L386.35,216.45L386.41,222.93L386.63,216.42L386.68,225.02L387.06,229.7L387.77,211.22L387.93,233L388.47,205.43L388.8,214.83L388.91,236.55L389.07,203.65L389.5,206.65L389.77,219.5L389.94,227.7L390.43,218.64L390.54,205.27L390.75,250.76L391.08,203.56L391.24,208.53L391.57,212.52L392.44,230.21L392.82,217.49L392.98,196.1L393.41,220.94L393.58,214.4L393.68,224.4L394.17,204.5L394.23,216.94L394.34,223.84L394.66,221.82L394.93,192.55L395.75,218.75L396.24,217.22L396.51,209.77L396.83,218.75L396.94,206.68L397,237.91L397.65,209.08"/></g><g class="points"/><g class="text"/></g></g></g><g class="overplot"/><path class="xlines-above crisp" style="fill: none; stroke-width: 1px; stroke: rgb(68, 68, 68); stroke-opacity: 1;" d="M79,370.5H537"/><path class="ylines-above crisp" style="fill: none; stroke-width: 1px; stroke: rgb(68, 68, 68); stroke-opacity: 1;" d="M79.5,100V370"/><g class="overlines-above"/><g class="xaxislayer-above"><path class="xtick ticks crisp" style="stroke: rgb(68, 68, 68); stroke-opacity: 1; stroke-width: 1px;" d="M0,371v5" transform="translate(80,0)"/><path class="xtick ticks crisp" style="stroke: rgb(68, 68, 68); stroke-opacity: 1; stroke-width: 1px;" d="M0,371v5" transform="translate(188.6,0)"/><path class="xtick ticks crisp" style="stroke: rgb(68, 68, 68); stroke-opacity: 1; stroke-width: 1px;" d="M0,371v5" transform="translate(297.21000000000004,0)"/><path class="xtick ticks crisp" style="stroke: rgb(68, 68, 68); stroke-opacity: 1; stroke-width: 1px;" d="M0,371v5" transform="translate(405.81,0)"/><path class="xtick ticks crisp" style="stroke: rgb(68, 68, 68); stroke-opacity: 1; stroke-width: 1px;" d="M0,371v5" transform="translate(514.4100000000001,0)"/><g class="xtick"><text text-anchor="middle" x="0" y="390.4" style="font-family: TOBESTRIPPEDOpen SansTOBESTRIPPED, verdana, arial, sans-serif; font-size: 12px; fill: rgb(68, 68, 68); fill-opacity: 1; white-space: pre; opacity: 1;" transform="translate(80,0)">0</text></g><g class="xtick"><text text-anchor="middle" x="0" y="390.4" style="font-family: TOBESTRIPPEDOpen SansTOBESTRIPPED, verdana, arial, sans-serif; font-size: 12px; fill: rgb(68, 68, 68); fill-opacity: 1; white-space: pre; opacity: 1;" transform="translate(188.6,0)">2000</text></g><g class="xtick"><text text-anchor="middle" x="0" y="390.4" style="font-family: TOBESTRIPPEDOpen SansTOBESTRIPPED, verdana, arial, sans-serif; font-size: 12px; fill: rgb(68, 68, 68); fill-opacity: 1; white-space: pre; opacity: 1;" transform="translate(297.21000000000004,0)">4000</text></g><g class="xtick"><text text-anchor="middle" x="0" y="390.4" style="font-family: TOBESTRIPPEDOpen SansTOBESTRIPPED, verdana, arial, sans-serif; font-size: 12px; fill: rgb(68, 68, 68); fill-opacity: 1; white-space: pre; opacity: 1;" transform="translate(405.81,0)">6000</text></g><g class="xtick"><text text-anchor="middle" x="0" y="390.4" style="font-family: TOBESTRIPPEDOpen SansTOBESTRIPPED, verdana, arial, sans-serif; font-size: 12px; fill: rgb(68, 68, 68); fill-opacity: 1; white-space: pre; opacity: 1;" transform="translate(514.4100000000001,0)">8000</text></g></g><g class="yaxislayer-above"><path class="ytick ticks crisp" style="stroke: rgb(68, 68, 68); stroke-opacity: 1; stroke-width: 1px;" d="M79,0h-5" transform="translate(0,326.38)"/><path class="ytick ticks crisp" style="stroke: rgb(68, 68, 68); stroke-opacity: 1; stroke-width: 1px;" d="M79,0h-5" transform="translate(0,275.78999999999996)"/><path class="ytick ticks crisp" style="stroke: rgb(68, 68, 68); stroke-opacity: 1; stroke-width: 1px;" d="M79,0h-5" transform="translate(0,225.19)"/><path class="ytick ticks crisp" style="stroke: rgb(68, 68, 68); stroke-opacity: 1; stroke-width: 1px;" d="M79,0h-5" transform="translate(0,174.6)"/><path class="ytick ticks crisp" style="stroke: rgb(68, 68, 68); stroke-opacity: 1; stroke-width: 1px;" d="M79,0h-5" transform="translate(0,124.01)"/><g class="ytick"><text text-anchor="end" x="71.6" y="4.199999999999999" style="font-family: TOBESTRIPPEDOpen SansTOBESTRIPPED, verdana, arial, sans-serif; font-size: 12px; fill: rgb(68, 68, 68); fill-opacity: 1; white-space: pre; opacity: 1;" transform="translate(0,326.38)">5</text></g><g class="ytick"><text text-anchor="end" x="71.6" y="4.199999999999999" style="font-family: TOBESTRIPPEDOpen SansTOBESTRIPPED, verdana, arial, sans-serif; font-size: 12px; fill: rgb(68, 68, 68); fill-opacity: 1; white-space: pre; opacity: 1;" transform="translate(0,275.78999999999996)">5.5</text></g><g class="ytick"><text text-anchor="end" x="71.6" y="4.199999999999999" style="font-family: TOBESTRIPPEDOpen SansTOBESTRIPPED, verdana, arial, sans-serif; font-size: 12px; fill: rgb(68, 68, 68); fill-opacity: 1; white-space: pre; opacity: 1;" transform="translate(0,225.19)">6</text></g><g class="ytick"><text text-anchor="end" x="71.6" y="4.199999999999999" style="font-family: TOBESTRIPPEDOpen SansTOBESTRIPPED, verdana, arial, sans-serif; font-size: 12px; fill: rgb(68, 68, 68); fill-opacity: 1; white-space: pre; opacity: 1;" transform="translate(0,174.6)">6.5</text></g><g class="ytick"><text text-anchor="end" x="71.6" y="4.199999999999999" style="font-family: TOBESTRIPPEDOpen SansTOBESTRIPPED, verdana, arial, sans-serif; font-size: 12px; fill: rgb(68, 68, 68); fill-opacity: 1; white-space: pre; opacity: 1;" transform="translate(0,124.01)">7</text></g></g><g class="overaxes-above"/></g></g><g class="polarlayer"/><g class="smithlayer"/><g class="ternarylayer"/><g class="geolayer"/><g class="funnelarealayer"/><g class="pielayer"/><g class="iciclelayer"/><g class="treemaplayer"/><g class="sunburstlayer"/><g class="glimages"/><defs id="topdefs-a0edc1"><g class="clips"/><clipPath id="legenda0edc1"><rect width="142" height="29" x="0" y="0"/></clipPath></defs><g class="layer-above"><g class="imagelayer"/><g class="shapelayer"/></g><g class="infolayer"><g class="legend" pointer-events="all" transform="translate(546.14,100)"><rect class="bg" shape-rendering="crispEdges" style="stroke: rgb(68, 68, 68); stroke-opacity: 1; fill: rgb(255, 255, 255); fill-opacity: 1; stroke-width: 0px;" width="142" height="29" x="0" y="0"/><g class="scrollbox" transform="" clip-path="url(#legenda0edc1)"><g class="groups"><g class="traces" style="opacity: 1;" transform="translate(0,14.5)"><text class="legendtext" text-anchor="start" style="font-family: TOBESTRIPPEDOpen SansTOBESTRIPPED, verdana, arial, sans-serif; font-size: 12px; fill: rgb(68, 68, 68); fill-opacity: 1; white-space: pre;" x="40" y="4.680000000000001">QUARTER-10H</text><g class="layers" style="opacity: 1;"><g class="legendfill"/><g class="legendlines"><path class="js-line" d="M5,0h30" style="fill: none; stroke: rgb(0, 128, 0); stroke-opacity: 1; stroke-width: 2px;"/></g><g class="legendsymbols"><g class="legendpoints"/></g></g><rect class="legendtoggle" style="fill: rgb(0, 0, 0); fill-opacity: 0;" x="0" y="-9.5" width="136.6666717529297" height="19"/></g></g></g><rect class="scrollbar" rx="20" ry="3" width="0" height="0" style="fill: rgb(128, 139, 164); fill-opacity: 1;" x="0" y="0"/></g><g class="g-gtitle"><text class="gtitle" style="font-family: TOBESTRIPPEDOpen SansTOBESTRIPPED, verdana, arial, sans-serif; font-size: 17px; fill: rgb(68, 68, 68); opacity: 1; font-weight: normal; white-space: pre;" x="350" y="50" text-anchor="middle" dy="0em">train_loss</text></g><g class="g-xtitle"><text class="xtitle" style="font-family: TOBESTRIPPEDOpen SansTOBESTRIPPED, verdana, arial, sans-serif; font-size: 14px; fill: rgb(68, 68, 68); opacity: 1; font-weight: normal; white-space: pre;" x="308.5" y="422" text-anchor="middle">Steps</text></g><g class="g-ytitle"/></g></svg>