<svg class="main-svg" xmlns="http://www.w3.org/2000/svg" xmlns:xlink="http://www.w3.org/1999/xlink" width="700" height="450" style="" viewBox="0 0 700 450"><rect x="0" y="0" width="700" height="450" style="fill: rgb(255, 255, 255); fill-opacity: 1;"/><defs id="defs-724499"><g class="clips"><clipPath id="clip724499xyplot" class="plotclip"><rect width="393" height="270"/></clipPath><clipPath class="axesclip" id="clip724499x"><rect x="80" y="0" width="393" height="450"/></clipPath><clipPath class="axesclip" id="clip724499y"><rect x="0" y="100" width="700" height="270"/></clipPath><clipPath class="axesclip" id="clip724499xy"><rect x="80" y="100" width="393" height="270"/></clipPath></g><g class="gradients"/><g class="patterns"/></defs><g class="bglayer"/><g class="layer-below"><g class="imagelayer"/><g class="shapelayer"/></g><g class="cartesianlayer"><g class="subplot xy"><g class="layer-subplot"><g class="shapelayer"/><g class="imagelayer"/></g><g class="minor-gridlayer"><g class="x"/><g class="y"/></g><g class="gridlayer"><g class="x"><path class="xgrid crisp" transform="translate(177.16,0)" d="M0,100v270" style="stroke: rgb(238, 238, 238); stroke-opacity: 1; stroke-width: 1px;"/><path class="xgrid crisp" transform="translate(274.31,0)" d="M0,100v270" style="stroke: rgb(238, 238, 238); stroke-opacity: 1; stroke-width: 1px;"/><path class="xgrid crisp" transform="translate(371.47,0)" d="M0,100v270" style="stroke: rgb(238, 238, 238); stroke-opacity: 1; stroke-width: 1px;"/><path class="xgrid crisp" transform="translate(468.63,0)" d="M0,100v270" style="stroke: rgb(238, 238, 238); stroke-opacity: 1; stroke-width: 1px;"/></g><g class="y"><path class="ygrid crisp" transform="translate(0,317.40999999999997)" d="M80,0h393" style="stroke: rgb(238, 238, 238); stroke-opacity: 1; stroke-width: 1px;"/><path class="ygrid crisp" transform="translate(0,253.77)" d="M80,0h393" style="stroke: rgb(238, 238, 238); stroke-opacity: 1; stroke-width: 1px;"/><path class="ygrid crisp" transform="translate(0,190.13)" d="M80,0h393" style="stroke: rgb(238, 238, 238); stroke-opacity: 1; stroke-width: 1px;"/><path class="ygrid crisp" transform="translate(0,126.5)" d="M80,0h393" style="stroke: rgb(238, 238, 238); stroke-opacity: 1; stroke-width: 1px;"/></g></g><g class="zerolinelayer"/><path class="xlines-below"/><path class="ylines-below"/><g class="overlines-below"/><g class="xaxislayer-below"/><g class="yaxislayer-below"/><g class="overaxes-below"/><g class="plot" transform="translate(80,100)" clip-path="url(#clip724499xyplot)"><g class="scatterlayer mlayer"><g class="trace scatter tracedd4246" style="stroke-miterlimit: 2; opacity: 1;"><g class="fills"/><g class="errorbars"/><g class="lines"><path class="js-line" style="vector-effect: none; fill: none; stroke: rgb(144, 238, 144); stroke-opacity: 1; stroke-width: 2px; opacity: 1;" d="M0,13.5L2.43,39.17L2.91,40.36L3.4,45.65L3.89,41.79L4.37,40.94L4.86,43.58L5.34,43.96L5.83,40.55L6.32,42.26L6.8,37.98L7.77,44.29L8.26,43.73L8.74,43.76L9.23,41.36L9.72,40.8L10.2,50.62L11.66,39.59L12.14,48.34L12.63,45.62L13.12,49.49L14.57,42.57L15.06,38.81L15.55,39.5L16.03,43.95L17,46L17.49,43.08L18.46,48.05L18.95,46.57L19.43,40.02L19.92,47.7L20.4,48.99L20.89,44.35L21.37,44.33L21.86,43.27L22.83,47.6L23.32,42.73L23.8,51.09L24.29,47.18L24.78,47.82L25.75,38.46L26.23,44.07L27.2,51.38L27.69,44.31L28.18,48.58L28.66,43.4L29.15,50.37L29.63,42.39L30.12,45.69L30.6,43.6L31.09,44.84L31.58,42.72L32.55,46.97L33.03,45.32L33.52,42.38L34,45.3L34.98,46.04L35.46,42.15L35.95,43.82L36.43,48.53L36.92,44.57L37.41,49.64L37.89,41.36L38.38,48.92L39.35,43.79L39.83,46.6L40.81,39.76L41.29,48.65L41.78,46.37L42.26,48.7L42.75,49.75L43.23,46.64L43.72,41.7L44.21,45.17L45.18,44.45L45.66,44.37L46.15,49.59L46.64,45.74L47.12,47.61L47.61,46.28L48.58,49.75L49.06,45.17L49.55,42.58L50.04,46.92L50.52,47.44L51.01,43.35L51.49,48.92L51.98,47.88L52.46,48.14L52.95,47.12L53.44,50.33L53.92,45.22L54.41,51.72L55.38,44.55L55.87,45.61L56.35,48.49L57.32,44.55L57.81,46.37L58.78,49.19L59.27,42.47L60.72,52.49L61.21,53.01L61.69,49.21L62.18,51.71L62.67,49.46L63.15,50.15L63.64,52.41L64.12,45.68L64.61,49.82L65.58,56.72L66.07,65.5L66.55,56.01L67.04,65.43L67.52,58.61L68.01,61.53L68.5,67.58L68.98,58.26L69.47,64.43L70.44,74.06L70.92,70.6L71.9,77.9L72.38,71.34L72.87,80.09L73.35,74.78L74.33,82.99L74.81,76.37L75.78,91.15L76.27,82.98L76.75,85.69L77.24,84.34L77.73,93.8L78.21,87.9L78.7,93.27L79.18,92.62L79.67,98.26L80.64,92.16L81.13,100.25L82.1,89.59L82.58,97.6L83.07,91.66L83.56,95.62L84.04,101.91L84.53,95.62L85.01,100.39L85.5,100.28L85.98,99.27L86.47,93.91L86.96,98.69L87.44,106.84L87.93,94.69L88.41,94.13L88.9,99.6L89.38,98.86L89.87,105.87L90.84,95.5L91.33,99.43L91.81,111.4L92.3,104.61L92.78,99.37L93.27,104.56L93.76,105.51L94.24,104.28L94.73,104.36L95.21,102.41L95.7,109.54L96.19,104.94L96.67,110.82L97.16,100.86L97.64,104.67L98.13,97.79L99.1,115.33L99.59,108.15L100.07,104.89L100.56,107.37L101.04,110.44L101.53,102.11L102.01,98.4L102.5,106.61L103.47,99.61L103.96,101.24L104.93,109.58L105.42,108.04L105.9,109.49L106.87,110.03L107.36,106.3L108.33,111.37L108.82,111.16L109.3,106.56L110.27,114.32L110.76,109.93L111.73,116.5L112.22,110.7L113.19,116.6L113.67,111L114.16,113.47L114.65,112.41L115.13,112.72L116.1,107.09L116.59,110.26L118.05,115.72L118.53,123.33L119.02,113.85L119.5,114.19L119.99,116.64L120.47,115.63L120.96,117.72L121.45,113.35L121.93,120.44L122.42,121.06L122.9,117.39L123.39,124.58L123.88,121.42L124.36,113.07L125.33,118.92L125.82,117.26L126.3,110.03L126.79,114.36L127.28,117.26L127.76,114.74L128.73,114.38L129.22,112.51L129.7,115.19L130.19,126.98L130.68,118.9L131.16,121.53L131.65,121.79L132.62,125.78L133.11,123.61L133.59,118.58L134.08,124.37L134.56,120.65L135.05,123.66L135.53,128.01L136.02,127.07L136.51,118.81L136.99,125.55L137.48,120.73L137.96,118.66L138.45,121.47L138.93,124.22L139.42,119.66L139.91,126.09L140.39,124.38L140.88,116.47L141.36,117.26L141.85,122.89L142.82,121.55L143.31,127.39L143.79,119.14L144.28,124.16L145.74,133L146.22,127.79L146.71,132.9L147.19,125.9L147.68,123.79L148.16,127.06L148.65,129.41L149.14,120.44L149.62,136.38L150.11,125.11L151.56,133L152.05,124.68L153.02,133.26L153.51,126.62L153.99,125.58L154.48,128.55L154.97,127.06L155.45,131.39L155.94,127.16L156.42,129.64L156.91,128.11L157.39,132.92L157.88,134.29L158.37,132.39L158.85,136.55L159.34,136.07L159.82,131.22L160.31,130.35L160.79,132.62L162.25,130.2L162.74,131.44L163.22,133.26L163.71,132.46L164.2,147.04L165.17,132.25L165.65,131.94L166.62,137.36L167.11,131.35L167.6,129.45L168.08,134.79L168.57,137.93L169.05,127.98L169.54,139.04L170.02,133.12L170.51,136.49L171,135.19L171.48,142.95L173.43,138.02L173.91,142.55L174.4,139.56L174.88,140.78L175.37,140.05L176.34,135.82L176.83,138.37L177.31,143.52L177.8,141.65L178.28,137.67L178.77,134.97L179.25,139.27L179.74,136.59L180.23,140.42L181.68,131.02L182.17,135.2L182.66,133.01L183.14,137.1L183.63,148.12L184.11,143.35L184.6,148.12L185.08,138.64L185.57,144.82L186.54,146.09L187.03,144.51L188,141.82L188.48,146.07L189.46,139.46L189.94,142.99L190.91,148.24L191.4,142.92L192.37,141.27L192.86,142.87L193.34,138.31L193.83,143.1L194.31,142.04L194.8,142.43L195.29,145.94L195.77,140.98L196.26,144.31L197.23,149.53L197.71,147.93L198.69,146.22L199.17,147.16L199.66,156.81L200.14,153.24L200.63,155.17L201.11,147.07L201.6,155.2L202.09,154.4L202.57,147.36L203.06,152.7L203.54,149.61L204.03,144.16L204.52,149.29L205,144.92L205.49,147.75L206.46,142.05L206.94,143.79L207.43,147.12L207.92,146.93L208.4,143.44L208.89,141.87L209.37,143.92L209.86,153.3L210.34,151.31L210.83,155.99L211.8,152.21L212.29,154.2L214.72,149.08L215.2,153.2L215.69,151.1L216.17,157.35L216.66,158.81L217.15,153.45L217.63,152.16L218.12,146.04L219.09,152.35L219.57,152.22L220.06,150.38L220.55,149.72L221.03,159.49L221.52,148.43L222,154.01L222.49,146.9L223.46,163.43L223.95,160.05L224.43,161.84L224.92,157.5L225.89,160.58L226.38,158.68L226.86,165.27L227.35,153.39L228.32,159.49L228.8,154.95L229.29,160.58L229.78,148.38L230.26,151.65L230.75,162L231.23,153.41L231.72,155.11L232.21,158.45L233.18,152.54L233.66,157.36L235.12,154.45L235.61,147.49L236.58,166.52L237.06,167.19L238.52,163.13L239.01,165.5L239.49,163.2L239.98,168.3L240.46,167.38L240.95,162.35L241.92,165.53L242.41,160L242.89,159.23L243.38,167.31L243.86,155.7L244.35,160.66L244.84,169.1L245.81,158.88L246.29,160.73L246.78,159.37L247.26,153L247.75,153.81L248.24,158.77L248.72,156.06L249.21,169.34L250.67,175.11L251.15,165.81L251.64,168.79L252.12,165.52L252.61,168.8L253.09,165.94L254.07,169.07L254.55,167.12L255.04,164.59L255.52,168.05L256.01,161.14L256.49,169.52L257.47,163.66L257.95,172.5L258.92,160L259.41,168.07L259.89,161.33L260.38,162.05L260.87,159.5L261.84,164.29L262.32,174.48L262.81,172.34L263.3,177.65L264.27,170.25L264.75,177.27L265.24,172.37L265.72,172.94L266.21,171.85L267.18,177.84L267.67,172.45L268.15,171.58L268.64,172.17L269.12,169.55L269.61,172.81L270.1,168.41L270.58,172.44L271.07,171.38L271.55,166.89L272.04,171.75L272.53,167.78L273.5,161.65L273.98,168.82L274.47,166.07L274.95,167.55L275.44,178L275.93,179.46L276.41,178.08L276.9,178.1L277.38,185.48L277.87,176L278.35,181.42L278.84,177.1L279.33,178.77L279.81,176.24L280.3,177.99L280.78,174.81L281.76,173.79L282.24,176.33L282.73,166.59L283.21,177.49L283.7,170.63L284.18,176.57L284.67,175.54L285.16,172.32L285.64,172.59L286.13,170.2L286.61,168.51L287.1,173.62L287.58,167.38L288.07,168.15L288.56,182.7L289.04,185.31L289.53,182.33L290.5,190.22L290.99,183.38L291.47,183.54L291.96,182.35L292.44,183.51L292.93,179.42L293.9,181.42L294.39,180.95L294.87,175.95L295.36,178.95L296.33,175.83L296.81,176.03L297.79,176.6L298.27,178.83L298.76,180.58L299.24,176.09L299.73,174.9L300.22,170.69L300.7,174.54L301.19,167.14L301.67,193.15L302.16,186.48L302.64,187.73L303.13,188.02L303.62,189.89L305.07,184.09L305.56,189.21L306.53,189.97L307.02,183.96L307.5,185.04L307.99,179.53L308.47,183.48L308.96,183.1L309.44,182.04L309.93,182.91L310.42,180.36L311.39,179.97L311.87,174.9L313.33,184.19L313.82,178.6L314.3,179.48L314.79,196.11L315.27,187.73L315.76,192.64L316.25,193.63L316.73,190.68L317.22,197.6L317.7,193.23L319.16,187.03L319.65,188.13L321.1,190.35L321.59,189.74L323.53,181.91L324.02,187.97L324.5,183.88L324.99,185.36L325.48,187.71L325.96,182.43L326.45,183L326.93,182.37L327.42,182.06L327.9,193.78L328.88,200.5L329.36,200.36L329.85,193.91L330.33,197.68L330.82,196.41L331.31,197.79L332.76,192.99L333.25,198.4L334.22,190.89L334.71,192.94L335.19,196.69L335.68,191.53L336.16,189.29L336.65,193.01L337.13,195.48L337.62,190.55L338.11,183.81L338.59,187.56L339.56,184.24L340.05,186.76L340.54,191.05L341.02,203.78L341.51,202.24L341.99,204.33L342.48,205.86L342.96,204.37L343.45,201.73L343.94,203.22L344.42,198.48L344.91,201.08L345.39,201.2L346.36,200.81L346.85,196.75L347.34,198.3L347.82,197.33L348.31,196.87L348.79,198.49L349.77,191.55L350.25,195.67L350.74,191.42L351.22,195.81L351.71,192.37L352.19,195.72L352.68,189.7L353.17,193.26L353.65,190.66L354.14,211.39L354.62,207.37L355.11,207.8L355.59,210.29L356.08,212.71L356.57,209.74L357.05,204.05L357.54,206.77L358.02,209.75L358.51,201.67L359,204.49L359.48,206.16L359.97,203.5L360.45,205.9L362.4,194.72L362.88,202.03L363.37,196.9L363.85,198.86L364.34,198.58L364.82,197.09L365.31,198.47L366.28,191.34L366.77,196.67L367.74,210.25L368.22,210.13L369.2,210.93L369.68,213.28L370.17,213.4L370.65,205.71L371.63,210.66L372.11,206.12L372.6,210.21L373.08,208.24L373.57,208.91L374.54,201.8L375.03,209.15L375.51,203.86L376,205.25L376.48,205.12L376.97,200.4L377.45,204.04L377.94,204.69L378.43,196.95L379.88,200.88L380.37,218.52L380.86,222.94L381.34,217.27L382.31,217.67L382.8,217.88L383.28,214.54L383.77,220.87L385.23,210.81L385.71,214.84L386.2,209.26L386.68,213.87L387.17,207.6L387.66,212.45L389.11,203.32L389.6,206.99L390.09,207.65L390.57,200.87L391.06,207.42L391.54,205.28L392.03,202.48L393,204.53"/></g><g class="points"/><g class="text"/></g><g class="trace scatter trace1ee987" style="stroke-miterlimit: 2; opacity: 1;"><g class="fills"/><g class="errorbars"/><g class="lines"><path class="js-line" style="vector-effect: none; fill: none; stroke: rgb(255, 0, 0); stroke-opacity: 1; stroke-width: 2px; opacity: 1;" d="M0,84.22L1.94,99.04L2.43,97.74L4.37,103.77L4.86,101.5L5.34,97.91L5.83,100.34L6.32,100.23L6.8,98.19L7.77,102.61L8.26,100.1L8.74,102.72L9.23,102.28L9.72,101.64L10.69,100.2L11.17,101.54L12.14,105.3L12.63,99.91L15.06,102.41L15.55,100.69L16.03,103.42L16.52,101.09L17,101.64L17.49,100.69L17.97,100.23L18.46,102.52L18.95,100.31L19.43,104.35L20.89,100.03L21.37,100.17L21.86,100.88L22.35,103.05L22.83,104.1L23.32,102.51L23.8,104.4L24.29,100.83L24.78,106.83L25.26,102.22L26.23,102.14L26.72,103.35L27.2,104.48L27.69,103.4L28.18,102.08L28.66,102.42L29.15,103.54L29.63,106.35L30.12,105.22L30.6,104.15L31.58,108.42L32.06,102.23L33.03,111.91L33.52,108.43L34,105.35L34.49,110.81L34.98,105.62L35.46,109.96L35.95,110L36.43,117.97L37.41,105.95L37.89,108.67L39.35,116.81L39.83,114.82L40.32,112.15L40.81,114.05L41.29,112.03L41.78,117.67L42.26,120.88L42.75,114.85L44.21,122.71L44.69,111.28L45.18,118.6L45.66,112.15L46.15,127.12L46.64,115.93L47.12,117.51L47.61,113.3L48.09,112.93L48.58,123.46L49.06,117.51L49.55,119.57L50.04,116.7L50.52,128.98L51.01,118.64L51.49,120.47L51.98,115.96L52.46,124.2L52.95,121.42L53.44,117.16L53.92,127.5L54.41,119.05L54.89,120.36L55.38,126.69L55.87,116.26L56.35,120.61L56.84,125.7L57.32,124.53L57.81,126.72L58.29,124.93L58.78,120.08L59.27,122.03L59.75,129.94L60.24,123.49L60.72,131.86L61.69,121.51L62.18,117.67L63.15,120.63L63.64,116.86L66.07,134.64L66.55,129.22L67.04,137.14L67.52,131.02L68.5,129.45L68.98,132.41L69.47,126.43L69.95,130.17L70.44,121.07L70.92,126.94L71.41,127.77L71.9,121.26L72.38,134.45L72.87,124.43L73.35,118.36L73.84,131.15L74.33,125.52L74.81,129.77L75.3,126.96L75.78,134.26L76.27,124.33L76.75,134.25L78.21,120.09L78.7,126.55L79.18,127.33L79.67,132.52L80.15,131.16L80.64,134.04L81.13,140.06L81.61,134.91L82.1,131.06L82.58,144.52L85.01,131.61L85.5,132.92L85.98,135.64L86.47,133.08L86.96,143.41L87.44,134.15L87.93,141.48L88.41,141.13L88.9,137.21L89.38,150L89.87,138.95L90.84,147.55L91.33,142.46L91.81,146.16L92.3,143L92.78,143.1L93.27,148.77L93.76,142.33L94.24,145.93L94.73,147.94L95.21,146.89L95.7,156.85L96.67,142.86L97.16,148.75L97.64,140.01L98.13,151.98L98.61,143.24L99.1,150.7L99.59,153.69L100.07,148.12L100.56,155.2L101.04,148.61L102.01,138.17L102.5,146.32L102.99,151.8L103.47,147.98L103.96,144.41L104.44,146.11L104.93,159.8L105.42,149.01L105.9,150.13L106.39,152.64L107.84,164.32L108.33,147.65L109.3,161.66L109.79,161.64L110.27,151.61L110.76,152.87L111.24,147.12L112.22,156.97L112.7,157.15L113.19,155.4L113.67,155.73L114.16,155.58L114.65,150.38L115.13,151.15L115.62,152.46L117.07,151.72L117.56,147.55L119.02,167.91L119.5,164.32L119.99,168.17L120.47,158.23L120.96,163.97L121.45,158.05L122.9,163.93L123.39,157.26L123.88,162.42L124.36,160.71L124.85,162.03L125.33,161.07L125.82,162.32L126.3,166.4L126.79,158.12L127.28,153.11L127.76,160.26L128.73,170.5L129.22,162.53L129.7,156.37L130.19,160.18L130.68,153.5L131.16,160.38L131.65,167.81L132.13,165.95L132.62,168.14L133.11,161.01L133.59,169.48L134.08,162.31L134.56,165.69L135.05,172.28L136.51,161.92L136.99,173.95L138.45,164.77L138.93,167.35L139.91,176.11L140.39,164.43L140.88,172.67L141.36,165.27L142.82,163.14L143.31,168.01L144.76,180.22L145.25,178.4L145.74,171.24L146.22,177.87L146.71,172.59L147.19,163.54L147.68,170.14L148.16,186.31L148.65,170.1L149.14,169.83L149.62,178.89L150.11,179.39L150.59,164.57L152.05,173.62L152.54,165.63L153.02,172.57L153.51,170.11L153.99,175.45L154.48,176.74L154.97,162.26L155.94,172.34L156.42,166.39L156.91,180.24L157.39,163.92L157.88,180.5L158.37,171.27L159.34,181.4L159.82,177.45L160.31,181.08L160.79,176.12L161.28,172.91L161.77,175.45L162.25,175.26L162.74,171.96L163.71,186.08L164.2,177.57L164.68,170.11L165.17,185.81L166.14,174.45L166.62,181.83L167.6,180.05L168.08,175.24L168.57,175.44L169.05,169.7L169.54,171.87L170.02,179.3L170.51,184.44L171,181.76L171.48,184.88L172.45,180.05L172.94,170.64L174.4,192.67L174.88,174.82L175.37,172.02L175.85,194.66L176.83,173.81L177.31,184.14L178.28,178.86L178.77,186.82L179.25,185.02L179.74,175.85L180.71,182.93L181.2,173.86L182.17,186.12L182.66,172.47L183.14,185.34L183.63,179.77L184.11,177.72L184.6,193.82L185.08,187.33L185.57,182.56L186.06,188.53L186.54,184.44L187.03,198.11L187.51,190.81L188,186.41L188.48,194.76L188.97,170.37L190.43,184.84L190.91,181.71L191.4,191.23L191.89,190.29L192.37,193.71L192.86,192.2L193.34,185.73L193.83,172.95L194.31,179.09L194.8,182.55L195.29,178.71L195.77,199.05L196.26,176.13L196.74,188.08L197.23,189.23L197.71,183.12L198.2,193.81L199.17,187.35L199.66,187.99L200.63,193.93L201.11,185.01L201.6,182.1L202.09,188.84L202.57,184.53L203.06,202.73L204.03,182.03L204.52,186.91L205,205.25L205.49,185.54L205.97,185.63L206.46,201.23L207.43,184.5L207.92,194.98L208.4,173.18L208.89,186.51L209.37,182.3L209.86,198.36L210.34,192.39L210.83,197.95L211.32,189.5L211.8,198.96L212.29,194.65L212.77,205.63L213.26,188.96L213.75,200.26L214.23,198.87L214.72,199.05L215.2,194.78L215.69,197.26L216.17,187.96L216.66,190.4L217.15,186.7L217.63,186.68L218.12,192.14L219.09,183.65L219.57,197.56L220.06,194.11L220.55,181.38L221.03,184.58L221.52,195.2L222,189.71L222.49,195.33L222.98,194.1L223.46,197.5L223.95,198.11L224.43,209.73L225.4,193.78L225.89,193.87L226.38,199.19L226.86,202.53L227.35,196.91L227.83,199.22L228.32,194.78L228.8,197.64L229.29,192.88L229.78,193.49L230.26,207.47L230.75,188.88L231.23,192.11L231.72,192.79L232.21,199.48L232.69,194.08L233.18,195.95L233.66,195.33L234.15,191.42L234.63,208.95L235.12,186.78L237.06,209.16L237.55,202.16L238.52,204.35L239.01,193.2L240.46,207.38L240.95,204.32L241.44,210.15L241.92,194.19L242.41,200.45L242.89,199.15L243.38,200.32L243.86,188.4L244.35,199.21L245.32,193.94L245.81,194.76L246.29,211.64L247.26,196.09L247.75,197.92L248.24,191.66L248.72,194.99L249.21,198.42L249.69,205.63L250.18,205.57L250.67,205.05L251.15,199.21L251.64,217.08L252.61,199.43L253.09,201.8L253.58,210.91L254.07,203.04L254.55,206.36L255.04,212.34L255.52,200.67L256.01,203.51L256.49,199L256.98,209.81L257.47,198.73L257.95,198.52L258.44,203.35L258.92,204.32L259.41,207.23L259.89,204.05L260.38,205.73L260.87,205.86L261.35,195.26L261.84,204.69L262.32,219.17L262.81,208.2L263.3,218.86L263.78,214.22L264.27,213.49L264.75,221.65L265.24,215.24L266.21,213.4L266.7,201.54L267.18,210.3L267.67,202.8L268.15,215.24L268.64,201.76L269.12,214.52L269.61,205.45L270.58,211.85L271.07,198.41L272.04,200.42L272.53,203.75L273.01,196.36L273.5,200.86L273.98,195.46L274.47,200.15L275.44,224.42L275.93,220.79L276.41,216.82L277.87,215.21L278.35,204.79L279.33,223.91L279.81,210.27L280.3,214.53L280.78,207.18L281.27,217.9L281.76,203.7L282.24,211.84L282.73,206.04L283.21,204.08L283.7,212.44L284.18,213.09L284.67,209.61L285.16,208.35L285.64,210.47L286.13,210.47L286.61,209.03L287.1,202.38L287.58,205.28L288.07,215.2L288.56,221.19L289.04,213.91L290.01,230.71L290.5,218.73L290.99,221.53L291.47,219.88L291.96,215.23L292.44,217L292.93,215.86L293.9,225.05L294.39,220.14L294.87,207.72L295.36,210.93L295.84,214.08L297.3,211.74L297.79,218.04L298.27,211.14L298.76,217.99L299.24,202.62L299.73,211.62L300.22,210.06L300.7,215.31L301.19,200.74L301.67,225.57L302.16,218.02L302.64,221.64L303.13,228.64L303.62,223.6L304.1,227.71L304.59,217.53L305.07,221.25L305.56,225.54L306.04,233.33L306.53,213.93L307.02,211.58L307.5,215.97L307.99,225.12L308.47,212.6L309.44,218.99L309.93,214.75L310.42,222.47L310.9,208.57L311.39,220.24L311.87,218.81L312.36,212.58L312.85,215.49L313.33,215.11L313.82,216.01L314.3,220.25L314.79,231.74L315.27,226.75L315.76,231.82L316.25,226.59L316.73,233.95L317.22,235.11L317.7,244.24L318.67,220.65L319.16,227.58L319.65,234.43L320.13,218.81L320.62,217.35L321.1,217.59L321.59,212.88L322.56,225.3L323.05,216.23L323.53,228.12L324.02,218.16L324.5,214.37L324.99,221.05L325.48,220.24L325.96,206.05L326.45,212.37L326.93,210.99L327.42,213.18L327.9,234.63L328.39,227.11L328.88,227.54L329.85,232.72L330.33,232.43L330.82,228.72L331.31,230.63L331.79,227.97L332.28,222.74L332.76,236.27L333.25,235.11L333.73,224.17L334.22,223.33L334.71,229.79L335.68,220.2L336.16,226.68L336.65,222.25L337.13,228.79L338.11,220.08L338.59,222.23L339.08,225.03L339.56,216.85L340.05,227.55L340.54,218.47L341.51,235.65L341.99,236.38L342.96,235.17L343.45,239.82L343.94,228.62L344.42,233.27L344.91,234.84L345.39,237.71L345.88,236.93L346.36,236.88L346.85,227.97L347.34,234.46L347.82,227.44L348.31,229.94L348.79,226.09L349.28,223.07L349.77,232.14L350.25,226.01L350.74,226.53L351.22,227.9L351.71,226.51L352.19,221.04L353.17,217.22L353.65,224.79L354.62,245.09L355.11,245.7L356.08,241.45L356.57,250.36L358.02,229.89L358.51,235.5L359,241.96L359.48,237.41L361.42,226.97L361.91,237.99L362.88,235.8L363.37,226.71L363.85,231.29L364.34,222.21L365.31,225.81L365.8,222.61L366.28,218.24L366.77,229.59L368.22,256.5L368.71,239.4L369.2,247.81L369.68,239.87L370.17,241.63L370.65,247.77L371.14,234.32L371.63,243.35L372.11,234.04L372.6,237.74L373.08,237.02L373.57,236.8L374.05,239.29L374.54,231.75L375.03,238.91L375.51,242.61L376,231.83L376.48,243.01L376.97,238.43L377.45,222.61L378.43,240.92L378.91,235.66L379.88,225.33L380.37,241.91L380.86,244.07L381.34,255.2L382.31,241.65L382.8,248.35L383.28,242.58L383.77,254.79L384.26,238.48L384.74,242.86L385.23,245.14L385.71,238.53L386.2,246.75L386.68,234.72L387.17,241.12L387.66,250.14L388.14,238.11L388.63,243.3L389.11,242.93L389.6,231.54L390.09,235.5L390.57,240.38L391.06,234.07L391.54,245.35L393,237.27"/></g><g class="points"/><g class="text"/></g><g class="trace scatter trace09e3f0" style="stroke-miterlimit: 2; opacity: 1;"><g class="fills"/><g class="errorbars"/><g class="lines"><path class="js-line" style="vector-effect: none; fill: none; stroke: rgb(0, 0, 255); stroke-opacity: 1; stroke-width: 2px; opacity: 1;" d="M0,14.22L1.94,39.66L2.43,44.53L2.91,50.31L3.4,39.96L3.89,42.3L4.37,40.47L4.86,39.95L5.34,45.21L5.83,49.04L6.32,45.74L6.8,43.91L7.29,36.96L7.77,38.47L8.26,43.7L8.74,42.29L9.23,46.44L9.72,41.77L10.2,49.35L11.17,36.5L11.66,40.38L12.63,42.89L13.12,47.1L14.09,47.54L14.57,41.2L15.06,41.48L15.55,40.02L16.03,46.16L16.52,42.53L17,44.07L17.49,39.92L17.97,46.06L18.46,44.28L18.95,41.43L19.92,48.59L20.4,42.57L21.37,49.23L21.86,39.36L22.35,46.44L22.83,42.33L23.32,40.52L23.8,43.24L24.78,48.9L25.26,42.26L26.72,45.63L27.2,54.44L28.18,44.91L28.66,47.7L29.15,38.94L29.63,39.23L30.12,52.8L30.6,44.9L31.09,51.84L31.58,42.24L32.06,44.12L32.55,40.58L33.03,40.23L33.52,46L34,40.99L34.49,47.82L34.98,48.27L35.46,39.24L35.95,38.28L36.43,44.8L36.92,41.85L37.41,47.77L37.89,46.49L38.38,48.72L39.83,42.97L40.32,42.95L41.29,40.94L41.78,47.29L42.26,42.3L42.75,45.21L43.23,47.89L43.72,42.33L44.21,43.73L44.69,42.69L45.66,51.42L46.15,48.67L46.64,45.57L47.12,52.98L48.09,44.04L48.58,46.87L49.06,44.92L49.55,45.74L50.04,46.36L50.52,43.22L51.01,45.03L51.49,45.38L51.98,43.04L53.44,50.6L53.92,53.02L55.38,43.15L55.87,42.34L56.35,41.45L56.84,47L57.32,44.65L57.81,47.09L58.78,45.74L59.27,50.02L59.75,44.92L60.24,48.71L61.69,40.97L62.18,46.46L63.15,39.79L63.64,47.08L65.1,41.28L65.58,46.86L66.07,46.71L66.55,42.97L67.04,50.07L67.52,45.58L68.01,49.13L68.5,48.29L68.98,43.38L69.47,40.19L69.95,43.84L70.44,51.62L70.92,39.5L71.41,49.07L71.9,42.06L72.38,45.88L72.87,41.14L73.84,46.19L74.33,43.86L74.81,46.61L75.3,42.93L76.27,48.89L76.75,48.04L77.24,43.63L77.73,48.99L78.21,46.23L78.7,47.66L79.18,46.05L79.67,45.89L80.15,47.7L80.64,42.53L81.13,48.66L81.61,48.05L82.1,41.71L83.07,49.49L83.56,47.76L84.04,44.89L84.53,49.92L85.5,40.45L85.98,43.57L87.44,47.35L87.93,48.52L88.41,41.37L88.9,50.36L89.87,42.51L90.36,45.61L90.84,44.12L91.33,45.57L91.81,50.8L92.3,49.5L92.78,46.21L93.27,44.62L93.76,46.16L94.24,46L94.73,44.43L95.21,47.07L95.7,44.86L96.67,42.76L97.16,44.2L97.64,43.58L98.13,48.07L98.61,40.01L99.1,46.66L100.07,44.35L100.56,45.67L101.04,46.79L101.53,45.01L102.5,51.66L102.99,48.33L103.47,41.2L103.96,52.66L104.44,43.77L104.93,45.48L105.42,49.87L106.39,40.4L106.87,45.93L107.36,44.24L107.84,44.6L108.33,46.03L109.3,40.15L109.79,44.89L110.27,51.64L110.76,47.99L111.24,41.6L111.73,52.26L112.22,49.93L112.7,52.97L113.19,44.06L113.67,51.57L115.13,39.57L115.62,48.07L116.1,49.29L116.59,48.27L117.56,41.8L118.05,44.35L119.02,43.77L119.5,42.94L119.99,48.19L120.47,46.63L120.96,43.79L121.45,49.54L121.93,43.38L122.9,53.65L123.39,46.44L123.88,45.53L124.36,46.77L124.85,48.49L125.33,46.97L125.82,53.46L126.3,43.62L126.79,40.47L127.28,45.18L127.76,47.47L128.25,47.29L128.73,44.93L129.22,45.51L129.7,47.44L130.68,43.42L131.16,44.14L131.65,46.92L132.13,46.09L132.62,42.68L133.11,42.79L133.59,47.05L134.08,50.23L134.56,46.99L135.05,41.78L135.53,48.82L136.02,42.19L136.51,51.41L136.99,47.05L137.48,47.39L137.96,50.71L138.45,44.99L138.93,45.32L139.42,47.4L139.91,47.89L140.39,43.54L141.36,44.06L141.85,48.18L142.82,46.67L143.31,49.95L143.79,40.03L144.28,44.58L144.76,47.02L145.25,46.28L145.74,51.76L146.71,45.82L147.19,47.22L147.68,46.42L148.65,45.1L149.14,42.02L149.62,42.72L150.11,47.85L150.59,49.78L151.08,43.78L151.56,43.16L152.05,44.58L152.54,46.15L153.02,45.53L153.51,43.63L153.99,48.11L154.48,42.33L154.97,48.25L155.45,47.95L155.94,39.83L156.42,52.34L156.91,44.83L157.39,43.16L157.88,46.26L158.37,47.58L158.85,39.47L159.34,40.48L159.82,50.21L160.31,45.11L160.79,46.05L161.28,44.17L161.77,43.25L162.25,43.69L162.74,45.6L163.22,50.19L163.71,45.69L164.2,52.93L164.68,45.92L165.17,45.43L165.65,47.22L166.14,46.04L166.62,38.78L167.11,46.85L167.6,43.39L168.08,49.13L168.57,50.95L169.05,49.22L169.54,47.41L170.02,52.5L171.48,38.9L171.97,51.15L173.43,44.71L173.91,44.24L174.88,47.8L175.37,46.33L175.85,48.22L176.34,44.21L176.83,45.08L177.31,44.17L177.8,49.75L178.28,45.74L178.77,45.12L179.25,51.14L179.74,46.22L180.23,53.03L181.2,44.26L181.68,47.82L183.14,41.77L183.63,48.22L184.11,48.05L184.6,47L185.08,48.36L185.57,46.73L186.06,45.22L186.54,47.02L187.03,47.12L187.51,40.18L188.48,47.14L188.97,46.04L189.46,42.2L189.94,46.13L190.43,51.1L190.91,41.41L191.89,48.93L192.37,46.67L193.34,49.41L193.83,44.08L194.31,43.49L194.8,49.09L195.29,48.05L195.77,43.46L196.26,46.54L196.74,42.18L197.23,51.32L197.71,48.27L198.2,44.34L198.69,42.54L199.17,52.35L199.66,51.28L200.14,45.68L200.63,45.58L201.11,47.42L201.6,50.59L202.09,42.78L202.57,48.1L203.06,47.2L203.54,47.99L204.03,47.98L204.52,42.96L205,49.31L205.49,48.32L205.97,44.43L206.46,43.17L206.94,45.2L207.43,47.41L207.92,42.65L208.89,49.45L209.37,47.19L209.86,44.12L210.34,47.24L210.83,43.31L211.32,50.23L212.29,45.6L212.77,47.03L213.26,45.68L213.75,47.51L214.23,48.85L214.72,42.01L216.17,52.27L216.66,45.33L217.15,51.42L217.63,44.47L218.12,42.25L218.6,50.48L220.06,47.07L220.55,52.28L221.03,52.97L221.52,47.98L222.49,48.51L222.98,46.13L223.46,57.31L223.95,45.6L224.43,52.39L224.92,46.57L225.4,45.17L225.89,51.61L226.38,47.26L226.86,49.2L227.35,45.6L227.83,46.53L228.32,45.28L228.8,42.81L229.29,50.4L229.78,43.61L230.26,46.79L230.75,47.06L231.23,44.98L231.72,49.91L232.21,47.62L232.69,48.99L233.18,47.42L233.66,41.96L234.15,42.08L234.63,47.9L235.12,45.05L235.61,46.41L236.09,49.85L237.55,46.06L238.03,47.47L238.52,43.63L239.01,46.4L239.49,44.97L239.98,50.53L240.46,47.7L240.95,50.21L241.44,52.91L241.92,47.93L242.41,49.68L242.89,46.92L243.38,46L243.86,47.06L244.35,40.06L244.84,44.71L245.32,43.78L245.81,46.48L246.29,44.22L246.78,46.17L247.75,42.49L248.24,45.9L248.72,50.01L249.21,46.07L249.69,50L250.18,46.89L251.15,44.21L251.64,49.76L252.12,49.49L252.61,44.68L253.09,48.97L253.58,48.16L254.07,44.31L255.04,49.79L255.52,46.8L256.01,50.02L256.49,45.9L256.98,41.62L257.47,45.95L258.44,48.75L258.92,45.3L259.41,45.46L259.89,46.5L260.38,48.62L260.87,41.73L261.35,46.28L261.84,45.99L262.32,43.01L263.78,54.5L264.27,44.22L264.75,44.99L265.24,44.29L266.7,47.74L267.18,46.35L267.67,48.09L268.15,42.6L268.64,42.87L269.12,47.45L269.61,48.47L270.1,45.91L270.58,47.06L271.07,45.81L271.55,49.09L272.04,48.97L272.53,48.24L273.01,45.77L273.5,49.96L273.98,43.84L274.47,48.73L274.95,49.09L275.44,46.56L275.93,44.84L276.41,47.77L276.9,46.57L277.38,47.73L277.87,51.54L278.35,46.78L278.84,40.29L279.33,45.64L279.81,42.76L280.3,48.61L280.78,45.46L281.27,50.89L281.76,46.32L282.24,48.09L282.73,47.3L283.7,49.16L284.18,45.06L284.67,46.21L285.16,45.93L285.64,51.26L286.13,44L286.61,51.97L287.58,40.45L288.07,46.72L288.56,48.59L289.04,47.45L289.53,47.1L290.01,47.71L290.5,46.86L290.99,50.53L291.47,47.01L291.96,50.77L292.44,52.24L292.93,44.56L293.41,51.78L293.9,45.39L294.39,48.09L294.87,43.48L295.36,42.73L295.84,44.3L296.33,48.2L296.81,44.8L297.3,46.43L297.79,45.36L298.27,42.33L298.76,45.33L299.24,47.46L299.73,45.57L301.19,46.58L301.67,45.31L302.16,50.68L302.64,47.47L303.13,43.73L303.62,44.8L304.1,51.07L304.59,54.22L305.07,47.39L306.04,43.86L306.53,47.45L307.5,43.36L307.99,52.81L308.47,44.75L308.96,46.52L309.44,43.32L309.93,48.26L310.42,42.62L310.9,48.18L311.39,43.61L312.36,48.94L312.85,45.08L313.33,51.71L313.82,46.36L314.3,46.04L314.79,49.75L315.27,45.16L315.76,47.9L316.25,44.3L316.73,52.02L317.7,44.39L318.19,47.77L319.16,49.4L319.65,48.86L320.62,45.51L321.1,47.27L322.08,46.85L322.56,47.14L323.05,39.77L323.53,49.55L324.5,46.32L324.99,45.3L325.48,46.47L325.96,45.17L326.45,44.93L326.93,49.2L327.42,49.81L327.9,47.37L328.88,46.65L329.36,46.96L329.85,51.09L330.33,50.37L330.82,44.16L331.31,44.71L331.79,49.15L332.76,43.65L333.25,47.97L334.22,45.37L334.71,46.2L335.19,46.04L335.68,43.12L336.65,47.94L337.13,46.18L337.62,48.22L338.11,45.86L338.59,50.2L339.08,50.12L339.56,48.66L341.02,42.27L341.51,46L342.48,53.21L342.96,43.98L343.45,52.18L343.94,52.03L344.42,44.68L344.91,53.54L345.39,48.21L346.85,48.46L347.34,42.8L348.79,47.9L349.28,48.25L349.77,42.09L350.25,43.56L350.74,49.35L352.19,43.45L352.68,44.94L353.17,44L353.65,49.43L354.14,52.91L354.62,46.23L355.11,52.96L355.59,48.97L356.57,44.61L357.05,48.74L357.54,47.37L358.02,51.47L359.48,41.09L359.97,45.98L360.45,47.37L360.94,53.96L361.42,42.61L361.91,46.17L362.4,44.33L362.88,48.84L363.37,45.21L363.85,47.29L364.34,45.47L364.82,45.76L365.31,45.17L365.8,44.9L366.28,43.17L366.77,48.72L367.25,47.85L367.74,42.44L368.22,54.55L368.71,48.05L369.2,46.56L369.68,51.73L370.17,49.53L370.65,43.68L371.14,45.45L371.63,43.9L372.6,51.19L373.08,49.41L373.57,40.56L374.05,49.56L374.54,45.13L375.03,48.53L375.51,48.15L376,45.32L376.97,51.01L377.45,46.8L378.91,45.8L379.4,46.27L379.88,45.52L380.37,48.29L382.8,52L383.28,49.18L384.74,51.75L385.23,49.51L385.71,62.32L386.2,57.79L386.68,46.32L387.17,59.61L387.66,55.22L388.14,55.47L388.63,57.63L389.11,55.43L389.6,52.88L390.09,60.08L391.06,52.5L391.54,62.62L392.03,53.86L392.51,53.96L393,59.77"/></g><g class="points"/><g class="text"/></g></g></g><g class="overplot"/><path class="xlines-above crisp" style="fill: none; stroke-width: 1px; stroke: rgb(68, 68, 68); stroke-opacity: 1;" d="M79,370.5H473"/><path class="ylines-above crisp" style="fill: none; stroke-width: 1px; stroke: rgb(68, 68, 68); stroke-opacity: 1;" d="M79.5,100V370"/><g class="overlines-above"/><g class="xaxislayer-above"><path class="xtick ticks crisp" style="stroke: rgb(68, 68, 68); stroke-opacity: 1; stroke-width: 1px;" d="M0,371v5" transform="translate(80,0)"/><path class="xtick ticks crisp" style="stroke: rgb(68, 68, 68); stroke-opacity: 1; stroke-width: 1px;" d="M0,371v5" transform="translate(177.16,0)"/><path class="xtick ticks crisp" style="stroke: rgb(68, 68, 68); stroke-opacity: 1; stroke-width: 1px;" d="M0,371v5" transform="translate(274.31,0)"/><path class="xtick ticks crisp" style="stroke: rgb(68, 68, 68); stroke-opacity: 1; stroke-width: 1px;" d="M0,371v5" transform="translate(371.47,0)"/><path class="xtick ticks crisp" style="stroke: rgb(68, 68, 68); stroke-opacity: 1; stroke-width: 1px;" d="M0,371v5" transform="translate(468.63,0)"/><g class="xtick"><text text-anchor="middle" x="0" y="390.4" style="font-family: TOBESTRIPPEDOpen SansTOBESTRIPPED, verdana, arial, sans-serif; font-size: 12px; fill: rgb(68, 68, 68); fill-opacity: 1; white-space: pre; opacity: 1;" transform="translate(80,0)">0</text></g><g class="xtick"><text text-anchor="middle" x="0" y="390.4" style="font-family: TOBESTRIPPEDOpen SansTOBESTRIPPED, verdana, arial, sans-serif; font-size: 12px; fill: rgb(68, 68, 68); fill-opacity: 1; white-space: pre; opacity: 1;" transform="translate(177.16,0)">200</text></g><g class="xtick"><text text-anchor="middle" x="0" y="390.4" style="font-family: TOBESTRIPPEDOpen SansTOBESTRIPPED, verdana, arial, sans-serif; font-size: 12px; fill: rgb(68, 68, 68); fill-opacity: 1; white-space: pre; opacity: 1;" transform="translate(274.31,0)">400</text></g><g class="xtick"><text text-anchor="middle" x="0" y="390.4" style="font-family: TOBESTRIPPEDOpen SansTOBESTRIPPED, verdana, arial, sans-serif; font-size: 12px; fill: rgb(68, 68, 68); fill-opacity: 1; white-space: pre; opacity: 1;" transform="translate(371.47,0)">600</text></g><g class="xtick"><text text-anchor="middle" x="0" y="390.4" style="font-family: TOBESTRIPPEDOpen SansTOBESTRIPPED, verdana, arial, sans-serif; font-size: 12px; fill: rgb(68, 68, 68); fill-opacity: 1; white-space: pre; opacity: 1;" transform="translate(468.63,0)">800</text></g></g><g class="yaxislayer-above"><path class="ytick ticks crisp" style="stroke: rgb(68, 68, 68); stroke-opacity: 1; stroke-width: 1px;" d="M79,0h-5" transform="translate(0,317.40999999999997)"/><path class="ytick ticks crisp" style="stroke: rgb(68, 68, 68); stroke-opacity: 1; stroke-width: 1px;" d="M79,0h-5" transform="translate(0,253.77)"/><path class="ytick ticks crisp" style="stroke: rgb(68, 68, 68); stroke-opacity: 1; stroke-width: 1px;" d="M79,0h-5" transform="translate(0,190.13)"/><path class="ytick ticks crisp" style="stroke: rgb(68, 68, 68); stroke-opacity: 1; stroke-width: 1px;" d="M79,0h-5" transform="translate(0,126.5)"/><g class="ytick"><text text-anchor="end" x="71.6" y="4.199999999999999" style="font-family: TOBESTRIPPEDOpen SansTOBESTRIPPED, verdana, arial, sans-serif; font-size: 12px; fill: rgb(68, 68, 68); fill-opacity: 1; white-space: pre; opacity: 1;" transform="translate(0,317.40999999999997)">5</text></g><g class="ytick"><text text-anchor="end" x="71.6" y="4.199999999999999" style="font-family: TOBESTRIPPEDOpen SansTOBESTRIPPED, verdana, arial, sans-serif; font-size: 12px; fill: rgb(68, 68, 68); fill-opacity: 1; white-space: pre; opacity: 1;" transform="translate(0,253.77)">6</text></g><g class="ytick"><text text-anchor="end" x="71.6" y="4.199999999999999" style="font-family: TOBESTRIPPEDOpen SansTOBESTRIPPED, verdana, arial, sans-serif; font-size: 12px; fill: rgb(68, 68, 68); fill-opacity: 1; white-space: pre; opacity: 1;" transform="translate(0,190.13)">7</text></g><g class="ytick"><text text-anchor="end" x="71.6" y="4.199999999999999" style="font-family: TOBESTRIPPEDOpen SansTOBESTRIPPED, verdana, arial, sans-serif; font-size: 12px; fill: rgb(68, 68, 68); fill-opacity: 1; white-space: pre; opacity: 1;" transform="translate(0,126.5)">8</text></g></g><g class="overaxes-above"/></g></g><g class="polarlayer"/><g class="smithlayer"/><g class="ternarylayer"/><g class="geolayer"/><g class="funnelarealayer"/><g class="pielayer"/><g class="iciclelayer"/><g class="treemaplayer"/><g class="sunburstlayer"/><g class="glimages"/><defs id="topdefs-724499"><g class="clips"/><clipPath id="legend724499"><rect width="207" height="67" x="0" y="0"/></clipPath></defs><g class="layer-above"><g class="imagelayer"/><g class="shapelayer"/></g><g class="infolayer"><g class="legend" pointer-events="all" transform="translate(480.86,100)"><rect class="bg" shape-rendering="crispEdges" style="stroke: rgb(68, 68, 68); stroke-opacity: 1; fill: rgb(255, 255, 255); fill-opacity: 1; stroke-width: 0px;" width="207" height="67" x="0" y="0"/><g class="scrollbox" transform="" clip-path="url(#legend724499)"><g class="groups"><g class="traces" style="opacity: 1;" transform="translate(0,14.5)"><text class="legendtext" text-anchor="start" style="font-family: TOBESTRIPPEDOpen SansTOBESTRIPPED, verdana, arial, sans-serif; font-size: 12px; fill: rgb(68, 68, 68); fill-opacity: 1; white-space: pre;" x="40" y="4.680000000000001">QUARTER-1H-OFF+2EMB</text><g class="layers" style="opacity: 1;"><g class="legendfill"/><g class="legendlines"><path class="js-line" d="M5,0h30" style="fill: none; stroke: rgb(144, 238, 144); stroke-opacity: 1; stroke-width: 2px;"/></g><g class="legendsymbols"><g class="legendpoints"/></g></g><rect class="legendtoggle" style="fill: rgb(0, 0, 0); fill-opacity: 0;" x="0" y="-9.5" width="201.88333129882812" height="19"/></g><g class="traces" style="opacity: 1;" transform="translate(0,33.5)"><text class="legendtext" text-anchor="start" style="font-family: TOBESTRIPPEDOpen SansTOBESTRIPPED, verdana, arial, sans-serif; font-size: 12px; fill: rgb(68, 68, 68); fill-opacity: 1; white-space: pre;" x="40" y="4.680000000000001">QUARTER-1H</text><g class="layers" style="opacity: 1;"><g class="legendfill"/><g class="legendlines"><path class="js-line" d="M5,0h30" style="fill: none; stroke: rgb(255, 0, 0); stroke-opacity: 1; stroke-width: 2px;"/></g><g class="legendsymbols"><g class="legendpoints"/></g></g><rect class="legendtoggle" style="fill: rgb(0, 0, 0); fill-opacity: 0;" x="0" y="-9.5" width="201.88333129882812" height="19"/></g><g class="traces" style="opacity: 1;" transform="translate(0,52.5)"><text class="legendtext" text-anchor="start" style="font-family: TOBESTRIPPEDOpen SansTOBESTRIPPED, verdana, arial, sans-serif; font-size: 12px; fill: rgb(68, 68, 68); fill-opacity: 1; white-space: pre;" x="40" y="4.680000000000001">QUARTER-1H-OFF</text><g class="layers" style="opacity: 1;"><g class="legendfill"/><g class="legendlines"><path class="js-line" d="M5,0h30" style="fill: none; stroke: rgb(0, 0, 255); stroke-opacity: 1; stroke-width: 2px;"/></g><g class="legendsymbols"><g class="legendpoints"/></g></g><rect class="legendtoggle" style="fill: rgb(0, 0, 0); fill-opacity: 0;" x="0" y="-9.5" width="201.88333129882812" height="19"/></g></g></g><rect class="scrollbar" rx="20" ry="3" width="0" height="0" style="fill: rgb(128, 139, 164); fill-opacity: 1;" x="0" y="0"/></g><g class="g-gtitle"><text class="gtitle" style="font-family: TOBESTRIPPEDOpen SansTOBESTRIPPED, verdana, arial, sans-serif; font-size: 17px; fill: rgb(68, 68, 68); opacity: 1; font-weight: normal; white-space: pre;" x="350" y="50" text-anchor="middle" dy="0em">train_loss</text></g><g class="g-xtitle"><text class="xtitle" style="font-family: TOBESTRIPPEDOpen SansTOBESTRIPPED, verdana, arial, sans-serif; font-size: 14px; fill: rgb(68, 68, 68); opacity: 1; font-weight: normal; white-space: pre;" x="276.5" y="422" text-anchor="middle">Steps</text></g><g class="g-ytitle"/></g></svg>