<svg class="main-svg" xmlns="http://www.w3.org/2000/svg" xmlns:xlink="http://www.w3.org/1999/xlink" width="700" height="450" style="" viewBox="0 0 700 450"><rect x="0" y="0" width="700" height="450" style="fill: rgb(255, 255, 255); fill-opacity: 1;"/><defs id="defs-9bae9b"><g class="clips"><clipPath id="clip9bae9bxyplot" class="plotclip"><rect width="393" height="270"/></clipPath><clipPath class="axesclip" id="clip9bae9bx"><rect x="80" y="0" width="393" height="450"/></clipPath><clipPath class="axesclip" id="clip9bae9by"><rect x="0" y="100" width="700" height="270"/></clipPath><clipPath class="axesclip" id="clip9bae9bxy"><rect x="80" y="100" width="393" height="270"/></clipPath></g><g class="gradients"/><g class="patterns"/></defs><g class="bglayer"/><g class="layer-below"><g class="imagelayer"/><g class="shapelayer"/></g><g class="cartesianlayer"><g class="subplot xy"><g class="layer-subplot"><g class="shapelayer"/><g class="imagelayer"/></g><g class="minor-gridlayer"><g class="x"/><g class="y"/></g><g class="gridlayer"><g class="x"><path class="xgrid crisp" transform="translate(167.32999999999998,0)" d="M0,100v270" style="stroke: rgb(238, 238, 238); stroke-opacity: 1; stroke-width: 1px;"/><path class="xgrid crisp" transform="translate(267.72,0)" d="M0,100v270" style="stroke: rgb(238, 238, 238); stroke-opacity: 1; stroke-width: 1px;"/><path class="xgrid crisp" transform="translate(368.1,0)" d="M0,100v270" style="stroke: rgb(238, 238, 238); stroke-opacity: 1; stroke-width: 1px;"/><path class="xgrid crisp" transform="translate(468.48,0)" d="M0,100v270" style="stroke: rgb(238, 238, 238); stroke-opacity: 1; stroke-width: 1px;"/></g><g class="y"><path class="ygrid crisp" transform="translate(0,359.95)" d="M80,0h393" style="stroke: rgb(238, 238, 238); stroke-opacity: 1; stroke-width: 1px;"/><path class="ygrid crisp" transform="translate(0,286.81)" d="M80,0h393" style="stroke: rgb(238, 238, 238); stroke-opacity: 1; stroke-width: 1px;"/><path class="ygrid crisp" transform="translate(0,213.67000000000002)" d="M80,0h393" style="stroke: rgb(238, 238, 238); stroke-opacity: 1; stroke-width: 1px;"/><path class="ygrid crisp" transform="translate(0,140.53)" d="M80,0h393" style="stroke: rgb(238, 238, 238); stroke-opacity: 1; stroke-width: 1px;"/></g></g><g class="zerolinelayer"/><path class="xlines-below"/><path class="ylines-below"/><g class="overlines-below"/><g class="xaxislayer-below"/><g class="yaxislayer-below"/><g class="overaxes-below"/><g class="plot" transform="translate(80,100)" clip-path="url(#clip9bae9bxyplot)"><g class="scatterlayer mlayer"><g class="trace scatter trace0fce60" style="stroke-miterlimit: 2; opacity: 1;"><g class="fills"/><g class="errorbars"/><g class="lines"><path class="js-line" style="vector-effect: none; fill: none; stroke: rgb(144, 238, 144); stroke-opacity: 1; stroke-width: 2px; opacity: 1;" d="M0,15.37L13.55,17.06L27.1,17.12L40.66,18.06L54.21,35.22L67.76,109.65L81.31,130.96L94.86,134.72L108.41,136.46L149.07,138.82L162.62,136.56L189.72,130.95L203.28,125.54L216.83,125.32L230.38,121.73L243.93,114L257.48,112.41L271.03,107.38L284.59,101.41L298.14,98.13L311.69,88.55L325.24,83.8L338.79,77.81L352.34,71.26L365.9,61.85L379.45,55.11L393,49.3"/></g><g class="points"/><g class="text"/></g><g class="trace scatter traced32882" style="stroke-miterlimit: 2; opacity: 1;"><g class="fills"/><g class="errorbars"/><g class="lines"><path class="js-line" style="vector-effect: none; fill: none; stroke: rgb(255, 0, 0); stroke-opacity: 1; stroke-width: 2px; opacity: 1;" d="M0,143.81L13.55,146.21L27.1,172.86L40.66,186.77L54.21,194.42L67.76,196.61L81.31,222.69L94.86,231.25L108.41,241.8L135.52,251.74L149.07,254.97L176.17,256.5L189.72,255.4L216.83,254.71L230.38,252.77L243.93,251.54L257.48,249.49L271.03,245.43L284.59,242.79L298.14,237.7L311.69,233.82L325.24,225.68L338.79,223.39L352.34,217.87L365.9,213.58L379.45,205.61L393,198.97"/></g><g class="points"/><g class="text"/></g><g class="trace scatter trace89048d" style="stroke-miterlimit: 2; opacity: 1;"><g class="fills"/><g class="errorbars"/><g class="lines"><path class="js-line" style="vector-effect: none; fill: none; stroke: rgb(0, 0, 255); stroke-opacity: 1; stroke-width: 2px; opacity: 1;" d="M0,13.5L13.55,15.75L27.1,16.82L94.86,18.3L108.41,17.86L149.07,18.64L162.62,18.83L176.17,18.43L189.72,18.94L203.28,18.87L216.83,34.17L230.38,18.14L243.93,18.77L298.14,19.04L311.69,19.02L365.9,18.97L379.45,19.78L393,45.78"/></g><g class="points"/><g class="text"/></g></g></g><g class="overplot"/><path class="xlines-above crisp" style="fill: none; stroke-width: 1px; stroke: rgb(68, 68, 68); stroke-opacity: 1;" d="M79,370.5H473"/><path class="ylines-above crisp" style="fill: none; stroke-width: 1px; stroke: rgb(68, 68, 68); stroke-opacity: 1;" d="M79.5,100V370"/><g class="overlines-above"/><g class="xaxislayer-above"><path class="xtick ticks crisp" style="stroke: rgb(68, 68, 68); stroke-opacity: 1; stroke-width: 1px;" d="M0,371v5" transform="translate(167.32999999999998,0)"/><path class="xtick ticks crisp" style="stroke: rgb(68, 68, 68); stroke-opacity: 1; stroke-width: 1px;" d="M0,371v5" transform="translate(267.72,0)"/><path class="xtick ticks crisp" style="stroke: rgb(68, 68, 68); stroke-opacity: 1; stroke-width: 1px;" d="M0,371v5" transform="translate(368.1,0)"/><path class="xtick ticks crisp" style="stroke: rgb(68, 68, 68); stroke-opacity: 1; stroke-width: 1px;" d="M0,371v5" transform="translate(468.48,0)"/><g class="xtick"><text text-anchor="middle" x="0" y="390.4" style="font-family: TOBESTRIPPEDOpen SansTOBESTRIPPED, verdana, arial, sans-serif; font-size: 12px; fill: rgb(68, 68, 68); fill-opacity: 1; white-space: pre; opacity: 1;" transform="translate(167.32999999999998,0)">200</text></g><g class="xtick"><text text-anchor="middle" x="0" y="390.4" style="font-family: TOBESTRIPPEDOpen SansTOBESTRIPPED, verdana, arial, sans-serif; font-size: 12px; fill: rgb(68, 68, 68); fill-opacity: 1; white-space: pre; opacity: 1;" transform="translate(267.72,0)">400</text></g><g class="xtick"><text text-anchor="middle" x="0" y="390.4" style="font-family: TOBESTRIPPEDOpen SansTOBESTRIPPED, verdana, arial, sans-serif; font-size: 12px; fill: rgb(68, 68, 68); fill-opacity: 1; white-space: pre; opacity: 1;" transform="translate(368.1,0)">600</text></g><g class="xtick"><text text-anchor="middle" x="0" y="390.4" style="font-family: TOBESTRIPPEDOpen SansTOBESTRIPPED, verdana, arial, sans-serif; font-size: 12px; fill: rgb(68, 68, 68); fill-opacity: 1; white-space: pre; opacity: 1;" transform="translate(468.48,0)">800</text></g></g><g class="yaxislayer-above"><path class="ytick ticks crisp" style="stroke: rgb(68, 68, 68); stroke-opacity: 1; stroke-width: 1px;" d="M79,0h-5" transform="translate(0,359.95)"/><path class="ytick ticks crisp" style="stroke: rgb(68, 68, 68); stroke-opacity: 1; stroke-width: 1px;" d="M79,0h-5" transform="translate(0,286.81)"/><path class="ytick ticks crisp" style="stroke: rgb(68, 68, 68); stroke-opacity: 1; stroke-width: 1px;" d="M79,0h-5" transform="translate(0,213.67000000000002)"/><path class="ytick ticks crisp" style="stroke: rgb(68, 68, 68); stroke-opacity: 1; stroke-width: 1px;" d="M79,0h-5" transform="translate(0,140.53)"/><g class="ytick"><text text-anchor="end" x="71.6" y="4.199999999999999" style="font-family: TOBESTRIPPEDOpen SansTOBESTRIPPED, verdana, arial, sans-serif; font-size: 12px; fill: rgb(68, 68, 68); fill-opacity: 1; white-space: pre; opacity: 1;" transform="translate(0,359.95)">6</text></g><g class="ytick"><text text-anchor="end" x="71.6" y="4.199999999999999" style="font-family: TOBESTRIPPEDOpen SansTOBESTRIPPED, verdana, arial, sans-serif; font-size: 12px; fill: rgb(68, 68, 68); fill-opacity: 1; white-space: pre; opacity: 1;" transform="translate(0,286.81)">6.5</text></g><g class="ytick"><text text-anchor="end" x="71.6" y="4.199999999999999" style="font-family: TOBESTRIPPEDOpen SansTOBESTRIPPED, verdana, arial, sans-serif; font-size: 12px; fill: rgb(68, 68, 68); fill-opacity: 1; white-space: pre; opacity: 1;" transform="translate(0,213.67000000000002)">7</text></g><g class="ytick"><text text-anchor="end" x="71.6" y="4.199999999999999" style="font-family: TOBESTRIPPEDOpen SansTOBESTRIPPED, verdana, arial, sans-serif; font-size: 12px; fill: rgb(68, 68, 68); fill-opacity: 1; white-space: pre; opacity: 1;" transform="translate(0,140.53)">7.5</text></g></g><g class="overaxes-above"/></g></g><g class="polarlayer"/><g class="smithlayer"/><g class="ternarylayer"/><g class="geolayer"/><g class="funnelarealayer"/><g class="pielayer"/><g class="iciclelayer"/><g class="treemaplayer"/><g class="sunburstlayer"/><g class="glimages"/><defs id="topdefs-9bae9b"><g class="clips"/><clipPath id="legend9bae9b"><rect width="207" height="67" x="0" y="0"/></clipPath></defs><g class="layer-above"><g class="imagelayer"/><g class="shapelayer"/></g><g class="infolayer"><g class="legend" pointer-events="all" transform="translate(480.86,100)"><rect class="bg" shape-rendering="crispEdges" style="stroke: rgb(68, 68, 68); stroke-opacity: 1; fill: rgb(255, 255, 255); fill-opacity: 1; stroke-width: 0px;" width="207" height="67" x="0" y="0"/><g class="scrollbox" transform="" clip-path="url(#legend9bae9b)"><g class="groups"><g class="traces" style="opacity: 1;" transform="translate(0,14.5)"><text class="legendtext" text-anchor="start" style="font-family: TOBESTRIPPEDOpen SansTOBESTRIPPED, verdana, arial, sans-serif; font-size: 12px; fill: rgb(68, 68, 68); fill-opacity: 1; white-space: pre;" x="40" y="4.680000000000001">QUARTER-1H-OFF+2EMB</text><g class="layers" style="opacity: 1;"><g class="legendfill"/><g class="legendlines"><path class="js-line" d="M5,0h30" style="fill: none; stroke: rgb(144, 238, 144); stroke-opacity: 1; stroke-width: 2px;"/></g><g class="legendsymbols"><g class="legendpoints"/></g></g><rect class="legendtoggle" style="fill: rgb(0, 0, 0); fill-opacity: 0;" x="0" y="-9.5" width="201.88333129882812" height="19"/></g><g class="traces" style="opacity: 1;" transform="translate(0,33.5)"><text class="legendtext" text-anchor="start" style="font-family: TOBESTRIPPEDOpen SansTOBESTRIPPED, verdana, arial, sans-serif; font-size: 12px; fill: rgb(68, 68, 68); fill-opacity: 1; white-space: pre;" x="40" y="4.680000000000001">QUARTER-1H</text><g class="layers" style="opacity: 1;"><g class="legendfill"/><g class="legendlines"><path class="js-line" d="M5,0h30" style="fill: none; stroke: rgb(255, 0, 0); stroke-opacity: 1; stroke-width: 2px;"/></g><g class="legendsymbols"><g class="legendpoints"/></g></g><rect class="legendtoggle" style="fill: rgb(0, 0, 0); fill-opacity: 0;" x="0" y="-9.5" width="201.88333129882812" height="19"/></g><g class="traces" style="opacity: 1;" transform="translate(0,52.5)"><text class="legendtext" text-anchor="start" style="font-family: TOBESTRIPPEDOpen SansTOBESTRIPPED, verdana, arial, sans-serif; font-size: 12px; fill: rgb(68, 68, 68); fill-opacity: 1; white-space: pre;" x="40" y="4.680000000000001">QUARTER-1H-OFF</text><g class="layers" style="opacity: 1;"><g class="legendfill"/><g class="legendlines"><path class="js-line" d="M5,0h30" style="fill: none; stroke: rgb(0, 0, 255); stroke-opacity: 1; stroke-width: 2px;"/></g><g class="legendsymbols"><g class="legendpoints"/></g></g><rect class="legendtoggle" style="fill: rgb(0, 0, 0); fill-opacity: 0;" x="0" y="-9.5" width="201.88333129882812" height="19"/></g></g></g><rect class="scrollbar" rx="20" ry="3" width="0" height="0" style="fill: rgb(128, 139, 164); fill-opacity: 1;" x="0" y="0"/></g><g class="g-gtitle"><text class="gtitle" style="font-family: TOBESTRIPPEDOpen SansTOBESTRIPPED, verdana, arial, sans-serif; font-size: 17px; fill: rgb(68, 68, 68); opacity: 1; font-weight: normal; white-space: pre;" x="350" y="50" text-anchor="middle" dy="0em">val_loss</text></g><g class="g-xtitle"><text class="xtitle" style="font-family: TOBESTRIPPEDOpen SansTOBESTRIPPED, verdana, arial, sans-serif; font-size: 14px; fill: rgb(68, 68, 68); opacity: 1; font-weight: normal; white-space: pre;" x="276.5" y="422" text-anchor="middle">Steps</text></g><g class="g-ytitle"/></g></svg>